<svg width="176" height="40" viewBox="0 0 176 40" fill="none" xmlns="http://www.w3.org/2000/svg">
<g clip-path="url(#clip0_1453_140765)">
<path d="M90.7524 25.9783C90.7079 24.22 90.7079 22.5063 90.6412 20.7703C90.6189 20.0135 90.6189 19.2568 90.5967 18.5223C90.5744 17.7433 90.5744 16.9866 90.5744 16.2076C90.5522 15.4286 90.53 14.6274 90.53 13.8484C90.5077 13.0694 90.5077 12.3127 90.4855 11.5337C90.4855 10.7547 90.4855 9.998 90.4855 9.21901C90.4855 8.44002 90.4632 7.6833 90.4855 6.90431C90.5077 5.34634 90.5967 3.78837 90.5967 2.2304C90.5967 1.5627 90.7746 0.894996 90.6634 0.182781C90.8636 0.160524 91.0415 0.160522 91.1972 0.160522C96.1568 0.182779 101.139 0.205035 106.098 0.249548C107.121 0.249548 108.144 0.338576 109.145 0.427602C110.213 0.538886 111.236 0.783712 112.214 1.29562C113.06 1.74075 113.66 2.36394 114.016 3.27646C114.394 4.2335 114.616 5.2128 114.616 6.23661C114.616 6.94882 114.639 7.63878 114.683 8.351C114.75 9.50835 114.349 10.5322 113.682 11.4447C113.304 11.9343 112.815 12.3572 112.37 12.8023C112.326 12.8469 112.303 12.8691 112.281 12.9136C112.704 13.2697 113.148 13.6036 113.527 13.982C114.372 14.7832 114.75 15.807 114.905 16.9198C114.972 17.4763 115.017 18.0549 114.994 18.6113C114.972 19.4571 114.928 20.3029 114.794 21.1264C114.661 21.8608 114.283 22.5285 113.86 23.174C113.037 24.3981 111.881 25.1103 110.48 25.5332C109.679 25.778 108.856 25.8448 108.033 25.867C104.653 25.9783 101.294 26.0896 97.9138 26.1341C95.5563 26.1564 93.221 26.0451 90.8636 26.0006C90.8413 26.0006 90.8191 25.9783 90.7524 25.9783ZM101.695 14.0042V14.0265C98.7812 14.071 95.8899 14.1155 92.9764 14.1377C92.9097 14.1377 92.843 14.1377 92.7762 14.1377C92.3759 14.1823 92.2202 14.3158 92.2202 14.7164C92.1757 15.7847 92.1535 16.8531 92.1313 17.9214C92.1313 18.0772 92.1757 18.233 92.2202 18.3888C92.4649 19.0342 92.9986 19.3681 93.6214 19.5016C94.1329 19.6129 94.6444 19.6797 95.1782 19.7242C95.9789 19.791 96.7795 19.8132 97.6024 19.8132C98.7367 19.8132 99.8709 19.7687 101.005 19.7464C102.095 19.7242 103.185 19.6574 104.275 19.6352C105.542 19.6129 106.832 19.6352 108.1 19.6129C108.656 19.6129 109.234 19.5684 109.79 19.5016C110.19 19.4571 110.613 19.3681 110.991 19.2345C111.814 18.9452 112.348 18.3888 112.637 17.543C112.971 16.5415 112.815 15.6289 112.37 14.7164C112.214 14.4048 111.97 14.1823 111.592 14.071C111.102 13.9374 110.591 13.8262 110.079 13.8262C107.299 13.8929 104.497 13.9597 101.695 14.0042ZM107.255 6.28112C104.964 6.45918 102.873 6.61497 100.783 6.79303C100.405 6.81528 100.027 6.83754 99.6485 6.90431C98.9368 6.99334 98.2029 7.10462 97.4912 7.17139C96.6906 7.26042 95.9121 7.30493 95.1115 7.39396C94.3998 7.48299 93.6881 7.59427 92.9764 7.6833C92.5538 7.72781 92.0868 8.17294 92.0868 8.59582C92.0645 9.59737 92.0423 10.5989 92.109 11.6005C92.1757 12.6688 92.1313 12.8246 93.4434 12.8246C94.422 12.8246 95.4228 12.7578 96.4014 12.7133C97.6469 12.6465 98.8701 12.5798 100.116 12.513C101.494 12.4462 102.896 12.3795 104.275 12.3127C105.186 12.2682 106.098 12.2459 107.032 12.2014C107.077 12.2014 107.144 12.2014 107.188 12.2014C107.7 12.1346 108.233 12.0456 108.745 12.0011C109.457 11.9566 110.168 11.9121 110.858 11.7118C111.48 11.5115 112.014 11.1553 112.303 10.5767C112.77 9.6864 112.882 8.77387 112.437 7.81684C112.148 7.17139 111.658 6.79303 111.013 6.5482C110.524 6.37015 110.013 6.30338 109.501 6.30338C108.7 6.28112 107.877 6.28112 107.255 6.28112Z" fill="#0B0C0C"/>
<path d="M0.812057 0.249516C1.70167 0.249516 2.56905 0.249516 3.41419 0.249516C5.32687 0.249516 7.23954 0.227259 9.15222 0.249516C11.91 0.294029 14.6456 0.338546 17.4034 0.405316C17.9817 0.427572 18.5822 0.538855 19.1604 0.605625C19.2271 0.605625 19.2939 0.605625 19.3606 0.605625C20.139 0.561111 20.8285 0.850448 21.5401 1.09527C21.807 1.1843 22.0739 1.27333 22.3186 1.38461C23.4751 1.98554 24.0978 2.94258 24.4314 4.21121C24.7872 5.59113 24.7205 6.9933 24.7872 8.37322C24.854 9.66411 24.4536 10.8215 23.5418 11.7562C23.2749 12.0456 22.9858 12.3127 22.6966 12.602C22.5854 12.7133 22.4742 12.8468 22.3408 12.9581C22.7856 13.3365 23.2082 13.6703 23.6085 14.0487C24.4536 14.8499 24.854 15.8515 24.9874 16.9866C25.0541 17.5207 25.0986 18.0549 25.0764 18.5891C25.0541 19.4571 25.0097 20.3028 24.8762 21.1486C24.765 21.8831 24.4536 22.573 24.0311 23.1739C23.564 23.8639 23.008 24.4648 22.2741 24.8877C21.2955 25.4219 20.2724 25.8002 19.1382 25.8447C17.6703 25.9115 16.1802 26.0451 14.7123 26.0673C11.2428 26.1118 7.75107 26.1341 4.28156 26.1341C3.28075 26.1341 2.30217 26.0896 1.30135 26.0673C1.14566 26.0673 1.01222 26.0451 0.812057 26.0451C0.789817 25.9338 0.767576 25.8448 0.767576 25.7557C0.745336 24.22 0.723095 22.7066 0.678614 21.1708C0.634134 19.368 0.611893 17.5653 0.567412 15.7625C0.567412 15.6067 0.522931 15.4731 0.500691 15.3173C0.47845 15.1838 0.45621 15.0502 0.478451 14.9167C0.500691 14.6941 0.567412 14.4716 0.567412 14.2267C0.567412 11.0885 0.567412 7.95034 0.589653 4.81214C0.611893 3.3432 0.678614 1.87426 0.745336 0.383058C0.767576 0.427571 0.789817 0.3608 0.812057 0.249516ZM11.7321 14.1377C11.7321 14.1155 11.7321 14.1155 11.7321 14.0932C9.61927 14.16 7.50643 14.2267 5.39359 14.2713C4.63741 14.2935 3.88124 14.2713 3.12506 14.2713C3.01386 14.2713 2.88042 14.2713 2.76922 14.2935C2.45785 14.338 2.30217 14.4716 2.30217 14.7609C2.25769 15.8737 2.23545 17.0088 2.23545 18.1217C2.23545 18.2775 2.27993 18.4333 2.34665 18.5891C2.59129 19.1677 3.12506 19.4571 3.68107 19.6129C4.05916 19.7241 4.45949 19.7019 4.85982 19.7464C6.63905 19.969 8.41829 19.9467 10.1975 19.9022C12.7997 19.8577 15.4018 19.7909 18.0039 19.7241C18.3153 19.7241 18.6044 19.7241 18.9158 19.7241C19.7609 19.6796 20.5616 19.5684 21.3622 19.2345C21.7848 19.0564 22.1184 18.8339 22.363 18.4778C22.8078 17.8546 22.9635 17.1424 22.9191 16.3634C22.8968 16.1631 22.8078 15.985 22.8078 15.7847C22.8523 15.0502 22.2741 14.2267 21.4957 14.0932C20.9174 14.0042 20.3169 13.9151 19.7164 13.9151C17.0476 14.0042 14.401 14.0709 11.7321 14.1377ZM2.12424 10.3096C2.12424 10.7769 2.14648 11.2443 2.12424 11.7117C2.102 12.5797 2.43561 12.9581 3.30299 12.9804C3.39195 12.9804 3.48091 12.9804 3.54763 12.9804C4.03692 12.9581 4.54845 12.9359 5.03774 12.9136C6.39441 12.8468 7.75107 12.7801 9.10774 12.7133C10.6201 12.6243 12.1547 12.5352 13.667 12.4685C14.3565 12.4239 15.0459 12.4462 15.7354 12.3794C16.8252 12.2904 17.915 12.1791 19.027 12.0901C19.5385 12.0456 20.0723 12.0011 20.5838 11.8898C21.2288 11.734 21.8293 11.4669 22.2741 10.8882C22.5854 10.4876 22.6744 10.0425 22.7411 9.6196C22.9413 8.43999 22.5187 7.37167 21.2733 6.74848C20.6283 6.43689 19.9388 6.39237 19.2494 6.41463C17.4924 6.50366 15.7354 6.59269 13.9784 6.68171C13.2 6.72623 12.4216 6.793 11.6431 6.85977C10.7758 6.94879 9.90839 7.08233 9.04102 7.17136C7.99572 7.28264 6.92818 7.37167 5.88288 7.48295C4.99326 7.57198 4.10364 7.68326 3.21402 7.79455C2.56905 7.86132 2.16872 8.26194 2.14648 8.92964C2.102 9.37477 2.12424 9.84217 2.12424 10.3096Z" fill="#0B0C0C"/>
<path d="M71.937 26.9798C71.0919 26.9576 70.3357 26.9798 69.6018 26.8685C68.9123 26.7795 68.2451 26.5347 67.5557 26.3566C66.5104 26.0673 65.5318 25.5999 64.5754 25.0657C63.9305 24.6874 63.2855 24.2422 62.7295 23.7526C62.0623 23.1517 61.4395 22.484 60.8835 21.794C60.461 21.2821 60.1274 20.7257 59.7715 20.1693C58.9041 18.7893 58.3036 17.3204 57.7921 15.7847C57.7031 15.5176 57.6587 15.206 57.6587 14.9167C57.6142 14.1599 57.6142 13.381 57.5919 12.602C57.5697 11.4224 57.8811 10.3095 58.2147 9.17444C58.4593 8.37319 58.7929 7.61647 59.171 6.88199C59.6158 6.05849 60.1274 5.27951 60.7501 4.58955C61.0392 4.27796 61.2839 3.94411 61.5952 3.65477C62.4404 2.83127 63.3967 2.14131 64.3753 1.49587C65.3316 0.872677 66.3547 0.449799 67.4222 0.0936912C68.2674 -0.195646 69.1347 -0.395956 70.0466 -0.440469C71.5367 -0.529496 73.0268 -0.574009 74.5169 -0.373698C75.2953 -0.262414 76.0737 -0.106619 76.8077 0.204975C77.3637 0.427542 77.9642 0.516571 78.5202 0.739138C79.1874 1.02848 79.8324 1.36233 80.4551 1.71843C81.0778 2.07454 81.6783 2.47516 82.1899 3.00932C82.479 3.32092 82.8793 3.52123 83.1684 3.83282C83.8801 4.54504 84.4584 5.36854 84.9922 6.21429C85.7706 7.48292 86.3043 8.8851 86.6157 10.3318C86.8381 11.3779 87.016 12.4684 86.8604 13.5368C86.7269 14.5383 86.638 15.5399 86.3488 16.4969C86.0152 17.6097 85.6594 18.7448 85.0366 19.7686C84.703 20.3251 84.4361 20.926 83.9913 21.4379C83.4576 22.0388 82.946 22.662 82.3233 23.1962C81.7006 23.7081 81.0778 24.1977 80.4106 24.6206C79.8101 24.999 79.1652 25.2883 78.5202 25.6222C77.6528 26.045 76.741 26.2676 75.8291 26.5569C74.5392 26.9353 73.1825 26.9576 71.937 26.9798ZM70.6471 20.1915C70.6471 20.1693 70.6471 20.147 70.6471 20.1247C71.1586 20.1247 71.6924 20.147 72.2039 20.1247C73.2492 20.0802 74.3168 20.058 75.3621 19.9467C76.096 19.8799 76.8299 19.6796 77.5861 19.5461C79.0984 19.3013 80.5663 18.9006 81.9452 18.2329C82.9905 17.721 83.9246 17.0756 84.6586 16.1853C85.0589 15.6957 85.437 15.1392 85.5482 14.4938C85.6371 14.0709 85.7261 13.6258 85.7483 13.1806C85.8595 11.9565 85.5704 10.8214 84.6586 9.95342C84.1915 9.50829 83.6355 9.12992 83.1017 8.77382C82.1231 8.10611 81.1446 7.3939 79.9881 7.08231C79.1652 6.85974 78.32 6.65943 77.4749 6.45912C77.1635 6.39235 76.8522 6.39235 76.5408 6.34783C76.1182 6.30332 75.7179 6.28106 75.2953 6.23655C74.6504 6.14752 74.0054 5.99173 73.3382 5.96947C72.4708 5.92496 71.6034 5.92495 70.7138 5.92495C69.9576 5.92495 69.2015 5.96947 68.4453 6.14752C67.8448 6.28106 67.2443 6.34783 66.6438 6.43686C65.8654 6.54814 65.1314 6.88199 64.4198 7.17133C63.5746 7.52744 62.7295 7.88355 61.9288 8.30643C61.3951 8.59576 60.9058 8.95187 60.4387 9.33023C59.3489 10.1982 58.6595 11.2666 58.7262 12.7355C58.7707 13.8038 59.0821 14.7609 59.6158 15.6734C60.1051 16.4746 60.6834 17.1869 61.4395 17.7655C62.1957 18.322 62.9741 18.8116 63.8637 19.1455C64.2418 19.3013 64.6644 19.3235 65.0425 19.5016C65.7542 19.8354 66.5326 19.969 67.2888 20.058C68.423 20.147 69.5351 20.147 70.6471 20.1915Z" fill="#0B0C0C"/>
<path d="M147.243 25.9561C147.176 25.9783 147.087 26.0228 147.021 26.0673C146.576 26.4235 146.153 26.3567 145.842 25.867C145.442 25.2438 145.108 24.5984 144.708 23.9975C144.285 23.3743 144.018 22.7066 143.796 21.9944C143.618 21.4379 143.284 20.926 143.017 20.3919C142.506 19.3458 141.994 18.2997 141.483 17.2537C141.194 16.6528 141.194 16.6527 140.482 16.675C138.925 16.7418 137.368 16.8085 135.811 16.8976C132.965 17.0534 130.14 17.0534 127.293 16.9643C126.826 16.9421 126.382 16.9866 126.137 17.454C126.026 17.6543 125.959 17.8546 125.87 18.0772C125.581 18.8562 125.114 19.5461 124.802 20.3029C124.469 21.0818 124.091 21.8608 123.713 22.5953C123.29 23.3965 122.934 24.2423 122.334 24.9545C122.223 25.0658 122.156 25.2216 122.089 25.3774C121.889 25.8893 121.444 26.0451 120.977 26.0451C119.131 26.1119 117.285 26.1119 115.395 26.1341C115.461 25.7335 115.573 25.4664 115.751 25.1771C116.173 24.4649 116.529 23.7081 116.929 22.9737C117.463 21.9499 118.019 20.9038 118.553 19.8577C119.932 17.0979 121.288 14.338 122.667 11.5782C123.068 10.777 123.49 9.99799 123.868 9.17449C124.18 8.48453 124.447 7.75005 124.736 7.03784C125.025 6.30337 125.292 5.54664 125.603 4.81217C126.026 3.81061 126.471 2.83132 126.938 1.85202C127.138 1.42915 127.382 1.02853 127.605 0.627904C127.738 0.38308 127.938 0.24954 128.205 0.18277C128.961 0.00471585 129.718 -0.0397976 130.496 -0.0397976C131.43 -0.0397976 132.342 -0.0175429 133.276 -0.0175429C133.521 -0.0175429 133.765 -0.0620571 134.01 -0.0843138C134.544 -0.173341 134.855 0.138254 135.078 0.538875C135.389 1.16206 135.678 1.78525 135.967 2.40844C136.234 2.98712 136.501 3.56579 136.79 4.14446C137.368 5.34633 137.969 6.52594 138.525 7.75006C139.259 9.33029 139.948 10.955 140.638 12.5353C140.949 13.2697 141.283 13.9819 141.616 14.6942C142.639 16.8308 143.685 18.9452 144.73 21.0818C145.13 21.8831 145.508 22.7066 145.953 23.4633C146.353 24.1533 146.62 24.8877 147.065 25.5554C147.154 25.689 147.176 25.778 147.243 25.9561ZM134.077 1.27335C133.943 1.47366 133.832 1.58494 133.765 1.71848C132.92 3.52128 132.097 5.32407 131.252 7.10461C130.696 8.28422 130.096 9.44157 129.517 10.5989C129.05 11.556 128.583 12.4907 128.116 13.4478C127.716 14.2713 127.316 15.0948 126.893 15.9628C131.497 15.8515 136.034 15.7402 140.549 15.6289C140.682 15.3396 140.682 15.3396 140.615 15.1838C139.904 13.6036 139.192 12.0011 138.458 10.4209C137.746 8.86289 136.99 7.30492 136.256 5.74695C135.611 4.34478 134.966 2.9426 134.299 1.54043C134.277 1.42914 134.188 1.38463 134.077 1.27335Z" fill="#0B0C0C"/>
<path d="M171.441 25.5553C171.263 26.1118 170.796 26.1118 170.24 26.0672C169.728 25.355 169.172 24.6428 168.638 23.8861C168.016 22.9958 167.371 22.1278 166.792 21.2153C166.392 20.5698 166.059 19.9021 165.703 19.2122C165.08 18.0103 164.457 16.8084 163.857 15.6066C163.723 15.3395 163.545 15.1837 163.256 15.1837C162.189 15.1614 161.121 15.1614 160.054 15.1392C159.631 15.1392 159.208 15.0724 158.786 15.0724C156.206 15.0502 153.604 15.0502 151.024 15.2727C150.802 15.295 150.579 15.295 150.379 15.295C150.001 15.3172 149.912 15.4063 149.89 15.7846C149.89 16.3633 149.89 16.9197 149.89 17.4984C149.934 19.1677 149.979 20.8369 150.001 22.5284C150.023 23.5077 150.023 24.5093 150.09 25.4886C150.112 25.9782 149.712 26.2676 149.289 26.1785C149.067 26.134 148.956 26.0227 148.867 25.7556C148.778 25.4663 148.889 25.2215 148.867 24.9544C148.8 24.2199 148.956 23.4632 148.711 22.7287C148.644 22.5507 148.778 22.3059 148.778 22.1055C148.755 18.5445 148.689 14.9611 148.667 11.4001C148.667 7.92801 148.711 4.45596 148.755 0.983909C148.755 0.316207 148.978 0.0268693 149.623 -0.0176442C150.246 -0.0621576 150.891 -0.0176442 151.513 -0.0176442C151.78 -0.0176442 152.069 -0.084413 152.336 -0.10667C153.604 -0.151183 154.849 -0.217953 156.117 -0.217953C158.185 -0.24021 160.254 -0.217955 162.322 -0.195699C163.59 -0.173442 164.858 -0.151184 166.125 -0.062157C166.792 -0.0176435 167.46 0.115896 168.105 0.249436C168.416 0.316206 168.727 0.427492 169.017 0.516519C170.151 0.85037 170.929 1.6071 171.374 2.67542C171.619 3.2541 171.841 3.89954 171.819 4.50047C171.797 5.1014 172.019 5.65782 171.974 6.25875C171.93 6.92646 172.063 7.5719 172.13 8.2396C172.219 8.97408 172.241 9.68629 172.264 10.4208C172.286 11.0217 172.108 11.5781 171.819 12.1345C171.507 12.7577 171.063 13.2474 170.573 13.737C169.951 14.3602 169.217 14.7163 168.349 14.8499C167.26 15.0056 166.17 15.206 165.058 15.4063C165.169 15.6734 165.28 15.9182 165.391 16.163C165.747 16.9197 166.103 17.6987 166.503 18.4332C166.97 19.3235 167.46 20.2137 167.993 21.0595C168.394 21.7049 168.928 22.2836 169.372 22.9068C169.639 23.2629 169.862 23.6413 170.129 23.9751C170.573 24.5093 171.018 25.0212 171.441 25.5553ZM149.912 14.1154C150.29 14.1154 150.624 14.1376 150.957 14.1154C153.159 14.0264 155.339 13.9151 157.54 13.9373C159.853 13.9596 162.166 13.9596 164.479 13.9373C165.614 13.9373 166.77 13.8706 167.904 13.826C167.993 13.826 168.082 13.826 168.149 13.7815C168.527 13.6257 168.928 13.4699 169.306 13.3141C169.773 13.1138 170.173 12.8245 170.484 12.4016C171.174 11.4223 171.241 10.3095 171.129 9.17439C171.063 8.57345 170.885 7.99478 170.373 7.61642C170.106 7.4161 169.773 7.28257 169.461 7.12677C168.394 6.65938 167.26 6.43681 166.103 6.39229C163.412 6.32552 160.743 6.21424 158.052 6.21424C155.561 6.21424 153.092 6.32552 150.601 6.39229C150.357 6.39229 150.134 6.43681 149.934 6.63712C149.912 9.0631 149.912 11.5559 149.912 14.1154Z" fill="#0B0C0C"/>
<path d="M27.9009 26.045C28.0788 25.7779 28.2345 25.5331 28.4124 25.266C28.9239 24.5316 29.3243 23.7303 29.6579 22.9068C30.0582 21.9053 30.5475 20.9482 30.9256 19.9467C31.3037 18.9451 31.8152 18.0103 32.3045 17.0756C32.8605 16.0295 33.461 15.0057 34.017 13.9374C34.4396 13.1361 34.8177 12.3349 35.218 11.5336C35.4181 11.133 35.5738 10.7324 35.774 10.354C35.9964 9.90889 36.241 9.50827 36.4634 9.06313C36.8415 8.28415 37.1751 7.46065 37.5532 6.68166C38.1982 5.39077 38.8432 4.09988 39.4881 2.78674C39.6438 2.47514 39.8218 2.1858 39.9997 1.87421C40.1554 1.58487 40.2666 1.31779 40.2666 0.983941C40.2666 0.605577 40.5112 0.338497 40.8893 0.271727C41.1562 0.227213 41.4231 0.204956 41.6899 0.204956C42.9799 0.227213 44.2698 0.227213 45.5598 0.271727C46.0046 0.271727 46.4716 0.293982 46.9165 0.360752C47.339 0.427523 47.6726 0.583321 47.8505 1.05071C48.2064 1.96324 48.6067 2.83125 48.9848 3.72152C49.4519 4.83436 49.9189 5.92494 50.4082 7.01552C51.2311 8.84057 52.0762 10.6656 52.9436 12.4684C53.255 13.1361 53.6331 13.7816 53.9667 14.4493C54.367 15.295 54.7673 16.1408 55.1677 17.0088C55.4568 17.6542 55.7237 18.3219 56.0128 18.9896C56.3464 19.7909 56.68 20.6144 57.0136 21.4156C57.0803 21.5714 57.1693 21.7272 57.236 21.883C57.5029 22.3727 57.7698 22.8623 58.0367 23.3297C58.3703 23.9306 58.7484 24.5316 59.2154 25.0435C59.4156 25.2438 59.5935 25.4663 59.7937 25.6889C59.4601 26.2008 58.7928 26.2453 58.437 25.7557C58.1034 25.2883 57.7698 24.8209 57.4139 24.3535C56.7022 23.4187 56.2352 22.3727 55.7681 21.3043C55.6125 20.926 55.4345 20.5699 55.2566 20.1915C54.9008 19.3903 54.5227 18.589 54.1891 17.7655C53.9889 17.2314 53.6108 16.9865 53.0771 16.942C52.6767 16.9198 52.2764 16.9198 51.8761 16.9198C48.6957 16.8752 45.5375 16.8307 42.3572 16.8307C41.3341 16.8307 40.311 16.9198 39.288 17.0088C38.7097 17.0533 38.4651 17.3871 38.3316 17.8323C38.176 18.3219 37.9091 18.7893 37.7089 19.2567C37.5087 19.7464 37.3308 20.2583 37.1084 20.7479C36.8638 21.3043 36.5746 21.8385 36.33 22.3949C35.9074 23.2629 35.5293 24.1532 35.0845 25.0212C34.7954 25.5999 34.3284 26.045 33.6167 26.0673C33.1051 26.0895 32.6158 26.0895 32.1043 26.134C31.4371 26.2008 30.7699 26.0895 30.0804 26.1118C29.391 26.134 28.7015 26.0895 28.0121 26.0673C27.9676 26.0895 27.9454 26.0673 27.9009 26.045ZM39.2657 15.7402C41.601 15.7179 43.8695 15.7402 46.138 15.7402C48.4288 15.7402 50.7196 15.7402 53.0771 15.7402C52.9214 15.384 52.7879 15.0725 52.6545 14.7386C52.521 14.4493 52.3654 14.1377 52.2542 13.8483C51.9873 13.2251 51.7204 12.5797 51.4313 11.9565C51.0087 11.0217 50.5639 10.1092 50.1413 9.17442C49.7187 8.23964 49.3629 7.30485 48.9403 6.37007C48.4733 5.324 47.9618 4.27794 47.4725 3.23187C47.4057 3.07608 47.3835 2.92028 47.3168 2.76448C47.1389 2.3416 46.9609 1.94098 46.783 1.51811C46.694 1.54036 46.6496 1.56262 46.6496 1.58487C44.1364 6.25879 41.9568 11.0885 39.2657 15.7402Z" fill="#0B0C0C"/>
<path d="M84.6585 39.8442C84.5251 39.8442 84.3694 39.8442 84.1915 39.8442C83.8801 39.0652 83.5688 38.2639 83.2574 37.4627C83.0128 36.8395 82.7903 36.2163 82.5457 35.5931C82.5235 35.5486 82.4123 35.5486 82.2788 35.5264C82.2566 36.9508 82.2121 38.3307 82.1899 39.7329C82.0564 39.7551 81.9675 39.7551 81.8118 39.7774C81.8118 37.9969 81.8563 36.2608 81.9675 34.5471C82.0342 34.5026 82.0564 34.4803 82.1009 34.458C82.2121 34.4358 82.3233 34.4358 82.479 34.4358C82.7903 35.2593 83.124 36.0828 83.4353 36.884C83.7467 37.6853 84.0136 38.531 84.4806 39.399C84.7475 38.7759 84.9699 38.2639 85.1701 37.7298C85.5482 36.7282 85.904 35.7267 86.2821 34.7251C86.3711 34.4803 86.4823 34.4358 86.9271 34.458C86.9493 34.5471 86.9716 34.6361 86.9716 34.7251C87.016 36.2831 87.0605 37.8411 87.105 39.399C87.105 39.4881 87.1272 39.6216 87.0828 39.6884C87.0383 39.7552 86.9493 39.8219 86.7714 39.9555C86.7269 38.353 86.6824 36.8618 86.6379 35.3928C86.3488 35.3261 86.3488 35.5709 86.3043 35.7044C86.0375 36.3276 85.815 36.9731 85.5704 37.5962C85.437 37.9746 85.3035 38.353 85.1478 38.7313C85.0366 39.0874 84.8587 39.4436 84.6585 39.8442Z" fill="#0B0C0C"/>
<path d="M70.4469 34.4803C70.8695 34.3691 71.0029 34.5694 71.1141 34.8365C71.3365 35.4151 71.5589 35.9938 71.7813 36.5502C72.115 37.396 72.4263 38.2417 72.7599 39.0875C72.7822 39.1543 72.8044 39.1988 72.8711 39.3323C73.0046 39.1543 73.1158 39.043 73.1825 38.9094C73.4049 38.353 73.5828 37.7743 73.8052 37.2179C74.0276 36.6392 74.2723 36.0828 74.4947 35.5042C74.6281 35.148 74.7616 34.8142 74.9172 34.4358C75.0729 34.4358 75.2064 34.4136 75.3398 34.4136C75.3621 34.4581 75.4065 34.5026 75.4065 34.5249C75.4733 36.0161 75.54 37.485 75.6067 38.9762C75.6067 39.2655 75.7179 39.5771 75.451 39.8887C75.3843 39.7774 75.2731 39.6884 75.2731 39.5994C75.2286 39.3768 75.2286 39.132 75.2286 38.8872C75.2064 37.7076 75.1841 36.5057 75.1619 35.3261C75.1619 35.2816 75.1397 35.2371 75.1174 35.1258C74.7838 35.4596 74.7616 35.9048 74.6059 36.2831C74.428 36.6615 74.2945 37.0621 74.1388 37.4627C73.9832 37.8634 73.8275 38.264 73.6718 38.6424C73.5161 39.043 73.3604 39.4213 73.2047 39.7997C72.7154 39.8665 72.671 39.822 72.5153 39.4213C72.0705 38.264 71.6257 37.1289 71.2031 35.9715C71.1364 35.7935 71.0919 35.6377 71.0252 35.4596C70.9807 35.3706 70.9362 35.3038 70.825 35.1703C70.7805 36.4612 70.7583 37.6408 70.7138 38.8204C70.7138 39.0652 70.6916 39.3323 70.6916 39.5771C70.6916 39.7552 70.6026 39.7997 70.4024 39.822C70.3802 39.7329 70.3135 39.6439 70.3135 39.5771C70.3357 37.9079 70.3802 36.1941 70.4469 34.4803Z" fill="#0B0C0C"/>
<path d="M61.862 37.1957C62.507 37.2847 62.9295 37.6853 63.0185 38.2195C63.1075 38.7537 62.8183 39.3768 62.329 39.5994C62.0622 39.7107 61.773 39.822 61.5062 39.8442C60.8612 39.8887 60.194 39.8442 59.5045 39.8442C59.5045 38.0637 59.5045 36.2832 59.5045 34.4581C60.4164 34.4136 61.306 34.3913 62.1734 34.6584C62.6627 34.8142 62.9963 35.5932 62.7961 36.1274C62.6627 36.528 62.507 36.9064 62.0177 36.9954C61.951 37.0176 61.9287 37.1067 61.862 37.1957ZM59.8381 39.5994C60.4831 39.5549 61.0836 39.5104 61.6841 39.4659C62.1511 39.4436 62.5292 39.1098 62.5959 38.6424C62.6627 38.1972 62.5737 37.7966 62.0844 37.5518C61.3727 37.2179 60.6165 37.2402 59.8381 37.307C59.8381 38.086 59.8381 38.7982 59.8381 39.5994ZM59.8604 36.9509C60.4386 36.9509 60.9724 36.9954 61.4839 36.9509C61.9954 36.9063 62.418 36.439 62.4403 35.9716C62.4847 35.4151 62.3068 35.1703 61.7063 34.9478C61.217 34.7697 60.3496 34.7474 59.8604 34.881C59.8604 35.5932 59.8604 36.2832 59.8604 36.9509Z" fill="#0B0C0C"/>
<path d="M97.3133 39.9333C97.0909 39.0875 97.2688 38.2195 97.2021 37.3292C96.0901 37.3292 95.0003 37.3292 93.8438 37.3292C93.8438 37.6854 93.8438 38.0415 93.8438 38.3753C93.8438 38.7537 93.8438 39.1543 93.8438 39.5327C93.8438 39.7552 93.7771 39.9333 93.4657 39.8665C93.4657 38.0637 93.4657 36.2832 93.4657 34.4804C93.5769 34.4804 93.6881 34.4804 93.8438 34.4804C93.8438 35.3261 93.8438 36.1274 93.8438 36.9731C94.9781 36.9731 96.0678 36.9731 97.2466 36.9731C97.2243 36.3054 97.1799 35.66 97.1576 35.0145C97.1576 34.8365 97.2466 34.6584 97.3133 34.4804C97.3355 34.4581 97.4245 34.4581 97.5357 34.4581C97.5579 34.6362 97.5802 34.792 97.5802 34.97C97.5802 36.439 97.5802 37.9302 97.5802 39.3991C97.5802 39.5772 97.6024 39.822 97.3133 39.9333Z" fill="#0B0C0C"/>
<path d="M107.833 39.8665C107.833 38.9984 107.833 38.1749 107.833 37.2847C106.677 37.3069 105.587 37.2402 104.43 37.3515C104.43 38.0859 104.43 38.7981 104.43 39.4881C104.43 39.6439 104.475 39.8442 104.163 39.8887C104.141 39.7329 104.074 39.5771 104.074 39.4213C104.074 37.8634 104.074 36.3054 104.074 34.7474C104.074 34.5694 104.074 34.3913 104.408 34.4581C104.497 35.2593 104.408 36.1051 104.453 36.9508C105.587 36.9508 106.699 36.9508 107.833 36.9508C107.833 36.1051 107.833 35.3038 107.833 34.4581C107.967 34.4581 108.056 34.4581 108.189 34.4581C108.211 34.6361 108.233 34.7919 108.233 34.9477C108.233 36.4167 108.233 37.9079 108.233 39.3768C108.233 39.6216 108.233 39.8219 107.833 39.8665Z" fill="#0B0C0C"/>
<path d="M98.8924 34.3913C99.0481 34.4803 99.1815 34.5026 99.2038 34.5694C99.2483 34.7029 99.2705 34.8587 99.2705 35.0145C99.2705 35.7267 99.2483 36.4612 99.2483 37.1734C99.2483 37.6185 99.2705 38.0414 99.315 38.4866C99.3817 39.043 99.8488 39.4881 100.405 39.5994C100.783 39.6662 101.139 39.6662 101.495 39.5549C102.006 39.3768 102.251 38.9985 102.34 38.4643C102.54 37.3515 102.384 36.2386 102.451 35.1258C102.451 34.9477 102.451 34.7919 102.473 34.6361C102.495 34.5694 102.584 34.5026 102.74 34.3468C102.784 34.6139 102.829 34.7697 102.829 34.9032C102.829 35.9048 102.851 36.9063 102.829 37.9079C102.829 38.4198 102.673 38.9094 102.362 39.3323C102.14 39.6216 101.873 39.8442 101.495 39.8665C101.072 39.911 100.627 39.9778 100.205 39.9332C99.4929 39.8442 99.0036 39.2878 98.9591 38.5533C98.8257 37.1957 98.8924 35.838 98.8924 34.3913Z" fill="#0B0C0C"/>
<path d="M113.415 34.4803C113.415 35.7489 113.46 37.0176 113.393 38.264C113.349 38.9539 113.037 39.5326 112.259 39.8219C111.747 40 111.325 39.9777 110.836 39.9109C110.324 39.8219 109.946 39.5326 109.746 39.0874C109.59 38.7536 109.501 38.353 109.501 37.9969C109.479 36.9285 109.501 35.8602 109.501 34.7696C109.501 34.5026 109.59 34.3913 109.901 34.5026C109.901 34.7919 109.901 35.059 109.901 35.3483C109.901 36.3054 109.924 37.2624 109.901 38.2194C109.901 38.7091 110.146 39.1097 110.48 39.4213C110.747 39.6884 111.125 39.6439 111.48 39.6661C112.348 39.6884 112.904 39.1987 113.015 38.3307C113.06 37.9746 113.104 37.5962 113.104 37.2401C113.126 36.4166 113.104 35.5931 113.104 34.7696C113.104 34.5471 113.104 34.3913 113.415 34.4803Z" fill="#0B0C0C"/>
<path d="M92.4871 39.8665C92.0646 39.9332 91.9756 39.6439 91.8867 39.4213C91.7977 39.2433 91.7977 39.0207 91.731 38.8204C91.6643 38.6201 91.5753 38.442 91.4641 38.1972C90.7302 38.1972 89.9962 38.1972 89.24 38.1972C89.1066 38.1972 88.9509 38.3085 88.8842 38.4198C88.773 38.6201 88.684 38.8649 88.6396 39.1097C88.5951 39.4436 88.3949 39.6661 88.1947 39.8887C88.1725 39.911 88.128 39.8887 88.0391 39.8887C88.0613 39.221 88.4394 38.6869 88.6396 38.0859C88.8397 37.485 89.1066 36.9063 89.329 36.3054C89.5514 35.7045 89.7738 35.0813 89.9962 34.5026C90.441 34.4581 90.5078 34.5026 90.6412 34.8364C91.1082 36.1051 91.5975 37.3737 92.0646 38.6423C92.1758 39.0207 92.3092 39.4213 92.4871 39.8665ZM90.2631 34.8587C89.9517 35.3483 89.1733 37.5072 89.1733 37.7966C89.885 37.7966 90.5967 37.7966 91.3529 37.7966C90.9748 36.8173 90.6412 35.8825 90.2631 34.8587Z" fill="#0B0C0C"/>
<path d="M76.4518 39.7996C76.6519 39.221 76.8521 38.6423 77.0523 38.0636C77.3414 37.3069 77.6528 36.5279 77.9419 35.7712C78.0753 35.4151 78.1865 35.0812 78.32 34.7251C78.3867 34.5471 78.5201 34.4135 78.7426 34.4358C78.965 34.4358 78.9872 34.5916 79.0317 34.7696C79.2986 35.5486 79.6099 36.3053 79.899 37.0843C80.1882 37.8633 80.4995 38.62 80.7887 39.399C80.8331 39.5326 80.8109 39.7106 80.7887 39.8887C80.2327 39.4658 80.2771 38.7758 79.899 38.1972C79.3653 38.1972 78.787 38.1972 78.2088 38.1972C77.2969 38.1972 77.2302 38.2639 77.0078 39.1765C76.9633 39.3768 76.8966 39.5993 76.7854 39.7774C76.7409 39.8442 76.6297 39.8887 76.5407 39.9332C76.5407 39.8664 76.4963 39.8442 76.4518 39.7996ZM79.7211 37.8411C79.7211 37.4404 78.9205 35.2815 78.6981 35.059C78.32 35.5709 77.6305 37.4627 77.675 37.8411C78.3422 37.8411 79.0094 37.8411 79.7211 37.8411Z" fill="#0B0C0C"/>
<path d="M65.3315 39.8443C65.3315 39.2878 65.3093 38.7537 65.3315 38.2195C65.3538 37.8412 65.2426 37.5296 65.0424 37.1957C64.5309 36.35 64.0416 35.4819 63.5523 34.6362C63.53 34.5917 63.5301 34.5472 63.5078 34.4804C63.7302 34.3691 63.8637 34.5026 63.9526 34.6584C64.4197 35.4819 64.8867 36.2832 65.3982 37.1734C65.5317 37.0622 65.7096 36.9509 65.7986 36.7951C66.1989 36.1496 66.5548 35.4819 66.9328 34.8142C67.044 34.6362 67.1552 34.4581 67.5111 34.3914C67.3776 34.6584 67.3109 34.881 67.1997 35.0813C66.7327 35.8603 66.2656 36.6393 65.8208 37.4183C65.7096 37.6186 65.6874 37.8857 65.6874 38.1305C65.6651 38.5979 65.6874 39.0653 65.6651 39.5327C65.6651 39.7107 65.6429 39.8665 65.3315 39.8443Z" fill="#0B0C0C"/>
</g>
<defs>
<clipPath id="clip0_1453_140765">
<rect width="176" height="40" fill="white"/>
</clipPath>
</defs>
</svg>
