<svg width="198" height="69" viewBox="0 0 198 69" fill="none" xmlns="http://www.w3.org/2000/svg">
<g clip-path="url(#clip0_1453_140733)">
<path d="M97.9559 0.112556C97.7043 0.137636 97.4778 0.162717 97.2262 0.187798C96.069 0.288119 94.9117 0.338279 93.7795 0.463681C92.5216 0.614163 91.2888 0.915126 90.056 1.09069C86.2068 1.66754 82.3575 2.19422 78.5082 2.77107C74.0552 3.42316 69.6021 4.1254 65.149 4.77749C64.8974 4.80257 64.6458 4.65209 64.3942 4.70225C63.9665 4.77749 63.5389 5.00322 63.1112 5.07846C61.5262 5.32926 59.9412 5.45466 58.3562 5.75562C56.8215 6.05659 55.2365 6.05659 53.7018 6.43279C52.771 6.65852 51.7898 6.73376 50.8337 6.85916C48.6449 7.16012 46.431 7.43601 44.2422 7.76205C42.7075 7.98777 41.1728 8.28873 39.6382 8.53954C38.506 8.7151 37.3487 8.8405 36.2166 9.01606C34.229 9.34211 32.2667 9.69323 30.2791 9.9942C27.3356 10.4456 24.3669 10.8218 21.4233 11.2733C18.8571 11.6495 16.2658 12.0508 13.6996 12.427C11.3599 12.7781 8.99495 13.0791 6.6552 13.4302C4.69282 13.7061 2.73045 14.0321 0.74292 14.308C0.994506 14.3331 1.24609 14.308 1.49768 14.2829C3.23362 14.1074 4.96957 13.9067 6.70551 13.7562C7.86281 13.6559 9.04527 13.6058 10.2277 13.4804C11.6618 13.3048 13.0706 13.054 14.5047 12.9035C15.9136 12.753 17.3476 12.6778 18.7817 12.5022C20.6686 12.2765 22.5303 11.9755 24.4172 11.7749C26.9582 11.499 29.4741 11.2733 32.0151 10.9974C33.5749 10.8469 35.1348 10.6714 36.6946 10.4958C39.0847 10.2199 41.4747 9.89388 43.8396 9.61799C44.8963 9.49259 45.9781 9.46751 47.0348 9.36719C48.1669 9.24179 49.2739 9.01606 50.406 8.89066C52.0665 8.69002 53.727 8.53954 55.4126 8.36398C56.9725 8.21349 58.5323 8.03793 60.0921 7.86237C61.8281 7.66173 63.564 7.43601 65.3251 7.26044C67.1617 7.0598 68.9983 6.90932 70.8349 6.73376C71.5896 6.65852 72.3192 6.58328 73.074 6.48295C74.3822 6.33247 75.6653 6.13183 76.9736 5.98135C78.2315 5.83087 79.4894 5.73054 80.7222 5.63022C83.2884 5.37942 85.8294 5.12862 88.3956 4.87781C88.5465 4.85273 88.6975 4.85273 88.8233 4.82765C89.7038 4.67717 90.5844 4.47653 91.4649 4.35113C92.1442 4.25081 92.8487 4.30097 93.5279 4.22573C95.4148 4.02508 97.3017 3.7492 99.1886 3.64888C100.296 3.57364 101.428 3.77428 102.56 3.8746C103.013 3.89968 103.466 3.97492 103.918 4.02508C105.252 4.17557 106.61 4.35113 107.944 4.50161C108.875 4.60193 109.806 4.67717 110.736 4.77749C112.045 4.92797 113.328 5.10354 114.636 5.25402C115.517 5.35434 116.422 5.42958 117.303 5.5299C118.309 5.63022 119.341 5.7807 120.347 5.88103C121.228 5.98135 122.083 6.03151 122.964 6.13183C124.272 6.28231 125.555 6.48295 126.863 6.60836C128.197 6.75884 129.555 6.85916 130.888 7.00964C132.247 7.16012 133.606 7.36076 134.989 7.51125C136.901 7.71189 138.839 7.88745 140.751 8.08809C142.185 8.23858 143.619 8.48938 145.078 8.63986C147.065 8.86558 149.078 9.04114 151.091 9.24179C152.525 9.39227 153.959 9.59291 155.393 9.76847C156.928 9.94404 158.437 10.0694 159.972 10.245C161.054 10.3704 162.135 10.546 163.217 10.6714C165.104 10.872 166.966 11.0476 168.853 11.2482C171.419 11.5492 173.96 11.8752 176.526 12.1762C178.388 12.3768 180.225 12.5273 182.086 12.7279C184.426 12.9788 186.766 13.3048 189.106 13.5556C190.967 13.7562 192.829 13.8816 194.716 14.0572C193.584 13.8566 192.477 13.6308 191.345 13.4553C189.81 13.2045 188.25 13.054 186.715 12.8032C184.552 12.4771 182.439 12.0508 180.25 11.8251C180.149 11.8251 180.048 11.8 179.948 11.7749C179.168 11.6244 178.388 11.3987 177.583 11.2984C176.023 11.0977 174.463 11.0225 172.929 10.7968C169.884 10.3704 166.865 9.86879 163.846 9.41735C162.488 9.21671 161.129 9.01607 159.771 8.81542C156.299 8.28874 152.827 7.76205 149.38 7.23536C148.147 7.0598 146.889 6.88424 145.631 6.6836C142.612 6.25723 139.619 5.80579 136.6 5.37942C134.813 5.12862 133.052 4.82765 131.291 4.55177C129.052 4.20065 126.788 3.8746 124.523 3.54856C122.611 3.27268 120.699 3.04695 118.787 2.77107C115.919 2.3447 113.076 1.86818 110.208 1.41673C109 1.21609 107.793 1.16593 106.585 0.940207C104.874 0.614163 103.139 0.48876 101.403 0.263037C101.226 0.237957 101.076 0.162717 100.899 0.0874761H98.0313C97.9559 0.0623958 97.9559 0.0874757 97.9559 0.112556Z" fill="black"/>
<path d="M197.961 14.4083C197.207 14.308 196.477 14.1575 195.722 14.1073C195.345 14.0823 194.968 14.0321 194.615 14.007C195.622 14.2077 196.653 14.3832 197.66 14.5839C197.76 14.5839 197.861 14.5337 197.961 14.4083Z" fill="black"/>
<path d="M0.768137 53.5838C0.466234 53.5587 0.16433 53.5336 -0.137573 53.5336C0.16433 53.5587 0.466234 53.5838 0.768137 53.5838Z" fill="black"/>
<path d="M192.754 54.0603C191.471 54.2108 190.187 54.4866 188.879 54.5619C187.244 54.6371 185.634 55.2391 183.973 54.8127C183.898 54.7876 183.822 54.8628 183.747 54.8879C183.369 54.9882 183.017 55.1638 182.64 55.1889C181.759 55.2892 180.904 55.2892 180.023 55.3895C178.589 55.5651 177.18 55.7908 175.772 55.9413C174.01 56.1419 172.275 56.3175 170.513 56.5181C168.199 56.7689 165.884 57.0699 163.544 57.3207C161.23 57.5715 158.89 57.7972 156.576 58.048C155.041 58.2236 153.481 58.3992 151.946 58.5747C149.43 58.8506 146.889 59.1265 144.374 59.4024C142.361 59.6281 140.323 59.8789 138.31 60.0796C135.367 60.4056 132.398 60.6815 129.455 61.0075C127.366 61.2332 125.278 61.484 123.19 61.7098C120.649 61.9857 118.083 62.2615 115.542 62.5625C113.655 62.7631 111.793 63.0139 109.906 63.2146C107.265 63.4905 104.623 63.7413 102.006 64.0673C100.245 64.293 98.4843 64.3934 96.698 64.1426C95.3646 63.9419 94.0312 63.8667 92.6978 63.7413C91.7921 63.666 90.8612 63.666 89.9806 63.5657C89.0498 63.4654 88.1189 63.2397 87.188 63.1143C85.9301 62.9638 84.647 62.8384 83.3639 62.6879C82.0808 62.5374 80.7726 62.3619 79.4895 62.2114C77.7787 62.0358 76.0428 61.8853 74.332 61.7098C71.7658 61.4339 69.1996 61.1329 66.6334 60.857C65.3252 60.7066 63.9918 60.6062 62.6835 60.4558C60.3438 60.1799 57.9789 59.904 55.6391 59.603C54.7334 59.5027 53.8529 59.3271 52.9723 59.2017C52.4943 59.1265 51.9911 59.0513 51.5131 59.0262C50.0791 58.976 48.645 59.0011 47.2865 58.4243C47.1858 58.3741 47.06 58.4493 46.9342 58.4493C46.7078 58.4744 46.5065 58.5497 46.2801 58.5497C44.7706 58.3992 43.2611 58.2236 41.7516 58.0982C40.1162 57.9728 38.5313 57.6468 36.8959 57.5464C33.9775 57.3207 31.0843 56.9194 28.1911 56.5934C26.4048 56.3927 24.6437 56.1921 22.8574 55.9915C21.197 55.8159 19.5365 55.6153 17.8509 55.4648C16.8194 55.3644 15.7879 55.3143 14.7563 55.214C12.9952 55.0384 11.2593 54.8127 9.4982 54.612C8.89439 54.5368 8.29058 54.5117 7.68678 54.4365C6.20242 54.2358 4.71806 53.96 3.2337 53.7844C2.45378 53.6841 1.6487 53.659 0.843628 53.6339C1.3468 53.659 1.84997 53.7342 2.35315 53.8095C5.22123 54.286 8.06415 54.7876 10.9322 55.239C13.2468 55.5902 15.5866 55.8661 17.9263 56.2172C20.2409 56.5683 22.5807 56.9696 24.8953 57.3207C26.2287 57.5214 27.5873 57.6468 28.9458 57.8474C32.5687 58.349 36.1915 58.9509 39.8395 59.4275C41.3239 59.6281 42.8082 59.8789 44.2926 60.1046C45.7015 60.3303 47.1103 60.5812 48.5192 60.7818C50.3055 61.0326 52.0666 61.2583 53.8529 61.5091C55.0605 61.6847 56.2681 61.8853 57.4757 62.0609C60.7966 62.5374 64.1176 63.0139 67.4385 63.5155C69.1745 63.7664 70.8852 64.0673 72.6212 64.3181C74.6087 64.6191 76.6214 64.8699 78.6089 65.1458C82.0305 65.6474 85.4773 66.1741 88.8988 66.7008C91.6411 67.102 94.3834 67.5033 97.1257 67.9046C97.9056 68.03 98.7107 68.1805 99.4906 68.1554C100.271 68.1303 101.05 67.9046 101.856 67.8043C108.346 66.8512 114.837 65.8982 121.353 64.9451C124.75 64.4435 128.121 63.9419 131.518 63.4403C136.147 62.7631 140.801 62.1111 145.43 61.4339C149.909 60.7818 154.362 60.0796 158.84 59.4275C162.639 58.8757 166.413 58.349 170.212 57.7972C174.866 57.1201 179.545 56.4178 184.2 55.7156C186.112 55.4397 187.999 55.0886 189.911 54.8127C191.37 54.612 192.829 54.4616 194.288 54.2609C194.741 54.2108 195.194 54.0854 195.647 53.985C195.647 53.9349 195.647 53.8847 195.622 53.8596C194.59 53.8596 193.685 53.9349 192.754 54.0603Z" fill="black"/>
<path d="M152.349 16.6655C151.317 16.7157 150.286 16.6906 149.254 16.6655C148.801 16.6655 148.525 16.816 148.323 17.2675C147.518 19.1485 146.663 21.0044 145.833 22.8604C145.782 22.9858 145.657 23.1112 145.481 23.3369C145.204 22.8102 145.003 22.4089 144.801 22.0076C144.021 20.4025 143.267 18.7974 142.461 17.2173C142.336 16.9916 142.034 16.7157 141.833 16.7157C140.575 16.6655 139.342 16.6906 138.084 16.6906C137.782 16.6906 137.48 16.7408 137.254 16.7659C137.379 17.443 137.581 18.0199 137.581 18.6218C137.631 27.0237 137.631 35.4256 137.631 43.8526C137.631 44.2288 137.53 44.6301 137.379 45.0063C137.178 45.5831 137.254 45.7587 137.883 45.7838C139.015 45.859 140.172 45.9343 141.304 46.0095C141.707 46.0346 141.833 45.8841 141.757 45.4828C141.606 44.6802 141.355 43.8526 141.355 43.05C141.304 36.5291 141.329 30.0083 141.304 23.4874C141.304 23.2617 141.329 23.061 141.329 22.8353C141.38 22.8102 141.455 22.8102 141.505 22.7851C143.04 25.3935 144.021 28.3028 145.481 31.0115C146.764 28.2777 147.996 25.6944 149.229 23.0861C149.305 23.1112 149.38 23.1112 149.456 23.1363C149.481 23.362 149.531 23.5626 149.531 23.7883C149.531 30.5851 149.531 37.3819 149.531 44.1786C149.531 44.7304 149.405 45.2822 149.229 45.8088C149.078 46.2603 149.204 46.3857 149.632 46.3857C150.437 46.3857 151.242 46.3857 152.047 46.4108C152.626 46.4359 153.179 46.5111 153.682 46.5613C153.607 45.5079 153.456 44.605 153.456 43.7021C153.431 35.7266 153.431 27.7761 153.431 19.8006C153.431 18.7974 153.204 17.744 153.783 16.8662C153.33 16.2893 152.827 16.6405 152.349 16.6655Z" fill="black"/>
<path d="M18.3038 16.7659C16.8949 16.7408 15.486 16.6907 14.1023 16.6656C13.7752 16.6656 13.8004 16.8913 13.901 17.1672C14.0771 17.6939 14.2784 18.2456 14.2784 18.7974C14.3035 28.1524 14.3035 37.5073 14.2784 46.8623C14.2784 47.3137 14.1274 47.7652 14.0268 48.1915C13.9765 48.3922 13.9262 48.5928 13.8507 48.7935C14.0771 48.8436 14.3035 48.9439 14.5048 48.9189C15.6369 48.8185 16.7942 48.6931 17.9264 48.5427C18.2534 48.4925 18.5302 48.4172 18.3038 47.9407C18.1276 47.5645 18.0522 47.088 18.0522 46.6867C18.027 42.7993 18.0522 38.9118 18.0522 35.0244C18.0522 34.598 18.2031 34.4224 18.6308 34.4224C19.8636 34.4224 21.0712 34.4224 22.304 34.3974C22.782 34.3723 22.9078 34.5729 22.9078 35.0244C22.8826 38.7613 22.9078 42.5234 22.8826 46.2603C22.8826 46.6616 22.7065 47.0629 22.6059 47.4642C22.5556 47.6648 22.5052 47.8655 22.4549 48.0661C22.6814 48.1163 22.8826 48.2166 23.109 48.1915C23.7632 48.1414 24.4425 48.016 25.0966 47.9407C25.7507 47.8655 26.3797 47.7902 26.908 47.7401C26.8074 46.8121 26.6816 46.0597 26.6564 45.2571C26.6061 44.3292 26.6313 43.3761 26.6313 42.4231C26.6313 38.1594 26.6061 33.8958 26.6564 29.607C26.7067 25.3434 26.43 21.0797 26.8828 16.7408C25.4488 16.7408 23.9644 16.7408 22.3543 16.7408C23.26 18.4463 22.8071 20.2019 22.8826 21.9325C22.9581 23.5376 22.9078 25.1427 22.9078 26.7729C22.9078 27.8514 22.9329 28.9048 22.8826 29.9832C22.8826 30.2089 22.631 30.5852 22.4801 30.6102C21.1718 30.7356 19.8384 30.8109 18.5302 30.8861C18.1528 30.9112 18.027 30.7106 18.027 30.3344C18.0522 27.1241 18.027 23.9389 18.0522 20.7286C18.0773 19.4495 17.8509 18.1453 18.4295 16.9164C18.3289 16.791 18.3038 16.7659 18.3038 16.7659Z" fill="black"/>
<path d="M121.706 45.1317C122.989 45.232 124.297 45.3324 125.58 45.4327C126.008 45.4578 126.033 45.232 125.957 44.9311C125.857 44.5298 125.63 44.1285 125.63 43.7272C125.605 40.843 125.605 37.9588 125.63 35.0745C125.63 34.6231 125.907 34.3723 126.335 34.3723C127.215 34.3472 128.096 34.3472 129.002 34.3723C129.782 34.3973 130.083 34.7485 130.083 35.5009C130.083 37.8333 130.109 40.1909 130.109 42.5234C130.109 43.3761 130.234 44.2288 129.731 45.0063C129.681 45.0816 129.731 45.207 129.756 45.4076C131.241 45.4076 132.7 45.4076 134.209 45.4076C134.109 44.8057 133.958 44.1787 133.908 43.5517C133.857 42.7992 133.882 42.0468 133.882 41.2944C133.882 34.3974 133.857 27.5003 133.882 20.6032C133.882 19.8508 133.706 19.2739 133.102 18.7974C132.474 18.2958 131.945 17.6939 131.291 17.2424C130.914 16.9665 130.411 16.7157 129.958 16.6907C128.524 16.6154 127.09 16.6154 125.656 16.6656C125.278 16.6656 124.85 16.8662 124.523 17.117C123.844 17.6437 123.215 18.2456 122.561 18.7723C122.058 19.1736 121.857 19.625 121.857 20.2771C121.882 23.036 121.857 25.7948 121.857 28.5536C121.857 31.3125 121.907 34.0713 121.857 36.8301C121.806 39.5639 122.184 42.3227 121.605 45.0314C121.605 45.1066 121.655 45.1317 121.706 45.1317ZM125.63 22.2334C125.63 20.9543 126.435 20.0765 127.492 20.0263C129.052 19.9762 129.882 20.6533 130.008 22.108C130.058 22.8102 130.033 23.5376 130.033 24.2398C130.033 24.9421 130.033 25.6694 130.033 26.3717C130.033 27.6758 130.008 28.9549 130.033 30.2591C130.058 30.7858 129.832 30.9613 129.329 30.9613C128.272 30.9363 127.215 30.9613 126.159 30.9864C125.731 30.9864 125.555 30.8359 125.58 30.4096C125.63 27.6758 125.605 24.9672 125.63 22.2334Z" fill="black"/>
<path d="M161.356 17.2926C161.381 17.0919 161.18 16.7157 161.079 16.7157C159.695 16.6656 158.311 16.6907 156.928 16.6907C157.028 17.6437 157.23 18.4964 157.23 19.3742C157.255 24.1144 157.255 28.8797 157.255 33.6199C157.255 36.7047 157.255 39.8147 157.28 42.8996C157.28 43.351 157.381 43.9028 157.657 44.2288C158.387 45.0565 159.242 45.7838 160.073 46.5111C160.349 46.7369 160.727 46.8873 161.079 46.9375C162.236 47.088 163.419 47.2134 164.576 47.3137C165.431 47.3889 166.236 47.3137 166.891 46.6115C167.369 46.1099 167.897 45.6584 168.476 45.2822C169.004 44.9311 169.13 44.5047 169.13 43.9028C169.105 35.6263 169.105 27.3247 169.13 19.0482C169.13 18.4714 169.306 17.8945 169.457 17.3678C169.583 16.9415 169.557 16.7408 169.054 16.7408C167.821 16.7408 166.614 16.7408 165.381 16.7157C164.979 16.7157 164.903 16.8662 164.978 17.2675C165.155 17.9948 165.306 18.7472 165.306 19.4746C165.331 26.5221 165.356 33.5697 165.356 40.6173C165.356 41.0687 165.356 41.5452 165.255 41.9967C165.18 42.3478 165.029 42.724 164.802 42.9999C163.972 44.0784 161.934 43.6771 161.406 42.6237C161.129 42.0719 160.978 41.3948 160.978 40.7677C160.953 33.6449 160.953 26.5472 160.978 19.4244C161.079 18.672 161.305 17.9698 161.356 17.2926Z" fill="black"/>
<path d="M65.9794 43.4262C66.558 43.7774 67.1115 44.2037 67.5643 44.7053C67.992 45.1819 68.4952 45.3825 69.099 45.3825C70.4827 45.3825 71.8916 45.4076 73.2754 45.3574C73.6527 45.3323 74.1056 45.1819 74.4075 44.9311C75.2629 44.2288 76.068 43.4513 76.8479 42.6738C77.0491 42.4732 77.2253 42.1221 77.2504 41.8211C77.3007 41.0185 77.2504 40.216 77.2504 39.4134C77.2504 33.6951 77.3007 27.9517 77.2756 22.2334C77.2504 19.0733 77.7033 19.8006 75.2377 17.6938C75.0868 17.5684 74.9358 17.443 74.81 17.3176C74.3572 16.8411 73.8037 16.6906 73.1496 16.6906C71.7407 16.6906 70.3318 16.6405 68.9229 16.6906C68.5707 16.6906 68.1682 16.9164 67.8662 17.117C67.2624 17.5434 66.6586 18.045 66.1303 18.5466C65.6271 19.0231 65.2246 19.4745 65.2498 20.3022C65.3001 23.8636 65.2749 27.4501 65.2749 31.0366H65.2498C65.2498 34.623 65.2498 38.1845 65.2498 41.7709C65.2246 42.4481 65.3001 43.0249 65.9794 43.4262ZM69.0739 24.0893C69.0739 23.3369 69.099 22.5594 69.1242 21.807C69.1493 20.8289 69.9041 20.1016 70.8853 20.0514C72.3948 19.9762 73.225 20.4778 73.376 21.5813C73.4515 22.2585 73.5018 22.9607 73.5018 23.6379C73.5269 26.2462 73.5018 28.8546 73.5018 31.488C73.4766 31.488 73.4766 31.488 73.4515 31.488C73.4515 34.0713 73.4515 36.6295 73.4515 39.2127C73.4515 39.5889 73.3508 39.9652 73.3508 40.3163C73.3005 41.5703 72.0677 42.0217 71.2375 42.0217C70.1808 42.0468 69.3758 41.3446 69.1997 40.2661C69.1242 39.8398 69.1242 39.3883 69.1242 38.9619C69.0487 33.996 69.0487 29.0301 69.0739 24.0893Z" fill="black"/>
<path d="M105.629 18.9729C104.975 18.4713 104.371 17.9196 103.793 17.3678C103.315 16.8913 102.736 16.7157 102.082 16.7157C100.723 16.7157 99.3396 16.6656 97.9811 16.7408C97.5534 16.7659 97.1005 16.9916 96.7483 17.2424C96.0439 17.7691 95.4149 18.3961 94.7356 18.9479C94.3834 19.2488 94.2324 19.5498 94.2324 20.0263C94.2324 25.8199 94.1821 31.6134 94.1821 37.407C94.1821 38.7864 94.1821 40.1658 94.2324 41.5452C94.2576 41.8713 94.4337 42.2725 94.6853 42.5234C95.3646 43.2256 96.069 43.9028 96.8489 44.5047C97.1508 44.7555 97.6037 44.906 97.9811 44.9311C99.5158 44.9812 101.05 44.9561 102.61 44.9311C102.862 44.9311 103.189 44.7806 103.39 44.605C104.17 43.978 104.849 43.2507 105.654 42.6738C106.158 42.3227 106.309 41.9465 106.309 41.3697C106.283 37.9086 106.309 34.4224 106.309 30.9613C106.309 27.4752 106.309 23.9639 106.309 20.4778C106.283 19.8257 106.132 19.3492 105.629 18.9729ZM102.334 37.8333C102.334 38.3851 102.208 38.9369 102.157 39.4886C102.132 39.7896 102.208 40.0906 102.132 40.3664C101.906 41.1189 101.025 41.6455 100.094 41.6455C99.2642 41.6455 98.4088 41.0687 98.2075 40.3414C98.1069 39.9401 98.0314 39.5137 98.0314 39.1124C98.0314 33.5446 98.0314 28.0019 98.0314 22.434C98.0314 21.6816 98.0817 20.9041 98.8365 20.4276C99.6164 19.926 100.447 19.926 101.252 20.252C102.082 20.6032 102.308 21.3556 102.334 22.1581C102.359 24.8919 102.334 27.6257 102.334 30.3845C102.334 32.8424 102.359 35.3253 102.334 37.8333Z" fill="black"/>
<path d="M184.502 25.7196C184.502 25.6694 184.577 25.4938 184.577 25.3434C184.552 23.663 184.552 22.0077 184.476 20.3273C184.451 20.0013 184.25 19.6501 184.024 19.3993C183.294 18.6218 182.564 17.8444 181.759 17.117C181.508 16.8913 181.105 16.7157 180.753 16.6907C179.243 16.6405 177.709 16.6405 176.199 16.6656C175.822 16.6656 175.394 16.8913 175.092 17.1421C174.388 17.744 173.759 18.4212 173.054 19.0231C172.627 19.3993 172.476 19.8257 172.476 20.4025C172.501 22.8604 172.526 25.3434 172.476 27.8012C172.451 28.7292 172.727 29.4064 173.407 30.0585C175.671 32.2655 177.91 34.5228 180.124 36.8051C180.426 37.106 180.728 37.5826 180.753 37.9838C180.828 39.4636 180.803 40.9433 180.753 42.4481C180.728 43.2005 180.501 43.9028 179.797 44.3292C178.514 45.0816 176.879 44.3542 176.551 42.7742C176.375 41.8964 176.401 40.9433 176.35 40.0404C176.325 39.6893 176.275 39.4887 175.872 39.4887C174.79 39.4887 173.683 39.6141 172.702 38.7864C172.627 39.0121 172.576 39.0874 172.576 39.1626C172.576 40.8932 172.576 42.6237 172.602 44.3793C172.602 44.6301 172.778 44.9311 172.954 45.1568C173.482 45.7337 174.036 46.2603 174.589 46.8372C175.294 47.5645 175.948 48.2417 177.13 48.2166C178.464 48.1915 179.797 48.3922 181.13 48.4674C181.357 48.4674 181.659 48.342 181.86 48.1664C182.514 47.6648 183.168 47.1632 183.747 46.5864C184.124 46.2353 184.602 45.7337 184.602 45.3073C184.653 42.4983 184.627 39.7144 184.577 36.9054C184.577 36.5041 184.351 36.0025 184.074 35.7015C182.715 34.2218 181.306 32.8173 179.898 31.3877C178.891 30.3594 177.885 29.3562 176.904 28.3279C176.652 28.052 176.3 27.6758 176.3 27.3498C176.275 25.6694 176.325 23.964 176.401 22.2836C176.451 21.3807 177.231 20.6032 178.011 20.4778C179.168 20.2771 179.998 20.6784 180.426 21.7067C180.602 22.108 180.652 22.5595 180.678 22.9858C180.728 23.7633 180.678 24.5157 180.678 25.243C181.986 25.3684 183.219 25.544 184.502 25.7196Z" fill="black"/>
<path d="M40.9968 46.7117C40.871 46.16 40.6698 45.6333 40.6698 45.1317C40.6446 41.9966 40.6446 38.8616 40.6698 35.7266C40.6698 35.5761 40.871 35.3253 40.9968 35.3253C42.0535 35.225 43.1102 35.2751 44.1668 35.0996C44.8461 34.9992 45.6009 35.225 46.2047 34.6732C46.9091 34.0211 47.5884 33.3439 48.3432 32.742C48.8966 32.3156 49.0979 31.814 49.0728 31.1369C49.0476 27.9517 48.9973 24.7665 49.0979 21.6064C49.1231 20.2269 48.947 19.0732 47.6136 18.371C47.5381 18.3459 47.5129 18.2456 47.4626 18.1704C46.5317 17.0919 45.4248 16.5151 43.9152 16.6906C43.1353 16.7909 42.3554 16.7157 41.5755 16.7157C40.0911 16.7157 38.6319 16.7157 37.1476 16.7157C36.8457 16.7157 36.4683 16.6405 36.6192 17.1922C36.7702 17.744 36.9211 18.3208 36.9211 18.8726C36.9463 26.9986 36.9211 35.1497 36.9211 43.2757C36.9211 44.5047 37.0721 45.7587 36.418 47.0127C37.9778 46.9124 39.4118 46.8121 40.9968 46.7117ZM41.022 20.6282C41.022 20.0765 41.1981 19.8758 41.7516 19.926C42.2045 19.9761 42.6825 19.926 43.1353 19.926C44.3429 19.9761 45.0474 20.6282 45.0474 21.807C45.0725 24.4655 45.0725 27.124 45.0474 29.7575C45.0474 30.8359 44.3178 31.5131 43.2108 31.5883C42.7328 31.6385 42.2548 31.7137 41.7768 31.789C41.3239 31.8642 41.022 31.5883 41.022 31.0616C41.022 29.2809 41.022 27.5002 41.022 25.7446C41.022 24.0391 41.0472 22.3337 41.022 20.6282Z" fill="black"/>
<path d="M56.0919 34.8488C56.2177 34.8488 56.3435 34.8488 56.4693 34.8488C57.375 34.7986 58.2807 34.7234 59.1613 34.7484C59.6644 34.7484 60.0418 34.5729 60.394 34.2468C61.2243 33.4693 62.0797 32.7169 62.8847 31.9394C63.0608 31.7639 63.2118 31.488 63.2118 31.2372C63.237 27.5253 63.237 23.7883 63.2118 20.0765C63.2118 19.7755 63.0357 19.4244 62.8093 19.2237C62.13 18.5466 61.4004 17.8945 60.6456 17.3176C60.2934 17.0417 59.7902 16.7909 59.3625 16.7659C56.6202 16.7157 53.878 16.7157 51.1357 16.6906C50.7583 16.6906 50.6828 16.8411 50.8086 17.2173C50.9596 17.6687 51.0853 18.1453 51.0853 18.5967C51.0853 26.8481 51.0853 35.1246 51.0602 43.3761C51.0602 44.1034 50.9092 44.8558 50.7583 45.5831C50.6828 45.9593 50.7834 46.0596 51.1105 46.0596C52.4691 46.0596 53.8276 46.0596 55.2868 46.0596C55.0604 45.4326 54.834 45.0564 54.8088 44.6802C54.7837 41.796 54.7837 38.9118 54.8088 36.0275C54.8591 34.7484 54.8591 34.7484 56.0919 34.8488ZM55.1862 25.5941C55.2114 23.9388 55.2114 22.2835 55.1862 20.6533C55.1862 20.1266 55.3372 19.9009 55.9158 19.9511C56.3938 20.0012 56.897 19.9511 57.375 19.9761C58.5071 20.0263 59.2116 20.6784 59.2116 21.807C59.2367 24.3652 59.2619 26.9485 59.2116 29.5066C59.1864 30.6603 58.6078 31.2121 57.4505 31.2873C56.9725 31.3124 56.4944 31.3626 56.0164 31.4128C55.3875 31.488 55.161 31.2372 55.161 30.5851C55.2114 28.8796 55.1862 27.2243 55.1862 25.5941Z" fill="black"/>
<path d="M92.1191 20.3273C92.1191 19.9511 91.9933 19.4996 91.7668 19.2488C91.0121 18.4713 90.207 17.7942 89.4019 17.0919C89.2007 16.9164 88.9239 16.7408 88.6723 16.7408C85.9049 16.7157 83.1123 16.7157 80.3448 16.7408C80.0932 16.7408 79.8668 16.791 79.6404 16.816C79.7913 17.3427 80.0178 17.8192 80.0681 18.3209C80.1436 18.998 80.0932 19.6752 80.0932 20.3524C80.0932 23.8636 80.0932 27.3498 80.0932 30.861C80.0932 34.7735 80.0681 38.6861 80.0429 42.5986C80.0429 43.2507 79.892 43.9028 79.7662 44.5548C79.6907 44.9812 79.8416 45.2069 80.2693 45.1568C80.6719 45.1066 81.0996 45.0565 81.5021 45.0565C82.4078 45.0314 83.2884 45.0565 84.2193 45.0565C84.0683 44.4796 83.867 44.0031 83.867 43.5266C83.8419 40.5922 83.8419 37.6828 83.867 34.7485C83.867 34.598 84.0683 34.3221 84.2444 34.2719C84.647 34.1716 85.0746 34.1465 85.4772 34.1465C86.4584 34.1214 87.4144 34.1716 88.3956 34.1214C88.7478 34.0964 89.1252 33.8957 89.4271 33.67C90.0561 33.1935 90.6095 32.6166 91.2385 32.1652C91.8926 31.6887 92.2449 31.162 92.1945 30.2842C92.1191 28.6289 92.1694 26.9736 92.1694 25.3183C92.1442 23.6379 92.1694 21.9826 92.1191 20.3273ZM88.1692 28.9549C88.1692 30.1086 87.4899 30.7858 86.3326 30.8359C85.7539 30.861 85.1501 30.861 84.5715 30.8359C84.4205 30.8359 84.1689 30.5851 84.1689 30.4597C84.1438 26.9485 84.1438 23.4372 84.1438 19.8257C84.9992 19.8257 85.7791 19.7755 86.559 19.8508C87.515 19.9511 88.1943 20.7286 88.1943 21.7067C88.1692 24.1144 88.1943 26.5472 88.1692 28.9549Z" fill="black"/>
<path d="M119.265 16.6906C115.844 16.7157 112.447 16.6906 109.026 16.6906C108.875 16.6906 108.699 16.6405 108.598 16.7157C108.422 16.816 108.195 16.9916 108.195 17.117C108.145 17.9196 108.145 18.7472 108.195 19.5749C108.195 19.7003 108.472 19.9511 108.598 19.9511C109.554 19.926 110.535 19.9009 111.491 19.8006C112.12 19.7254 112.271 19.9762 112.246 20.553C112.221 25.9453 112.246 31.3375 112.246 36.7549C112.246 38.0841 112.296 39.4385 112.246 40.7677C112.196 42.0719 112.523 43.4262 111.818 44.7555C113.454 44.8057 114.988 45.2069 116.372 45.0063C116.246 44.1786 116.07 43.4764 116.07 42.7741C116.045 35.4005 116.045 28.052 116.045 20.6784C116.045 20.4025 116.045 20.1517 116.045 19.9511C117.454 19.9511 118.737 19.9511 120.095 19.9511C120.095 19.2237 120.045 18.371 120.121 17.5183C120.121 16.8662 119.919 16.6656 119.265 16.6906Z" fill="black"/>
<path d="M33.8014 18.2205C33.8014 17.744 33.9272 17.2926 34.0027 16.7408C32.5687 16.7408 31.0591 16.7408 29.4238 16.7408C30.3044 17.9697 29.9773 19.299 29.9773 20.5781C30.0025 28.7543 30.0025 36.9304 29.9773 45.1066C29.9773 45.7085 29.8012 46.3105 29.6251 46.9124C29.4993 47.414 29.5748 47.5896 30.1031 47.5394C31.3862 47.414 32.6693 47.2635 34.0279 47.113C33.9524 46.486 33.8014 45.9343 33.8014 45.3574C33.7763 40.7677 33.8014 36.2031 33.8014 31.6134C33.8014 30.1337 33.726 28.679 33.726 27.1993C33.726 25.8199 33.8014 24.4154 33.8014 23.0359C33.7763 21.4308 33.7763 19.8257 33.8014 18.2205Z" fill="black"/>
<path d="M107.089 54.9883C107.114 55.8661 107.516 56.5934 108.321 57.0699C109.051 57.4963 109.831 57.3709 110.586 57.2706C112.296 57.0448 113.076 56.3426 112.825 54.8879C112.724 54.3613 112.372 53.8596 112.045 53.2076C112.02 53.2577 112.045 53.1574 112.095 53.1072C113.278 51.9034 112.8 50.0224 110.787 49.8719C110.233 49.8217 109.655 49.8217 109.101 49.8217C108.12 49.8217 107.114 50.8249 107.189 51.8031C107.214 52.1793 107.416 52.5555 107.642 52.8815C107.919 53.3079 107.944 53.659 107.592 54.0603C107.34 54.3111 107.063 54.6873 107.089 54.9883ZM109.101 50.6995C109.78 50.6494 110.485 50.6243 111.164 50.6995C111.642 50.7497 111.793 51.1761 111.843 51.6275C111.919 52.2294 111.667 52.6558 111.164 52.9066C110.913 53.032 110.611 53.0571 110.183 53.1323C109.73 52.9818 109.152 52.8564 108.674 52.5555C108.422 52.3799 108.246 51.9034 108.246 51.5523C108.246 51.1008 108.623 50.7497 109.101 50.6995ZM108.95 54.0101C109.328 53.8847 109.73 53.8596 110.108 53.7593C111.416 53.8095 112.095 54.4365 111.969 55.5149C111.894 56.0166 111.642 56.4178 111.114 56.4429C110.384 56.468 109.63 56.5432 108.95 56.3426C108.573 56.2172 108.17 55.6153 108.095 55.1638C107.969 54.6622 108.422 54.2108 108.95 54.0101Z" fill="black"/>
<path d="M92.3456 50.9754C91.5908 52.0789 91.9179 53.7593 92.9242 54.612C93.528 55.1387 94.1822 55.1387 94.8614 55.0384C95.4652 54.9632 96.0691 54.7876 96.7987 54.612C96.6477 55.0384 96.4968 55.3644 96.4213 55.7156C96.2703 56.3175 95.8929 56.6686 95.3143 56.7689C94.7357 56.8693 94.157 56.9194 93.5783 57.0197C93.3519 57.0699 93.1255 57.2204 92.9242 57.3458C93.1507 57.5213 93.4022 57.8474 93.6035 57.8474C94.3331 57.8223 95.1382 57.7972 95.7923 57.5213C96.3206 57.2956 96.8993 56.7689 97.0754 56.2423C97.4025 55.1889 97.5283 54.0603 97.6289 52.9567C97.7044 51.9535 97.4276 50.9754 96.4213 50.4738C95.264 49.8969 94.0312 49.8719 92.8739 50.5239C92.6726 50.5741 92.4965 50.7747 92.3456 50.9754ZM93.0752 52.0538C93.2261 51.4018 93.7796 51.0506 94.4589 50.9503C94.5092 50.9503 94.5847 50.9503 94.6602 50.9503C95.8929 50.9252 96.5722 51.4268 96.7232 52.5053C96.7483 52.7059 96.7232 52.9317 96.6225 53.1072C96.0187 54.286 93.9557 54.5619 93.1758 53.5336C92.9242 53.1825 92.9745 52.5053 93.0752 52.0538Z" fill="black"/>
<path d="M102.334 51.0506C102.812 51.0506 103.315 51.1008 103.793 51.0256C103.994 51.0005 104.195 50.7246 104.296 50.524C104.321 50.4487 104.069 50.1227 103.893 50.0976C101.855 49.5709 99.717 50.9754 99.4654 53.0571C99.3396 54.1857 99.4151 55.3143 99.8428 56.3928C100.17 57.2204 101.403 57.9728 102.208 57.8474C102.585 57.7722 102.937 57.6718 103.315 57.6217C104.673 57.396 105.529 56.3426 105.378 54.9632C105.302 54.1355 104.799 53.3079 104.12 53.0821C103.315 52.8063 102.308 52.9818 101.403 52.9818C101.176 52.9818 100.925 53.0822 100.648 53.1574C100.522 51.9786 101.302 51.0757 102.334 51.0506ZM100.849 54.2108C101.83 53.4333 103.139 53.2076 104.095 54.3863C104.271 54.612 104.296 54.9632 104.397 55.2391C104.346 56.0416 103.944 56.6185 103.189 56.8442C102.082 57.1953 100.874 56.6185 100.522 55.6403C100.346 55.0886 100.421 54.5619 100.849 54.2108Z" fill="black"/>
<path d="M86.5339 56.4429C86.2823 56.468 86.0056 56.4179 85.7792 56.5182C85.603 56.5934 85.3515 56.8693 85.3766 56.9947C85.4269 57.1703 85.6785 57.3208 85.8798 57.4462C85.9804 57.4963 86.1565 57.4712 86.3075 57.4462C87.2887 57.396 88.295 57.3709 89.2762 57.3208C89.4523 57.3208 89.6536 57.3458 89.7542 57.2455C89.9052 57.1201 89.9807 56.9195 90.1064 56.7188C89.9555 56.6436 89.7794 56.5934 89.6284 56.5182C89.2762 56.3426 88.6472 56.2172 88.6221 55.9664C88.4711 55.0886 88.446 54.1857 88.446 53.3079C88.446 52.2796 88.4963 51.2513 88.5215 50.223C88.5215 49.8719 88.3705 49.6963 87.968 49.7716C87.3642 49.8719 85.6031 51.1761 85.4521 51.7529C85.4018 51.9285 85.4773 52.1793 85.6031 52.3047C85.6785 52.3799 85.9553 52.3298 86.1062 52.2796C86.4081 52.1542 86.71 51.9786 87.0119 51.8282C87.1126 51.8783 87.188 51.9285 87.2887 51.9787C87.3893 53.1073 87.4899 54.2359 87.5654 55.3645C87.5654 56.0918 87.2384 56.3928 86.5339 56.4429Z" fill="black"/>
</g>
<defs>
<clipPath id="clip0_1453_140733">
<rect width="198" height="69" fill="white"/>
</clipPath>
</defs>
</svg>
