<svg width="170" height="96" viewBox="0 0 170 96" fill="none" xmlns="http://www.w3.org/2000/svg">
<path d="M111.689 54.7938C110.903 54.7938 110.201 54.7938 109.5 54.7938C93.1736 54.7938 76.8475 54.7938 60.5214 54.8149C59.7348 54.8149 59.4797 54.5407 59.4797 53.76C59.501 37.1341 59.5223 20.5081 59.5435 3.8822C59.5435 3.56571 59.6073 3.27033 59.6285 2.89055C59.9899 2.86945 60.3088 2.82725 60.6277 2.82725C77.3152 2.82725 93.9814 2.82725 110.669 2.80615C111.583 2.80615 111.774 3.12264 111.774 3.96659C111.753 20.6347 111.753 37.2818 111.732 53.9499C111.732 54.182 111.711 54.393 111.689 54.7938ZM60.7552 53.3802C61.1591 53.4224 61.4992 53.4857 61.8394 53.4857C77.5915 53.4857 93.3649 53.4646 109.117 53.4857C110.116 53.4857 110.435 53.2325 110.435 52.1987C110.393 36.6277 110.414 21.0567 110.414 5.48571C110.414 4.07209 110.414 4.07209 108.968 4.07209C93.2374 4.07209 77.5278 4.07209 61.7969 4.05099C60.9253 4.05099 60.734 4.32527 60.734 5.12703C60.7552 19.7908 60.7552 34.4334 60.734 49.0971C60.7552 50.4897 60.7552 51.8822 60.7552 53.3802Z" fill="#070707"/>
<path d="M33.1836 72.517C34.6504 71.9473 35.9684 71.5675 37.2014 70.9556C38.6894 70.2172 38.7107 67.8541 37.6265 66.6304C36.1172 64.9424 34.2252 65.28 32.227 65.2378C32.227 70.1539 32.227 75.0699 32.227 80.197C31.1003 80.197 30.0799 80.2392 29.0808 80.1548C28.8682 80.1337 28.5281 79.6906 28.5281 79.4374C28.4856 74.6479 28.5069 69.8796 28.4856 65.0901C28.4856 64.5205 28.7619 64.3728 29.2721 64.3728C32.0782 64.3939 34.863 64.3095 37.669 64.4361C40.4113 64.5627 42.6009 67.7275 41.6868 70.1539C41.1553 71.5886 39.9436 72.2849 38.5194 72.6224C38.2217 72.6857 37.9029 72.7068 37.2864 72.7701C38.5619 75.3864 40.3901 77.5385 41.623 80.0071C40.22 80.6822 38.1155 80.2813 37.3289 79.0787C35.8834 76.9055 34.5229 74.6479 33.1836 72.517Z" fill="#070707"/>
<path d="M158.839 72.3271C160.115 72.0317 161.242 71.884 162.283 71.4831C163.665 70.9556 164.048 69.753 163.941 68.3816C163.835 67.0523 163.155 66.2295 161.858 65.702C160.498 65.1534 159.18 65.2378 157.692 65.3222C157.692 70.3438 157.692 75.2809 157.692 80.2603C156.48 80.2603 155.396 80.2603 154.248 80.2603C154.226 79.9016 154.184 79.5851 154.184 79.2686C154.184 74.669 154.205 70.0484 154.163 65.4488C154.163 64.6049 154.375 64.3517 155.226 64.3728C157.67 64.4361 160.115 64.3939 162.56 64.3939C165.196 64.3939 166.62 65.913 167.534 67.9385C168.15 69.2888 167.045 71.5464 165.6 72.1372C164.919 72.4115 164.196 72.517 163.495 72.749C163.006 72.9178 162.878 73.2343 163.219 73.6985C164.005 74.7956 164.813 75.9139 165.557 77.0321C165.982 77.6651 166.344 78.3614 166.747 79.0154C166.96 79.353 167.215 79.6484 167.534 80.0493C167.343 80.1337 167.13 80.2603 166.939 80.2814C164.834 80.5556 163.112 80.2814 162.134 77.9394C161.412 76.1882 160.157 74.669 159.137 73.0444C159.052 72.8334 158.967 72.5803 158.839 72.3271Z" fill="#070707"/>
<path d="M84.8405 68.0651C84.8405 72.2005 84.8405 76.167 84.8405 80.218C84.3728 80.2391 83.9689 80.2602 83.4587 80.3024C83.4587 75.0277 83.4587 69.7952 83.4587 64.5837C85.4782 63.9719 86.7537 64.5204 88.4544 66.5459C89.6873 68.0229 91.0266 69.3943 92.3233 70.829C93.3862 72.0106 94.4066 73.1921 95.4695 74.3736C95.6608 74.5846 95.8947 74.7534 96.3411 75.1332C96.3411 71.3987 96.3411 67.9385 96.3411 64.4783C96.9363 64.4783 97.3615 64.4783 97.9354 64.4783C97.9354 64.9213 97.9354 65.3011 97.9354 65.6809C97.9354 70.0695 97.9354 74.4791 97.9142 78.8677C97.9142 79.3319 97.6803 80.1969 97.5315 80.1969C96.915 80.218 96.1072 80.1758 95.6821 79.8172C94.5767 78.8255 93.6201 77.6651 92.6209 76.5468C91.7068 75.513 90.8778 74.4158 89.9637 73.382C88.4969 71.7152 87.0088 70.0695 85.5208 68.4237C85.4145 68.255 85.1594 68.2128 84.8405 68.0651Z" fill="#070707"/>
<path d="M4.97433 73.6984C4.97433 75.9349 4.97433 78.0237 4.97433 80.1969C3.76262 80.1969 2.63595 80.1969 1.44551 80.1969C1.42425 79.9015 1.38173 79.6061 1.38173 79.2896C1.38173 74.6479 1.40299 70.0272 1.36047 65.3855C1.36047 64.4993 1.65809 64.3305 2.46589 64.3516C4.65546 64.3938 6.84503 64.436 9.0346 64.3516C11.1817 64.2672 12.7973 65.2167 14.094 66.7991C15.6033 68.6347 14.3704 72.5169 12.032 73.0444C10.4164 73.4031 8.71573 73.5086 7.05761 73.6984C6.44113 73.7617 5.80339 73.6984 4.97433 73.6984ZM4.99559 68.9723C4.99559 69.9217 5.01684 70.8712 4.99559 71.8206C4.97433 72.4536 5.25068 72.6857 5.88842 72.6646C6.97258 72.6224 7.9717 72.6013 9.0346 72.116C10.055 71.6518 10.7352 71.0611 10.9691 70.0694C11.2667 68.8246 11.4793 67.5798 10.2676 66.5248C8.86454 65.28 7.20642 65.1956 5.50578 65.3011C5.31446 65.3222 5.0381 65.7653 5.0381 66.0395C4.95307 66.989 4.99559 67.9806 4.99559 68.9723Z" fill="#070707"/>
<path d="M69.3859 64.4571C69.3859 68.6558 69.4285 72.7912 69.3647 76.9266C69.3434 78.1503 68.4506 79.0154 67.409 79.6272C66.1335 80.3657 64.773 80.7877 63.2637 80.7666C61.5843 80.7455 59.8836 80.7033 58.3956 79.9859C57.1626 79.3741 56.0997 78.298 56.0785 76.7789C55.9722 72.9389 55.9722 69.0989 55.9722 65.2589C55.9722 64.9635 56.3761 64.4571 56.6099 64.436C57.5453 64.3305 58.5019 64.3938 59.5435 64.3938C59.5435 65.0901 59.5435 65.6809 59.5435 66.2716C59.5435 69.2466 59.6073 72.2426 59.5223 75.2176C59.4585 77.3486 60.5852 78.8466 62.8598 78.9732C63.9227 79.0365 65.0493 78.9099 66.0485 78.6145C67.5153 78.1503 67.8979 76.8633 67.8979 75.4708C67.9191 72.2004 67.8979 68.9301 67.8979 65.6809C67.8766 64.3305 67.8766 64.3305 69.3859 64.4571Z" fill="#070707"/>
<path d="M134.074 79.2053C136.561 79.2053 138.963 79.2053 141.429 79.2053C141.429 79.564 141.429 79.9015 141.429 80.2391C137.709 80.2391 134.031 80.2391 130.333 80.2391C130.333 74.9644 130.333 69.753 130.333 64.4572C134.031 64.4572 137.667 64.4572 141.408 64.4572C141.429 64.7103 141.45 65.0057 141.493 65.3855C139.006 65.3855 136.604 65.3855 134.095 65.3855C134.095 67.411 134.095 69.3521 134.095 71.3987C136.327 71.3987 138.602 71.3987 140.962 71.3987C140.983 71.8207 141.004 72.1583 141.047 72.6013C138.708 72.6013 136.412 72.6013 134.053 72.6013C134.074 74.8378 134.074 76.9688 134.074 79.2053Z" fill="#070707"/>
<path d="M111.796 64.4572C112.986 64.4572 114.092 64.4572 115.303 64.4572C115.324 64.858 115.367 65.1956 115.367 65.5332C115.367 70.0484 115.346 74.5846 115.388 79.0998C115.388 80.0281 115.133 80.3868 114.198 80.3024C113.433 80.2391 112.646 80.2813 111.817 80.2813C111.796 74.9644 111.796 69.7741 111.796 64.4572Z" fill="#070707"/>
<path d="M86.5624 91.4848C86.5199 91.6958 86.5411 91.9279 86.4348 92.0756C86.2648 92.3077 85.9884 92.4976 85.7546 92.7086C85.5632 92.4765 85.2231 92.2444 85.2231 91.9912C85.1806 90.7253 85.1806 89.4593 85.2656 88.2145C85.2869 87.9402 85.6908 87.476 85.9034 87.476C86.945 87.476 88.0717 87.3705 89.007 87.7503C90.0062 88.1301 89.9211 89.3538 89.6235 90.1556C89.2834 91.0207 88.922 91.738 89.8574 92.5187C89.1346 92.8141 88.6882 92.9618 88.3268 92.2444C88.0079 91.5903 87.4765 91.1894 86.5624 91.4848ZM87.5402 90.5143C87.8804 90.1345 88.4118 89.7758 88.5181 89.3327C88.7307 88.531 87.9867 88.5943 87.4977 88.5521C86.9663 88.5099 86.4136 88.531 86.4136 89.3327C86.4136 89.9657 86.6687 90.3033 87.5402 90.5143Z" fill="#070707"/>
<path d="M77.0814 92.9407C76.7625 92.7508 76.3586 92.6453 76.1248 92.371C75.2744 91.4005 73.999 91.4005 73.1274 92.3499C72.8723 92.6242 72.4471 92.7508 71.8732 92.793C72.022 92.2866 72.1283 91.7592 72.3408 91.2739C72.766 90.1978 73.2124 89.1218 73.7226 88.0668C73.8502 87.7926 74.2115 87.4972 74.4879 87.4761C74.7855 87.4761 75.2107 87.6871 75.402 87.9613C75.6996 88.3622 75.8484 88.8686 76.0397 89.3539C76.5074 90.4299 76.9751 91.4849 77.4428 92.5609C77.2939 92.6875 77.1877 92.8141 77.0814 92.9407ZM75.3595 90.7464C75.1256 90.1345 74.9343 89.6704 74.6367 88.9108C74.2541 89.6493 73.999 90.1345 73.6801 90.7464C74.3391 90.7464 74.743 90.7464 75.3595 90.7464Z" fill="#070707"/>
<path d="M59.4797 87.4761C60.5001 87.4761 61.3079 87.455 62.137 87.4761C63.0511 87.5182 64.0502 88.5099 64.0289 89.2695C63.9864 90.3244 63.1148 91.1895 62.0307 91.2106C61.6055 91.2317 61.2016 91.2106 60.7127 91.2106C60.6702 91.5692 60.7127 91.9068 60.6064 92.1811C60.5001 92.4343 60.2237 92.6031 60.0324 92.8352C59.8624 92.6242 59.5222 92.4132 59.5222 92.2022C59.4585 90.662 59.4797 89.1218 59.4797 87.4761ZM60.7127 90.3455C61.648 90.2822 62.7535 90.4721 62.7322 89.3328C62.7109 88.1512 61.563 88.531 60.7127 88.3833C60.7127 89.0585 60.7127 89.6492 60.7127 90.3455Z" fill="#070707"/>
<path d="M111.689 88.4677C110.796 88.531 109.904 88.6154 109.011 88.6787C108.968 88.7842 108.926 88.8686 108.883 88.9741C109.287 89.2061 109.691 89.4593 110.116 89.6281C110.924 89.9657 111.753 90.3033 111.668 91.3371C111.583 92.3288 110.669 92.8984 109.393 92.7929C108.841 92.7508 108.288 92.5187 107.778 92.2655C107.629 92.1811 107.672 91.7169 107.608 91.4426C107.863 91.4426 108.139 91.3793 108.394 91.4215C109.053 91.5059 109.691 91.6114 110.35 91.7169C110.414 91.5903 110.456 91.4637 110.52 91.3371C110.35 91.1472 110.201 90.9151 109.967 90.8097C109.542 90.5987 108.968 90.5776 108.649 90.2822C108.246 89.9235 107.799 89.3538 107.799 88.8686C107.799 88.1723 108.182 87.4127 109.117 87.4549C109.989 87.4971 110.839 87.6448 111.689 87.7503C111.689 88.0246 111.689 88.2567 111.689 88.4677Z" fill="#070707"/>
<path d="M97.9566 87.5604C98.8282 87.3283 99.1896 87.5182 99.1683 88.32C99.1471 89.5015 99.2109 90.7042 99.1258 91.8857C99.1046 92.2233 98.7432 92.5187 98.5306 92.8352C98.3393 92.5187 97.9779 92.2022 97.9566 91.8857C97.9141 90.4721 97.9566 89.0374 97.9566 87.5604Z" fill="#070707"/>
<path d="M94.279 31.9437C94.6829 31.9437 95.0656 31.9226 95.4695 31.9226C95.4057 32.3024 95.3632 32.6822 95.2994 33.0409C95.2782 33.1464 95.1931 33.2308 95.2144 33.3362C95.3632 34.2435 95.4907 35.1297 95.6608 36.0369C95.7246 36.3956 95.2782 37.1551 96.4048 36.8387C96.4048 35.1297 96.4048 33.3784 96.4048 31.4162C97.574 32.0914 98.6369 33.0409 99.4447 31.4795C99.6148 31.1631 99.4022 30.3191 99.1046 30.1292C98.1267 29.5384 97.2977 30.0659 96.6174 30.8044C95.6608 30.0448 96.086 28.7789 97.4252 28.2303C98.3181 27.8505 99.9124 28.2092 100.635 28.9266C101.145 29.433 101.252 31.2897 100.997 32.0703C100.423 33.8215 98.8708 34.7499 97.7228 36.0158C96.5324 37.3239 96.2985 39.6026 97.1914 41.1217C97.4252 41.5015 97.5315 42.1134 97.3827 42.4932C97.2552 42.8308 95.3207 42.4721 94.9593 42.0712C96.2985 40.6787 95.7033 39.0751 95.3632 37.556C95.1719 36.6699 94.5129 36.0369 93.7688 35.3828C92.4934 34.2435 90.7077 33.3362 90.7077 31.2475C90.7077 30.6778 90.8778 30.1081 91.0053 29.3275C88.1142 30.3824 85.372 30.8888 83.48 27.8716C82.9273 27.0066 82.7785 26.0149 83.1611 24.96C83.3099 25.0022 83.4375 25.0022 83.5012 25.0655C84.798 26.4369 86.286 26.7323 87.9016 25.7828C88.6882 25.3187 89.2409 25.1077 89.6448 26.1626C89.6661 26.2259 89.8149 26.247 89.9424 26.3103C90.4526 24.1582 92.0044 23.8417 94.0027 24.2426C93.9814 24.0949 93.9389 23.9472 93.9177 23.7995C92.961 23.5886 92.0044 23.3565 90.9203 23.1244C90.9415 22.9345 90.9628 22.618 91.0053 22.2804C90.5164 22.2593 90.0274 22.2171 89.4747 22.196C89.581 20.8668 88.3693 20.8457 87.3915 20.2127C87.9654 20.065 88.2843 19.9384 88.6244 19.9173C89.3259 19.8751 90.0487 20.4237 90.7077 19.7064C90.7715 19.6431 91.2817 19.9806 91.5793 20.1705C91.8981 20.3815 92.1958 20.6347 92.4934 20.8668C92.5997 20.8246 92.6847 20.8035 92.791 20.7613C92.6847 20.4026 92.6422 20.0439 92.4934 19.7275C92.3233 19.3688 92.0895 19.0523 91.8769 18.7147C91.9407 18.6092 92.0257 18.5037 92.0895 18.3982C92.791 18.7569 93.4925 19.1156 94.194 19.4532C94.1728 19.5587 94.1515 19.6853 94.109 19.7908C93.8114 19.9384 93.5138 20.0861 93.1311 20.2549C93.2799 20.5081 93.3649 20.8457 93.5775 21.0145C94.3641 21.6053 94.6192 22.4492 94.768 23.3354C94.8317 23.7362 94.6829 24.1582 94.6829 24.5591C94.6829 24.8756 94.8105 25.171 94.8743 25.4875C95.0868 25.3398 95.3845 25.2343 95.4907 25.0444C96.2985 23.6097 97.1276 23.3987 98.5519 23.9261C98.7645 24.0105 98.977 24.0738 99.3597 23.9683C98.8708 23.4198 98.4669 22.7868 97.8929 22.3648C97.2552 21.9006 97.0638 21.542 97.5103 20.8457C98.3818 19.4532 97.9354 18.1872 96.9575 17.0057C98.1267 16.647 100.125 17.5965 100.763 18.7569C102.166 21.2888 101.762 23.694 99.5723 25.4031C99.3172 25.2765 99.0621 25.1499 98.7857 25.0022C97.5528 24.4114 97.0638 24.5169 96.1923 25.5508C95.512 26.3525 94.768 26.4369 93.9814 25.7617C93.1524 25.0655 91.6431 25.171 90.9841 25.9727C90.6227 26.3947 90.2188 26.8167 89.9424 27.2809C89.7936 27.534 89.9212 27.9138 89.9212 28.4202C90.5802 27.7028 90.9841 27.1121 91.5155 26.6901C92.3658 26.0149 93.8326 26.0571 94.5766 27.091C95.0443 27.7239 95.597 27.7872 96.0009 27.091C97.4465 24.6435 99.4872 25.6984 100.614 27.2809C100.826 27.5762 100.954 27.956 101.23 28.5257C100.295 27.9771 99.6148 27.3864 98.8495 27.2176C98.1905 27.0699 97.3827 27.302 96.7024 27.5762C95.9159 27.8927 95.2569 28.3358 94.3216 27.8083C92.7697 26.9644 91.0266 27.8294 90.9203 29.4118C91.6643 29.0954 92.3871 28.7156 93.1524 28.5046C94.3003 28.1881 95.512 28.9899 95.5545 30.0448C95.5545 30.3191 95.4482 30.6989 95.2569 30.8466C95.1081 30.9521 94.7255 30.72 94.4491 30.6778C93.9389 30.6145 93.4075 30.5934 92.8973 30.5512C92.9185 30.6778 92.9185 30.8255 92.9398 30.9521L92.9823 30.9099C92.7485 31.0154 92.3233 31.1631 92.3233 31.1842C92.4509 31.6483 92.5146 32.3235 92.8335 32.5134C93.3224 32.7666 94.0877 32.8721 94.2578 31.9437H94.279Z" fill="#070707"/>
<path d="M93.8539 18.4827C93.3863 18.1662 92.9398 17.9341 92.5572 17.6387C91.8769 17.1112 91.4305 17.4488 91.0691 18.0185C90.7078 18.6304 89.6449 19.1156 88.9859 18.8202C88.3481 18.546 87.9867 18.0607 88.2631 17.2378C89.1134 17.3855 89.9425 17.5543 90.7715 17.702C90.814 17.6176 90.8778 17.5332 90.9203 17.4488C90.6652 17.1534 90.4527 16.8369 90.1763 16.6049C89.7937 16.2673 89.3898 15.9297 88.9221 15.7187C88.6245 15.571 87.9442 15.5499 87.9017 15.6554C87.6041 16.3517 86.69 16.5205 86.5625 17.4488C86.4987 17.913 85.6484 18.3772 85.0744 18.6093C84.8618 18.6937 84.3729 18.1662 84.0115 17.913C84.2028 17.6598 84.3516 17.28 84.6067 17.1956C85.2232 17.0057 85.9035 16.9635 86.5412 16.858C86.5625 16.7526 86.605 16.6682 86.6262 16.5627C85.6909 15.9086 84.7768 15.2756 83.6714 14.495C83.5863 15.0857 83.5438 15.4444 83.4588 15.8031C83.2462 16.8369 82.821 16.9846 81.9495 16.4361C81.3542 16.0563 80.674 15.8242 79.7599 15.3811C79.8662 16.1196 79.93 16.5627 80.015 17.0268C80.1638 17.8497 79.8449 18.2084 79.0371 17.9974C78.3144 17.8075 77.6341 17.5121 76.8901 17.2589C76.8901 18.0396 76.8901 18.757 76.8901 19.3688C75.2532 19.3688 73.6801 19.3688 72.1283 19.3688C72.0858 16.7948 77.8254 13.4611 82.6722 13.018C88.1568 12.4906 93.5138 15.8242 93.8539 18.4827Z" fill="#070707"/>
<path d="M69.8324 44.4765C69.9812 44.2655 70.1088 44.0334 70.2788 43.8646C72.2771 41.9235 72.851 39.4127 73.1912 36.8176C73.3187 35.8892 73.1912 34.9187 73.2549 33.9692C73.2974 33.3573 72.7235 32.5134 73.8289 32.218C73.9139 32.1969 73.9139 31.8382 73.9139 31.6272C73.9564 31.1842 73.9777 30.7411 74.2328 30.2558C74.4454 30.9099 74.5517 31.6272 74.8918 32.218C75.8909 33.9903 77.0176 35.5305 79.2497 36.058C80.9716 36.48 82.6297 36.691 84.3728 36.3323C84.5854 36.2901 84.8193 36.4167 85.2232 36.5011C84.6492 37.4716 83.9052 38.1046 82.9698 38.4422C80.8015 39.2439 78.6119 39.8136 76.3373 38.8009C75.7846 38.5477 75.572 38.8853 75.4658 39.3705C74.9343 41.7336 73.3187 43.2105 71.363 44.4132C70.9803 44.6453 70.4701 44.6663 70.0025 44.7929C69.9387 44.6874 69.8962 44.582 69.8324 44.4765Z" fill="#070707"/>
<path d="M69.216 31.7327C69.1097 30.7833 68.8759 29.8128 68.8971 28.8633C68.8971 26.5002 70.2364 25.0233 72.5747 24.6857C73.4463 24.5591 73.7652 24.9178 73.5526 25.7618C73.4463 26.1837 73.2337 26.6268 73.255 27.0488C73.2975 28.0826 72.9999 28.5679 71.8307 28.7578C71.2142 28.8633 70.6828 29.8338 70.1938 30.4668C69.9175 30.8255 69.8325 31.3108 69.6624 31.7538C69.5136 31.7538 69.3648 31.7538 69.216 31.7327Z" fill="#070707"/>
<path d="M77.7404 31.6484C77.6341 31.2475 77.5491 30.8466 77.4428 30.4457C77.1664 29.1376 76.5712 28.5046 75.2745 28.3991C74.3816 28.3147 74.2541 27.9772 74.573 27.2598C74.7855 26.7534 74.9981 26.2471 75.1682 25.7196C75.4658 24.8123 76.1035 24.8123 76.72 25.2343C78.2081 26.2682 79.3135 27.5763 78.8883 29.5385C78.7395 30.2769 78.2718 30.9521 77.953 31.6484C77.9105 31.6484 77.8254 31.6484 77.7404 31.6484Z" fill="#070707"/>
<path d="M78.1655 20.9723C78.867 20.487 78.6757 19.9596 78.0167 19.4532C78.3356 19.2422 78.5269 19.0523 78.782 18.9679C79.0796 18.8624 79.4198 18.8413 79.7386 18.778C79.6748 19.1156 79.5898 19.4321 79.5686 19.7697C79.5473 20.0861 79.526 20.4659 79.6748 20.698C79.9512 21.12 80.3764 21.4576 80.759 21.8585C79.4623 22.4492 78.782 22.196 78.1655 20.9723Z" fill="#070707"/>
<path d="M77.2726 20.2338C77.2514 21.2888 76.9113 22.0061 75.6145 21.7318C75.6783 23.3143 75.657 23.3354 74.2753 23.0822C75.2319 21.9639 76.0822 20.9723 76.9325 19.9595C77.0388 20.0439 77.1664 20.1283 77.2726 20.2338Z" fill="#070707"/>
<path d="M83.4375 20.9934C83.0974 20.4659 82.651 20.0439 82.736 19.7907C82.8423 19.4532 83.395 19.0312 83.7351 19.0523C84.1603 19.0734 84.5642 19.4954 84.9681 19.7485C84.5004 20.1494 84.054 20.5081 83.4375 20.9934Z" fill="#070707"/>
<path d="M82.7785 17.8919C82.5447 18.3138 82.3321 19.0734 82.0982 19.0734C81.5881 19.0945 81.0566 18.7147 80.5251 18.5037C80.5464 18.3771 80.5464 18.2505 80.5677 18.124C81.1841 17.913 81.8006 17.7231 82.4171 17.5121C82.5659 17.6387 82.6722 17.7653 82.7785 17.8919Z" fill="#070707"/>
<path d="M87.0939 21.4998C87.349 21.9006 87.6041 22.1749 87.6679 22.4703C87.6891 22.5969 87.2427 22.9767 87.0939 22.9345C86.7112 22.8079 86.3924 22.5336 86.0522 22.3226C86.3286 22.0905 86.6262 21.8584 87.0939 21.4998Z" fill="#070707"/>
<path d="M89.0283 24.6857C88.7732 24.3903 88.4969 24.0949 88.2843 23.7574C88.263 23.7363 88.6031 23.4831 88.752 23.3354C89.0071 23.673 89.2409 23.9895 89.496 24.327C89.3472 24.4325 89.1984 24.5591 89.0283 24.6857Z" fill="#070707"/>
<path d="M96.66 21.2466C96.1923 21.2677 95.6822 21.4365 95.3208 21.2677C95.1082 21.1622 95.1507 20.5292 95.0657 20.1284C95.1507 20.0862 95.2357 20.044 95.3208 20.0018C95.7884 20.2972 96.2561 20.5714 96.7025 20.8668C96.6813 20.9934 96.66 21.12 96.66 21.2466Z" fill="#070707"/>
<path d="M99.0621 31.142C98.6582 31.4163 98.4031 31.6906 98.2118 31.6695C97.9567 31.6273 97.7229 31.353 97.4678 31.1631C97.6804 30.931 97.8717 30.5512 98.1268 30.509C98.3394 30.4668 98.637 30.8255 99.0621 31.142Z" fill="#070707"/>
<path d="M92.9823 30.9099C93.7688 30.8044 94.5129 30.7833 94.2578 31.9437L94.279 31.9226C92.9823 32.0914 92.961 32.0703 93.0036 30.8888L92.9823 30.9099Z" fill="#070707"/>
<path d="M75.8059 23.9894C76.0397 23.6941 76.2736 23.3987 76.4862 23.1244C76.6562 23.2721 76.805 23.4409 76.9751 23.5886C76.72 23.8629 76.4436 24.116 76.1885 24.3903C76.061 24.2426 75.9335 24.116 75.8059 23.9894Z" fill="#070707"/>
<path d="M82.9486 21.8374C82.566 21.8585 82.1621 21.9218 81.7794 21.8796C81.6944 21.8796 81.6519 21.4998 81.6094 21.2888C82.0558 21.2888 82.5022 21.2888 82.9486 21.2888C82.9699 21.4787 82.9699 21.6686 82.9486 21.8374Z" fill="#070707"/>
<path d="M85.1381 21.8163C84.8617 21.964 84.5641 22.0906 84.0752 22.3437C84.1602 21.9007 84.139 21.4365 84.2453 21.3943C84.5004 21.3099 84.8405 21.4365 85.1381 21.4787C85.1381 21.5842 85.1381 21.7108 85.1381 21.8163Z" fill="#070707"/>
<path d="M78.2292 22.5125C78.0167 22.7024 77.8041 22.8923 77.6128 23.0822C77.5277 22.9978 77.4427 22.9134 77.3577 22.829C77.5277 22.6391 77.6978 22.4281 77.8679 22.2382C77.9954 22.3015 78.123 22.407 78.2292 22.5125Z" fill="#070707"/>
<path d="M93.0248 30.8677C92.9823 32.0492 93.0036 32.0703 94.3003 31.9015C94.1303 32.8299 93.365 32.7244 92.876 32.4712C92.5572 32.3024 92.4934 31.6272 92.3658 31.142C92.3658 31.1209 92.791 30.9732 93.0248 30.8677Z" fill="#FFF6EB"/>
</svg>
