<svg width="88" height="121" viewBox="0 0 88 121" fill="none" xmlns="http://www.w3.org/2000/svg">
<path d="M18.2264 34.3263L18.3711 113.785C18.1685 116.1 24.473 118.601 37.8116 119.782C51.1559 120.958 57.7905 119.707 57.9931 117.385L72.0669 39.0156L18.2206 34.3321L18.2264 34.3263Z" fill="#E51F33"/>
<path d="M17.3406 27.9176L16.5243 36.0689C16.3622 37.9331 28.925 40.5672 44.5851 41.9451C60.2452 43.3287 73.08 42.935 73.2421 41.0709L74.0584 32.9196L17.3406 27.9118V27.9176Z" fill="#F2C3A7"/>
<path d="M74.0584 32.9195C73.8963 34.7837 61.0614 35.1715 45.4013 33.7937C29.7412 32.41 17.1784 29.7817 17.3405 27.9175C17.5026 26.0534 30.3375 25.6655 45.9976 27.0434C61.6577 28.427 74.2205 31.0554 74.0584 32.9195Z" fill="#EADDCB"/>
<path d="M46.6926 30.5678L62.5529 1.35467C62.9176 0.677325 63.6239 0.277849 64.4402 0.399425L86.2253 3.4504C87.2384 3.58934 87.9389 4.5272 87.8 5.54033C87.661 6.55346 86.7175 7.25398 85.7101 7.11504L65.1987 4.24353L50.5123 31.4665C50.1533 32.1323 48.2285 32.3638 48.7148 31.4665L46.6926 30.5678Z" fill="#FFF5EA"/>
<path d="M53.5679 25.8086L55.0384 23.076C53.3537 22.9197 52.2306 22.3466 51.5243 21.8024L50.129 24.3902C50.9801 24.9749 52.109 25.5133 53.5679 25.8086Z" fill="#FBC6DB"/>
<path d="M57.5858 18.3578L59.0737 15.5962C57.3948 15.4805 56.2485 14.9652 55.4959 14.4442L54.1064 17.0262C54.9806 17.5936 56.1211 18.0972 57.5858 18.3636V18.3578Z" fill="#FBC6DB"/>
<path d="M63.1088 8.11653C61.4357 8.04706 60.2604 7.58392 59.4673 7.07446L58.0836 9.64492C58.981 10.1891 60.1389 10.6638 61.6094 10.8954L63.1088 8.11653Z" fill="#FBC6DB"/>
<path d="M65.4999 0.549808L64.4348 0.39928C63.6243 0.277705 62.918 0.671392 62.5475 1.35453C62.5706 2.80186 62.9411 4.53287 63.9774 6.50123L65.1932 4.24339L66.1948 4.38233C65.5116 2.80763 65.3957 1.52241 65.4999 0.549808Z" fill="#FBC6DB"/>
<path d="M73.4774 1.66709L70.5828 1.26187C70.3917 2.28079 70.3455 3.54284 70.6755 5.00754L73.8422 5.45332C73.2633 3.8439 73.2864 2.56444 73.4774 1.66709Z" fill="#FBC6DB"/>
<path d="M44.8951 30.1183L25.3094 3.90964C24.8476 3.29438 24.0895 3.00489 23.3006 3.24704L2.21566 9.51809C1.23466 9.80682 0.682128 10.8388 0.970855 11.8198C1.25958 12.8008 2.29722 13.3525 3.2725 13.0647L23.1249 7.16131L40.4015 30.1183C40.8558 30.723 45.9592 31.8316 45.3443 31.017L44.8951 30.1183Z" fill="#EADDCB"/>
<path d="M37.847 26.747L35.9848 24.2648C37.6272 23.8586 38.6521 23.1241 39.2692 22.4805L41.0354 24.8308C40.2812 25.5361 39.2454 26.2371 37.847 26.747Z" fill="#0E337D"/>
<path d="M32.7612 19.98L30.8775 17.4717C32.5203 17.1064 33.5768 16.4257 34.2431 15.7981L36.0027 18.1436C35.223 18.8352 34.1706 19.5036 32.7621 19.9857L32.7612 19.98Z" fill="#0E337D"/>
<path d="M25.7705 10.6786C27.4145 10.36 28.5074 9.7265 29.2155 9.10428L30.9676 11.4392C30.1616 12.1113 29.0876 12.7537 27.6682 13.2023L25.7705 10.6786Z" fill="#0E337D"/>
<path d="M22.2757 3.55401L23.3064 3.24606C24.0897 3.00477 24.8469 3.28854 25.3153 3.90866C25.5086 5.34321 25.4008 7.11014 24.6702 9.21122L23.1308 7.16033L22.1612 7.44732C22.6015 5.78825 22.5241 4.50014 22.2757 3.55401Z" fill="#0E337D"/>
<path d="M14.5548 5.85055L17.3564 5.01747C17.6975 5.99641 17.9318 7.2374 17.8243 8.73496L14.7597 9.6488C15.0917 7.97094 14.8777 6.70929 14.5548 5.85055Z" fill="#0E337D"/>
<path d="M51.8009 82.4075C51.0541 82.5125 50.1278 82.5249 49.0219 82.4449C47.9562 82.3121 46.864 82.1595 45.7451 81.9871C44.6197 81.7685 43.6675 81.5962 42.8883 81.4702C41.8627 81.2847 40.694 81.0958 39.3819 80.9034C38.1101 80.6583 37.1474 80.5817 36.494 80.6735C33.294 81.1232 32.0543 84.8476 31.701 87.7249C29.3683 85.6765 30.4224 82.3867 31.4346 80.7845C32.4871 79.1296 33.9792 78.2098 36.3127 77.8819C37.0128 77.7835 37.8957 77.8007 38.9614 77.9335C40.0271 78.0663 41.1194 78.2189 42.2382 78.3913C43.3571 78.5637 44.3327 78.7327 45.165 78.8983C46.1906 79.0838 47.3127 79.2793 48.5314 79.4848C49.7968 79.6837 50.8028 79.7307 51.5495 79.6257C54.215 79.2511 56.1077 76.5776 55.4342 73.4088C58.5152 75.9818 57.4631 78.3115 56.4379 79.8213C55.4528 81.2784 54.0411 82.0927 51.8009 82.4075Z" fill="#EADDCB"/>
<path d="M48.5454 74.6202C47.7986 74.7252 46.8723 74.7376 45.7665 74.6576C44.7008 74.5248 43.6085 74.3722 42.4896 74.1998C41.3642 73.9812 40.412 73.8089 39.6328 73.6829C38.6073 73.4974 37.4385 73.3085 36.1264 73.1161C34.8546 72.871 33.8919 72.7944 33.2385 72.8862C30.0385 73.3359 28.7988 77.0603 28.4455 79.9376C26.1128 77.8892 27.1669 74.5994 28.1791 72.9972C29.2316 71.3423 30.7237 70.4225 33.0572 70.0946C33.7573 69.9962 34.6402 70.0134 35.7059 70.1462C36.7716 70.279 37.8639 70.4316 38.9827 70.604C40.1016 70.7764 41.0772 70.9454 41.9096 71.111C42.9351 71.2965 44.0572 71.492 45.2759 71.6975C46.5413 71.8964 47.5473 71.9434 48.294 71.8384C50.9596 71.4638 52.8522 68.7903 52.1787 65.6215C55.2597 68.1945 54.2076 70.5242 53.1824 72.034C52.1973 73.4911 50.7856 74.3054 48.5454 74.6202Z" fill="#EADDCB"/>
<path d="M52.9368 29.9893C52.7657 30.9671 50.7146 32.5458 48.1477 32.0967C45.5808 31.6476 43.6386 30.4909 43.8097 29.513C43.9808 28.5352 47.7978 27.2075 48.1477 28.4165C48.4976 29.6255 50.2406 29.9893 52.9368 29.9893Z" fill="#F0E8DD"/>
</svg>
