<svg width="248" height="123" viewBox="0 0 248 123" fill="none" xmlns="http://www.w3.org/2000/svg">
<path d="M67.1919 100.855C67.6028 100.983 68.0221 101.085 68.4362 101.151C71.582 101.647 74.4214 100.175 76.0254 97.214C76.8568 95.6783 76.2873 93.7608 74.7554 92.9301C73.2227 92.1032 71.3023 92.6682 70.4709 94.204C70.0356 95.0055 69.7351 94.96 69.4233 94.9124C67.7577 94.636 65.657 92.4114 65.3152 90.554C64.5378 86.3771 67.087 64.5739 72.3533 58.5647C72.8429 58.0072 73.3132 57.6689 73.5874 57.6864C78.5732 57.9393 79.3127 63.4062 79.3782 64.0272C79.5634 65.7553 81.1039 67.021 82.8382 66.8448C84.568 66.6717 85.8273 65.1455 85.6662 63.4139C85.2938 59.4418 82.3675 51.817 73.9196 51.3748C72.3215 51.2901 69.928 51.7477 67.6014 54.4005C60.7427 62.2282 58.1005 86.2921 59.1068 91.7087C59.868 95.8006 63.3555 99.6504 67.195 100.86L67.1919 100.855Z" fill="#EADDCB"/>
<path d="M69.6027 110.677C77.8387 116.468 87.8743 119.626 97.9414 119.594C100.357 119.586 102.49 118 103.216 115.695L122.751 53.6125L87.0513 42.3803L67.5156 104.463C66.7898 106.768 67.6303 109.292 69.6058 110.682L69.6027 110.677Z" fill="#EADDCB"/>
<path d="M74.5769 106.315C80.9946 110.49 88.7069 112.919 96.3608 113.169C98.1975 113.23 99.7746 112.202 100.265 110.652L113.431 68.811L85.9881 60.1744L72.8214 102.015C72.3345 103.569 73.0404 105.312 74.5769 106.315Z" fill="#FFAE43"/>
<path d="M85.9886 60.1704C85.6463 61.2618 91.5089 64.0766 99.0882 66.462C106.668 68.8474 113.086 69.894 113.433 68.8032C113.779 67.7124 107.912 64.897 100.333 62.5116C92.7536 60.1262 86.3347 59.0796 85.9886 60.1704Z" fill="#F4CC5B"/>
<path d="M87.0483 42.3759C86.5378 43.996 94.1189 47.823 103.977 50.9257C113.835 54.0284 122.241 55.2327 122.748 53.6119C123.258 51.9918 115.677 48.1648 105.819 45.0621C95.9612 41.9594 87.5549 40.7551 87.0483 42.3759Z" fill="#EADDCB"/>
<path d="M117.43 50.2805C114.308 48.7494 110.112 47.1253 105.618 45.7098C105.355 45.6279 105.096 45.5468 104.837 45.4656C100.5 44.1327 96.3109 43.1346 93.0453 42.6521C89.0116 42.0527 87.9476 42.4574 87.7249 42.5897C87.7416 42.6279 87.7714 42.68 87.8243 42.7558L87.024 42.5121C87.0283 42.466 87.0319 42.4236 87.0475 42.3795C87.5423 40.8035 95.5185 41.9002 105.034 44.8209C105.293 44.902 105.556 44.9839 105.818 45.0657C115.417 48.0872 122.852 51.7944 122.767 53.4823L121.97 53.2393C121.678 52.8397 120.698 51.8922 117.425 50.2874L117.43 50.2805Z" fill="#FFF5EA"/>
<path d="M90.3854 42.8515C90.9427 41.7592 94.7548 35.2729 104.157 38.6306C109.321 40.4775 111.183 45.386 111.815 49.4355C111.974 49.4638 112.131 49.5034 112.29 49.555C114.712 50.2978 116.076 52.8642 115.329 55.2898C115.198 55.7234 115.002 56.1222 114.762 56.482C115.303 56.9961 115.665 57.6657 115.844 58.3966C116.171 59.7437 113.432 68.8071 113.432 68.8071C113.089 69.8986 106.667 68.8476 99.0875 66.466C91.5082 64.0806 85.6456 61.2658 85.9879 60.1743C85.9879 60.1743 89.8274 43.9476 90.3854 42.8515Z" fill="#FFF5EA"/>
<path d="M107.98 65.1082C107.869 65.4712 108.073 65.8591 108.436 65.9704C108.799 66.0818 109.187 65.8773 109.298 65.5143C109.41 65.1513 109.205 64.7634 108.842 64.652C108.479 64.5407 108.091 64.7452 107.98 65.1082Z" fill="#FFF5EA"/>
<path d="M104.6 61.5748C104.415 62.1785 104.754 62.8207 105.358 63.006C105.961 63.1914 106.604 62.8524 106.789 62.2487C106.974 61.6449 106.635 61.0028 106.032 60.8174C105.428 60.632 104.786 60.971 104.6 61.5748Z" fill="#FFF5EA"/>
<path d="M110.223 57.8004C110.112 58.1634 110.316 58.5512 110.679 58.6626C111.042 58.7739 111.43 58.5694 111.542 58.2064C111.653 57.8434 111.449 57.4556 111.086 57.3442C110.723 57.2329 110.335 57.4374 110.223 57.8004Z" fill="#FFF5EA"/>
<path d="M103.023 56.4902C102.848 57.0605 103.003 57.6154 103.366 57.7268C103.729 57.8381 104.17 57.4673 104.342 56.8963C104.517 56.3259 104.362 55.7711 103.999 55.6597C103.636 55.5483 103.195 55.9192 103.023 56.4902Z" fill="#FFF5EA"/>
<path d="M100.134 46.5675C100.102 47.1634 100.385 47.6628 100.764 47.6832C101.143 47.7037 101.48 47.2363 101.512 46.6404C101.543 46.0445 101.261 45.5451 100.882 45.5247C100.503 45.5042 100.166 45.9716 100.134 46.5675Z" fill="#FFF5EA"/>
<path d="M96.9218 60.0114C96.8012 60.4041 96.9059 60.782 97.158 60.858C97.4063 60.9334 97.7094 60.6787 97.8255 60.2892C97.946 59.8966 97.8413 59.5186 97.5892 59.4426C97.3409 59.3672 97.0378 59.6219 96.9218 60.0114Z" fill="#FFF5EA"/>
<path d="M98.4604 52.6915C98.3399 53.0841 98.4446 53.4621 98.6967 53.5381C98.945 53.6135 99.2481 53.3587 99.3642 52.9692C99.4847 52.5766 99.38 52.1987 99.1279 52.1226C98.8796 52.0473 98.5765 52.302 98.4604 52.6915Z" fill="#FFF5EA"/>
<path d="M87.8283 42.7567C88.1206 43.1563 89.1006 44.1037 92.3737 45.7086C95.4959 47.2397 99.6913 48.8638 104.185 50.2793C104.448 50.3611 104.707 50.4423 104.966 50.5235C109.303 51.8564 113.493 52.8545 116.758 53.337C120.792 53.9363 121.856 53.5317 122.079 53.3994C122.062 53.3612 122.032 53.3091 121.979 53.2333L122.776 53.4763C122.771 53.5224 122.768 53.5648 122.752 53.6089C122.257 55.1849 114.281 54.0882 104.766 51.1675C104.507 51.0864 104.244 51.0045 103.981 50.9227C94.3824 47.9012 86.948 44.194 87.0331 42.5061L87.8334 42.7498L87.8283 42.7567Z" fill="#FFF5EA"/>
<path d="M185.385 94.0098C184.992 94.1837 184.587 94.333 184.183 94.4458C181.115 95.2994 178.126 94.1625 176.193 91.405C175.191 89.9746 175.537 88.0046 176.963 87.0038C178.391 86.0066 180.364 86.3478 181.366 87.7782C181.89 88.5245 182.183 88.4448 182.488 88.3618C184.111 87.8964 185.942 85.4456 186.069 83.5612C186.363 79.3228 181.331 57.9555 175.411 52.5895C174.861 52.0918 174.355 51.8096 174.084 51.8584C169.16 52.6811 169.052 58.1968 169.058 58.8211C169.072 60.559 167.687 61.9931 165.944 62.0167C164.206 62.043 162.78 60.6712 162.742 58.9326C162.656 54.944 164.689 47.0341 173.031 45.6265C174.609 45.3592 177.039 45.5394 179.654 47.9081C187.365 54.8981 192.748 78.5005 192.369 83.9968C192.082 88.149 189.058 92.3731 185.383 94.0146L185.385 94.0098Z" fill="#EADDCB"/>
<path d="M184.116 104.043C176.598 110.74 166.991 115.027 156.986 116.149C154.586 116.418 152.285 115.087 151.3 112.881L124.778 53.4464L158.955 38.1964L185.477 97.6311C186.463 99.8372 185.917 102.441 184.114 104.048L184.116 104.043Z" fill="#EADDCB"/>
<path d="M178.675 100.28C172.778 105.163 165.395 108.46 157.82 109.586C156.003 109.857 154.318 109.016 153.654 107.533L135.778 67.4765L162.051 55.7514L179.926 95.8076C180.588 97.2956 180.086 99.1074 178.675 100.28Z" fill="#FFAE43"/>
<path d="M162.05 55.7476C162.515 56.7926 157.013 60.2608 149.757 63.4992C142.501 66.7376 136.245 68.513 135.776 67.469C135.307 66.4251 140.812 62.9559 148.068 59.7175C155.324 56.4791 161.581 54.7037 162.05 55.7476Z" fill="#F4CC5B"/>
<path d="M158.957 38.1917C159.65 39.7426 152.557 44.4133 143.12 48.6254C133.683 52.8375 125.47 54.9974 124.781 53.4453C124.088 51.8944 131.181 47.2237 140.618 43.0116C150.055 38.7995 158.268 36.6397 158.957 38.1917Z" fill="#EADDCB"/>
<path d="M129.682 49.5264C132.608 47.6475 136.59 45.5532 140.892 43.632C141.144 43.5205 141.392 43.4102 141.64 43.2999C145.795 41.4787 149.843 40.007 153.031 39.1535C156.97 38.0957 158.073 38.3758 158.31 38.4817C158.297 38.5214 158.274 38.5767 158.23 38.658L158.997 38.3242C158.987 38.2789 158.979 38.2372 158.958 38.1952C158.286 36.6863 150.488 38.6899 141.371 42.682C141.123 42.7923 140.871 42.9037 140.619 43.0151C131.43 47.1169 124.469 51.6518 124.747 53.3188L125.511 52.986C125.755 52.5556 126.62 51.5021 129.688 49.5327L129.682 49.5264Z" fill="#FFF5EA"/>
<path d="M155.697 39.0466C155.018 38.0254 150.488 32.0188 141.532 36.432C136.614 38.8586 135.327 43.9482 135.163 48.0434C135.008 48.0897 134.857 48.1471 134.705 48.2166C132.384 49.2321 131.323 51.938 132.343 54.262C132.524 54.6776 132.764 55.0513 133.043 55.3812C132.564 55.954 132.282 56.6606 132.188 57.4072C132.018 58.7829 135.777 67.4727 135.777 67.4727C136.242 68.5177 142.502 66.7376 149.759 63.5029C157.015 60.2645 162.516 56.7963 162.051 55.7513C162.051 55.7513 156.377 40.0716 155.697 39.0466Z" fill="#FFF5EA"/>
<path d="M140.769 63.1733C140.921 63.5212 140.763 63.9299 140.415 64.0821C140.067 64.2344 139.658 64.0756 139.506 63.7278C139.354 63.3799 139.512 62.9712 139.86 62.819C140.208 62.6667 140.617 62.8255 140.769 63.1733Z" fill="#FFF5EA"/>
<path d="M143.721 59.2756C143.975 59.8541 143.712 60.5309 143.133 60.7843C142.555 61.0376 141.878 60.7745 141.624 60.1959C141.371 59.6174 141.634 58.9406 142.213 58.6873C142.791 58.4339 143.468 58.6971 143.721 59.2756Z" fill="#FFF5EA"/>
<path d="M137.703 56.1709C137.855 56.5187 137.696 56.9275 137.348 57.0797C137.001 57.2319 136.592 57.0732 136.44 56.7254C136.287 56.3775 136.446 55.9688 136.794 55.8165C137.142 55.6643 137.55 55.823 137.703 56.1709Z" fill="#FFF5EA"/>
<path d="M144.705 54.0438C144.945 54.5903 144.854 55.1593 144.506 55.3115C144.159 55.4637 143.678 55.1458 143.442 54.5983C143.202 54.0518 143.293 53.4828 143.641 53.3306C143.989 53.1784 144.469 53.4962 144.705 54.0438Z" fill="#FFF5EA"/>
<path d="M146.438 43.8556C146.538 44.444 146.314 44.9724 145.94 45.0362C145.566 45.1 145.177 44.6742 145.078 44.0859C144.978 43.4975 145.201 42.9691 145.576 42.9053C145.95 42.8415 146.338 43.2673 146.438 43.8556Z" fill="#FFF5EA"/>
<path d="M151.17 56.8425C151.335 57.2187 151.274 57.6062 151.032 57.7106C150.794 57.8139 150.464 57.5956 150.304 57.222C150.139 56.8458 150.2 56.4583 150.442 56.3539C150.68 56.2506 151.01 56.4689 151.17 56.8425Z" fill="#FFF5EA"/>
<path d="M148.803 49.7475C148.967 50.1237 148.907 50.5112 148.665 50.6156C148.427 50.7189 148.097 50.5006 147.937 50.1269C147.772 49.7507 147.833 49.3633 148.074 49.2588C148.312 49.1555 148.643 49.3738 148.803 49.7475Z" fill="#FFF5EA"/>
<path d="M158.226 38.6592C157.981 39.0896 157.116 40.1432 154.049 42.1126C151.123 43.9915 147.141 46.0857 142.839 48.007C142.587 48.1184 142.339 48.2287 142.091 48.3391C137.936 50.1603 133.888 51.632 130.699 52.4855C126.761 53.5433 125.658 53.2632 125.421 53.1573C125.433 53.1176 125.457 53.0623 125.501 52.9809L124.737 53.3137C124.747 53.359 124.755 53.4006 124.776 53.4426C125.448 54.9516 133.246 52.948 142.364 48.9559C142.612 48.8456 142.864 48.7342 143.115 48.6228C152.305 44.521 159.265 39.9861 158.987 38.3191L158.22 38.653L158.226 38.6592Z" fill="#FFF5EA"/>
<path d="M116.035 31.8113L120.992 40.073" stroke="#0E337D" stroke-width="1.65234" stroke-linecap="round"/>
<path d="M129.667 31.8113L127.601 36.7683" stroke="#0E337D" stroke-width="1.65234" stroke-linecap="round"/>
<ellipse cx="222.385" cy="18.6291" rx="25.615" ry="18.6291" fill="#FBC6DB"/>
<path d="M201.427 39.5868C203.459 37.6308 203.967 33.3383 203.967 31.4366L215.399 35.5117L201.427 39.5868Z" fill="#FBC6DB"/>
<ellipse cx="25.615" cy="18.6291" rx="25.615" ry="18.6291" transform="matrix(-0.991193 -0.132425 -0.132425 0.991193 56.0211 19.5913)" fill="#E51F33"/>
<path d="M46.1625 58.2128C44.4072 56.0048 44.472 51.6829 44.7239 49.7979L32.8534 52.3233L46.1625 58.2128Z" fill="#E51F33"/>
<path d="M18.9447 29.2873C18.9447 29.2873 18.0332 32.0308 19.3081 34.2037C20.5829 36.3765 21.047 36.7504 21.4974 37.6589C21.9479 38.5674 23.1883 42.326 28.5311 42.9927C33.8739 43.6609 37.224 40.3994 37.688 36.1152L18.9447 29.2873Z" fill="#548C61"/>
<path d="M19.9103 27.6719C19.9103 27.6719 21.6732 26.0171 24.2185 27.2139C26.7638 28.4107 28.6093 29.5084 33.1517 30.558C36.6325 31.3629 39.406 34.5569 36.697 38.1323C34.0647 41.607 27.01 40.2676 24.6464 38.4146C22.2829 36.5615 22.2048 34.668 20.9404 33.5403C19.676 32.4125 17.7119 29.4408 19.9103 27.6689V27.6719Z" fill="#FBFFC0"/>
<path d="M26.7697 32.2291C26.7697 32.2291 28.1016 30.283 31.2866 30.8581C34.4715 31.4318 35.329 34.1377 34.6502 35.7745C33.9715 37.4113 32.5419 37.6635 30.4622 37.1785C28.3824 36.6935 25.4557 34.2368 26.7697 32.2291Z" fill="#AF5546"/>
<path d="M28.0492 32.6225C27.9831 32.6225 27.9156 32.5985 27.863 32.549C27.7534 32.4468 27.7459 32.2742 27.848 32.163C27.9021 32.1045 29.192 30.7425 31.4534 31.4723C31.5976 31.5188 31.6757 31.6735 31.6291 31.8162C31.5826 31.9588 31.4279 32.0384 31.2852 31.9918C29.3691 31.3732 28.294 32.4859 28.2504 32.5339C28.1964 32.591 28.1228 32.621 28.0507 32.621L28.0492 32.6225Z" fill="#FFF5EA"/>
<path d="M219.85 13.82C220.534 13.5706 221.758 12.6498 222.55 12.6202C223.87 12.5703 225.16 12.746 225.905 13.1322C226.119 13.2431 227.185 14.5369 227.817 14.8549C228.182 15.0381 228.799 14.8592 229.177 15.1318C231.587 16.8749 233.294 19.411 232.858 21.7858C232.045 26.2076 222.614 26.9501 216.174 24.486C210.956 22.4899 214.076 16.9374 217.714 14.2713C218.565 13.6473 218.483 14.3182 219.848 13.8204L219.85 13.82Z" fill="#BA6D4F"/>
<path d="M230.909 20.6355C230.646 21.4941 228.867 23.2593 226.739 23.2917C224.61 23.3241 224.68 23.5377 222.524 23.0052C220.368 22.4728 217.527 22.8982 215.433 21.4111C214.171 20.5157 214.037 19.2499 214.128 18.3855C212.913 20.7695 213.019 23.2783 216.175 24.4868C222.616 26.9499 232.047 26.2084 232.859 21.7866C233.101 20.4685 232.683 19.1008 231.851 17.8464C231.417 18.6811 231.077 20.0901 230.909 20.6371L230.909 20.6355Z" fill="#A05740"/>
<path d="M215.455 21.0369C215.455 21.0369 221.699 16.9071 223.625 16.4442L228.45 23.8993C228.45 23.8993 228.532 18.3166 228.026 17.0752C227.52 15.8339 227.145 15.5183 227.145 15.5183L228.601 14.9642C228.319 14.9445 228.027 14.9575 227.819 14.8529C227.247 14.5664 226.326 13.4866 225.993 13.1951L223.844 13.9963L222.062 12.7203C221.315 12.9722 220.406 13.6166 219.851 13.818C218.933 14.1524 218.67 13.9595 218.337 13.9854C218.628 14.1229 218.961 14.3047 219.296 14.5421C220.264 15.2289 220.511 15.5781 220.511 15.5781C220.511 15.5781 216.319 18.9621 215.457 21.0338L215.455 21.0369Z" fill="#EFA765"/>
</svg>
