<svg width="176" height="123" viewBox="0 0 176 123" fill="none" xmlns="http://www.w3.org/2000/svg">
<path opacity="0.1" d="M53.0384 98.3743C57.1922 96.9784 62.0218 94.7366 67.5274 91.6489C72.6802 88.4323 77.9163 85.064 83.2356 81.544C88.4619 77.8077 92.9191 74.7011 96.6074 72.2242C101.408 68.8786 106.94 65.1632 113.205 61.078C119.117 56.8638 123.89 54.146 127.524 52.9245C145.325 50.1945 161.319 56.7881 171.042 68.3801C177.499 53.7227 159.267 38.5309 149.631 34.0972C141.139 31.0591 132.501 29.5757 119.521 33.938C115.627 35.2467 111.103 37.5093 105.95 40.7259C100.797 43.9425 95.5613 47.3108 90.242 50.8309C84.9226 54.3509 80.3356 57.5012 76.4808 60.2815C71.6807 63.6271 66.4079 67.2553 60.6624 71.166C54.6573 75.164 49.5779 77.8609 45.4242 79.2569C30.5971 84.2397 14.1054 80.5659 8.89857 65.1657C0.00709089 83.951 12.5112 95.14 21.9611 99.1413C31.0582 103.014 40.5771 102.562 53.0384 98.3743Z" fill="#E51F33"/>
<rect x="56" y="0.304108" width="65" height="122" rx="10" fill="#0E337D"/>
<rect x="60" y="4.30411" width="57" height="114" rx="7" fill="#FBC6DB"/>
<rect x="74.0588" y="94.3041" width="29" height="9" rx="3.64706" fill="#E51F33"/>
<path d="M80.4986 100.35C80.2463 100.35 80.032 100.304 79.8558 100.213C79.6795 100.122 79.5214 99.988 79.3816 99.8118L79.7372 99.4562C79.8254 99.5838 79.9302 99.6841 80.0518 99.757C80.1734 99.827 80.3284 99.8619 80.5168 99.8619C80.6931 99.8619 80.8329 99.8254 80.9362 99.7525C81.0426 99.6795 81.0958 99.5793 81.0958 99.4516C81.0958 99.3452 81.0684 99.2586 81.0137 99.1918C80.959 99.1249 80.8861 99.0702 80.7949 99.0276C80.7067 98.982 80.608 98.9425 80.4986 98.9091C80.3922 98.8726 80.2843 98.8331 80.1749 98.7906C80.0685 98.745 79.9697 98.6888 79.8786 98.6219C79.7904 98.555 79.719 98.4684 79.6643 98.362C79.6096 98.2557 79.5822 98.1204 79.5822 97.9563C79.5822 97.7679 79.6278 97.6083 79.719 97.4776C79.8132 97.3439 79.9393 97.2421 80.0974 97.1722C80.2554 97.1023 80.4317 97.0673 80.6262 97.0673C80.8359 97.0673 81.0228 97.1084 81.1869 97.1904C81.3541 97.2725 81.4893 97.3773 81.5927 97.505L81.2371 97.8606C81.1459 97.7572 81.0502 97.6813 80.9499 97.6326C80.8526 97.581 80.7402 97.5551 80.6125 97.5551C80.4545 97.5551 80.3299 97.587 80.2387 97.6509C80.1506 97.7147 80.1065 97.8044 80.1065 97.9198C80.1065 98.0171 80.1338 98.0961 80.1886 98.1569C80.2433 98.2146 80.3147 98.2648 80.4028 98.3073C80.494 98.3469 80.5928 98.3848 80.6991 98.4213C80.8086 98.4578 80.9164 98.4988 81.0228 98.5444C81.1322 98.59 81.231 98.6493 81.3191 98.7222C81.4103 98.7921 81.4833 98.8833 81.538 98.9957C81.5927 99.1082 81.62 99.2495 81.62 99.4197C81.62 99.7054 81.5182 99.9318 81.3146 100.099C81.114 100.266 80.842 100.35 80.4986 100.35ZM82.0197 98.2298L82.3297 97.6509L82.4983 97.6053C82.4801 97.6418 82.4588 97.6721 82.4345 97.6965C82.4102 97.7208 82.3813 97.7329 82.3479 97.7329C82.278 97.7329 82.2127 97.7041 82.1519 97.6463C82.0941 97.5855 82.0653 97.5095 82.0653 97.4184C82.0653 97.3211 82.0987 97.2391 82.1656 97.1722C82.2324 97.1023 82.313 97.0673 82.4072 97.0673C82.4983 97.0673 82.5774 97.1023 82.6442 97.1722C82.7141 97.2391 82.7491 97.3211 82.7491 97.4184C82.7491 97.4579 82.74 97.505 82.7217 97.5597C82.7065 97.6114 82.6777 97.6782 82.6351 97.7603L82.2978 98.3803L82.0197 98.2298ZM83.2275 100.304V98.1159H83.729V100.304H83.2275ZM83.4783 97.7147C83.3932 97.7147 83.3218 97.6858 83.264 97.6281C83.2093 97.5703 83.182 97.4989 83.182 97.4138C83.182 97.3287 83.2093 97.2573 83.264 97.1995C83.3218 97.1418 83.3932 97.1129 83.4783 97.1129C83.5664 97.1129 83.6378 97.1418 83.6925 97.1995C83.7472 97.2573 83.7746 97.3287 83.7746 97.4138C83.7746 97.4989 83.7472 97.5703 83.6925 97.6281C83.6378 97.6858 83.5664 97.7147 83.4783 97.7147ZM85.7913 100.304V99.0413C85.7913 98.8954 85.7442 98.7754 85.65 98.6812C85.5588 98.587 85.4403 98.5398 85.2944 98.5398C85.1971 98.5398 85.1105 98.5611 85.0345 98.6037C84.9586 98.6462 84.8993 98.7055 84.8568 98.7815C84.8142 98.8574 84.7929 98.9441 84.7929 99.0413L84.5969 98.9319C84.5969 98.7647 84.6334 98.6173 84.7063 98.4897C84.7793 98.359 84.8795 98.2572 85.0072 98.1843C85.1379 98.1083 85.2838 98.0703 85.4448 98.0703C85.609 98.0703 85.7548 98.1128 85.8825 98.1979C86.0101 98.28 86.1104 98.3879 86.1834 98.5216C86.2563 98.6523 86.2928 98.7891 86.2928 98.9319V100.304H85.7913ZM84.2915 100.304V98.1159H84.7929V100.304H84.2915ZM87.5181 100.35C87.3965 100.35 87.2795 100.334 87.1671 100.304C87.0546 100.271 86.9513 100.225 86.8571 100.167C86.7629 100.107 86.6808 100.034 86.6109 99.9485L86.93 99.6294C87.006 99.7175 87.0926 99.7844 87.1899 99.83C87.2902 99.8725 87.4026 99.8938 87.5272 99.8938C87.6397 99.8938 87.7248 99.8771 87.7825 99.8437C87.8403 99.8102 87.8691 99.7616 87.8691 99.6978C87.8691 99.6309 87.8418 99.5793 87.7871 99.5428C87.7324 99.5063 87.661 99.4759 87.5728 99.4516C87.4877 99.4243 87.3965 99.3969 87.2993 99.3695C87.2051 99.3422 87.1139 99.3057 87.0258 99.2601C86.9407 99.2115 86.8708 99.1462 86.816 99.0641C86.7613 98.982 86.734 98.8757 86.734 98.745C86.734 98.6052 86.7659 98.4851 86.8297 98.3848C86.8966 98.2845 86.9893 98.207 87.1078 98.1523C87.2294 98.0976 87.3737 98.0703 87.5409 98.0703C87.7172 98.0703 87.8722 98.1022 88.0059 98.166C88.1427 98.2268 88.2566 98.3195 88.3478 98.4441L88.0287 98.7632C87.9649 98.6842 87.8919 98.6249 87.8099 98.5854C87.7278 98.5459 87.6336 98.5262 87.5272 98.5262C87.4269 98.5262 87.3494 98.5414 87.2947 98.5718C87.24 98.6021 87.2127 98.6462 87.2127 98.704C87.2127 98.7647 87.24 98.8119 87.2947 98.8453C87.3494 98.8787 87.4193 98.9076 87.5044 98.9319C87.5926 98.9562 87.6837 98.9836 87.778 99.014C87.8752 99.0413 87.9664 99.0808 88.0515 99.1325C88.1396 99.1811 88.211 99.248 88.2658 99.3331C88.3205 99.4151 88.3478 99.523 88.3478 99.6568C88.3478 99.8695 88.2734 100.038 88.1244 100.163C87.9755 100.287 87.7734 100.35 87.5181 100.35ZM89.7687 100.35C89.553 100.35 89.3569 100.3 89.1807 100.199C89.0074 100.099 88.8707 99.9622 88.7704 99.789C88.6701 99.6157 88.6199 99.4227 88.6199 99.21C88.6199 98.9942 88.6701 98.8012 88.7704 98.631C88.8707 98.4578 89.0074 98.321 89.1807 98.2207C89.3569 98.1204 89.553 98.0703 89.7687 98.0703C89.9389 98.0703 90.097 98.1037 90.2429 98.1706C90.3918 98.2344 90.5179 98.3271 90.6212 98.4487L90.293 98.7815C90.2292 98.7055 90.1517 98.6493 90.0605 98.6128C89.9724 98.5733 89.8751 98.5535 89.7687 98.5535C89.6441 98.5535 89.5332 98.5824 89.4359 98.6401C89.3417 98.6948 89.2673 98.7708 89.2126 98.8681C89.1609 98.9653 89.1351 99.0793 89.1351 99.21C89.1351 99.3376 89.1609 99.4516 89.2126 99.5519C89.2673 99.6492 89.3417 99.7267 89.4359 99.7844C89.5332 99.8391 89.6441 99.8665 89.7687 99.8665C89.8751 99.8665 89.9724 99.8482 90.0605 99.8118C90.1517 99.7722 90.2292 99.7145 90.293 99.6385L90.6212 99.9713C90.5179 100.093 90.3918 100.187 90.2429 100.254C90.097 100.318 89.9389 100.35 89.7687 100.35ZM90.9828 100.304V98.1159H91.4842V100.304H90.9828ZM91.4842 99.0869L91.311 99.0003C91.311 98.7237 91.3718 98.5003 91.4934 98.3301C91.618 98.1569 91.8049 98.0703 92.0541 98.0703C92.1635 98.0703 92.2623 98.09 92.3504 98.1295C92.4386 98.1691 92.5206 98.2329 92.5966 98.321L92.2684 98.6584C92.2289 98.6158 92.1848 98.5854 92.1362 98.5672C92.0875 98.549 92.0313 98.5398 91.9675 98.5398C91.8277 98.5398 91.7122 98.5839 91.621 98.672C91.5298 98.7602 91.4842 98.8985 91.4842 99.0869ZM92.8438 100.304V98.1159H93.3453V100.304H92.8438ZM93.0945 97.7147C93.0094 97.7147 92.938 97.6858 92.8803 97.6281C92.8256 97.5703 92.7982 97.4989 92.7982 97.4138C92.7982 97.3287 92.8256 97.2573 92.8803 97.1995C92.938 97.1418 93.0094 97.1129 93.0945 97.1129C93.1827 97.1129 93.2541 97.1418 93.3088 97.1995C93.3635 97.2573 93.3909 97.3287 93.3909 97.4138C93.3909 97.4989 93.3635 97.5703 93.3088 97.6281C93.2541 97.6858 93.1827 97.7147 93.0945 97.7147ZM93.9077 100.304V98.1159H94.4092V100.304H93.9077ZM94.4092 99.0869L94.236 99.0003C94.236 98.7237 94.2967 98.5003 94.4183 98.3301C94.5429 98.1569 94.7298 98.0703 94.9791 98.0703C95.0885 98.0703 95.1872 98.09 95.2754 98.1295C95.3635 98.1691 95.4456 98.2329 95.5216 98.321L95.1933 98.6584C95.1538 98.6158 95.1097 98.5854 95.0611 98.5672C95.0125 98.549 94.9563 98.5398 94.8924 98.5398C94.7526 98.5398 94.6371 98.5839 94.546 98.672C94.4548 98.7602 94.4092 98.8985 94.4092 99.0869ZM96.714 100.35C96.4952 100.35 96.2977 100.301 96.1214 100.204C95.9482 100.104 95.8099 99.9668 95.7065 99.7935C95.6062 99.6203 95.5561 99.4258 95.5561 99.21C95.5561 98.9942 95.6062 98.8012 95.7065 98.631C95.8068 98.4578 95.9421 98.321 96.1123 98.2207C96.2855 98.1204 96.477 98.0703 96.6867 98.0703C96.8903 98.0703 97.0696 98.1174 97.2246 98.2116C97.3827 98.3058 97.5058 98.435 97.5939 98.5991C97.6851 98.7632 97.7307 98.9501 97.7307 99.1598C97.7307 99.1963 97.7276 99.2343 97.7215 99.2738C97.7185 99.3103 97.7124 99.3513 97.7033 99.3969H95.9071V98.9866H97.4435L97.2565 99.1507C97.2505 99.017 97.2246 98.9045 97.179 98.8134C97.1335 98.7222 97.0681 98.6523 96.983 98.6037C96.901 98.555 96.7991 98.5307 96.6776 98.5307C96.5499 98.5307 96.439 98.5581 96.3448 98.6128C96.2506 98.6675 96.1776 98.745 96.126 98.8453C96.0743 98.9425 96.0485 99.0595 96.0485 99.1963C96.0485 99.3331 96.0758 99.4531 96.1305 99.5565C96.1852 99.6598 96.2627 99.7403 96.363 99.7981C96.4633 99.8528 96.5788 99.8801 96.7095 99.8801C96.8219 99.8801 96.9253 99.8604 97.0195 99.8209C97.1167 99.7814 97.1988 99.7236 97.2657 99.6476L97.5848 99.9713C97.4784 100.096 97.3492 100.19 97.1973 100.254C97.0453 100.318 96.8842 100.35 96.714 100.35Z" fill="#FBC6DB"/>
<rect x="72" y="47.3041" width="34" height="7" rx="2" fill="#EADDCB"/>
<rect x="72" y="57.3041" width="34" height="7" rx="2" fill="#EADDCB"/>
<rect x="72" y="67.3041" width="34" height="7" rx="2" fill="#EADDCB"/>
<rect x="83" y="26.3041" width="11" height="11" rx="5.5" fill="#0E337D"/>
<mask id="path-10-outside-1_350_5098" maskUnits="userSpaceOnUse" x="84" y="29.0541" width="5" height="5" fill="black">
<rect fill="white" x="84" y="29.0541" width="5" height="5"/>
<path fill-rule="evenodd" clip-rule="evenodd" d="M86.9503 33.8041C86.3525 33.8041 85.8781 33.6361 85.5268 33.3002C85.1756 32.9642 85 32.4941 85 31.8898C85 31.508 85.0774 31.1775 85.2323 30.8983C85.3894 30.6169 85.5999 30.4064 85.8639 30.2668C86.13 30.125 86.4343 30.0541 86.7768 30.0541C87.2611 30.0541 87.6462 30.1621 87.9319 30.378C88.2199 30.594 88.3639 30.9027 88.3639 31.3041C88.3639 31.3695 88.3587 31.4326 88.3484 31.4933C88.2555 31.5564 88.1715 31.6151 88.0965 31.6692C87.9478 31.7728 87.7844 31.8852 87.6064 32.0064C87.4204 32.1303 87.263 32.2138 87.1343 32.2571C86.675 32.4114 86.1641 32.2976 86.0027 31.8205C85.7273 32.4025 86.1147 32.7491 86.4074 32.8731C86.6893 32.9931 86.9842 32.9791 87.3702 32.8493C87.4989 32.8061 87.6485 32.7366 87.8191 32.641C87.9549 32.5562 88.0925 32.4681 88.232 32.3765C88.1748 32.5803 88.159 32.811 88.2065 33.0664C88.2349 33.219 88.278 33.3558 88.3323 33.4784L88.3246 33.4834C88.1697 33.5881 87.9657 33.6677 87.7127 33.7223C87.4596 33.7768 87.2055 33.8041 86.9503 33.8041Z"/>
</mask>
<path fill-rule="evenodd" clip-rule="evenodd" d="M86.9503 33.8041C86.3525 33.8041 85.8781 33.6361 85.5268 33.3002C85.1756 32.9642 85 32.4941 85 31.8898C85 31.508 85.0774 31.1775 85.2323 30.8983C85.3894 30.6169 85.5999 30.4064 85.8639 30.2668C86.13 30.125 86.4343 30.0541 86.7768 30.0541C87.2611 30.0541 87.6462 30.1621 87.9319 30.378C88.2199 30.594 88.3639 30.9027 88.3639 31.3041C88.3639 31.3695 88.3587 31.4326 88.3484 31.4933C88.2555 31.5564 88.1715 31.6151 88.0965 31.6692C87.9478 31.7728 87.7844 31.8852 87.6064 32.0064C87.4204 32.1303 87.263 32.2138 87.1343 32.2571C86.675 32.4114 86.1641 32.2976 86.0027 31.8205C85.7273 32.4025 86.1147 32.7491 86.4074 32.8731C86.6893 32.9931 86.9842 32.9791 87.3702 32.8493C87.4989 32.8061 87.6485 32.7366 87.8191 32.641C87.9549 32.5562 88.0925 32.4681 88.232 32.3765C88.1748 32.5803 88.159 32.811 88.2065 33.0664C88.2349 33.219 88.278 33.3558 88.3323 33.4784L88.3246 33.4834C88.1697 33.5881 87.9657 33.6677 87.7127 33.7223C87.4596 33.7768 87.2055 33.8041 86.9503 33.8041Z" fill="#FBC6DB"/>
<path d="M85.5268 33.3002L85.3797 33.4539H85.3797L85.5268 33.3002ZM85.2323 30.8983L85.0465 30.7946L85.0462 30.7951L85.2323 30.8983ZM85.8639 30.2668L85.9634 30.4549L85.9639 30.4546L85.8639 30.2668ZM87.9319 30.378L87.8036 30.5478L87.8042 30.5483L87.9319 30.378ZM88.3484 31.4933L88.468 31.6693L88.543 31.6183L88.5582 31.5289L88.3484 31.4933ZM88.0965 31.6692L88.2182 31.8438L88.221 31.8418L88.0965 31.6692ZM87.6064 32.0064L87.7244 32.1836L87.7262 32.1823L87.6064 32.0064ZM87.1343 32.2571L87.0665 32.0553L87.1343 32.2571ZM86.0027 31.8205L86.2044 31.7523L86.0357 31.2534L85.8104 31.7294L86.0027 31.8205ZM86.4074 32.8731L86.4908 32.6773L86.4904 32.6771L86.4074 32.8731ZM87.3702 32.8493L87.438 33.0511H87.438L87.3702 32.8493ZM87.8191 32.641L87.9233 32.8268L87.9318 32.8215L87.8191 32.641ZM88.232 32.3765L88.4369 32.434L88.5906 31.8866L88.1153 32.1986L88.232 32.3765ZM88.2065 33.0664L88.4157 33.0275L88.2065 33.0664ZM88.3323 33.4784L88.4484 33.6567L88.6003 33.5579L88.5269 33.3922L88.3323 33.4784ZM88.3246 33.4834L88.2085 33.305L88.2054 33.3071L88.3246 33.4834ZM87.7127 33.7223L87.7575 33.9303L87.7127 33.7223ZM85.3797 33.4539C85.7792 33.8361 86.311 34.0169 86.9503 34.0169V33.5913C86.3941 33.5913 85.9769 33.4361 85.6739 33.1464L85.3797 33.4539ZM84.7872 31.8898C84.7872 32.5371 84.9768 33.0685 85.3797 33.4539L85.6739 33.1464C85.3745 32.8599 85.2128 32.4511 85.2128 31.8898H84.7872ZM85.0462 30.7951C84.8707 31.1115 84.7872 31.479 84.7872 31.8898H85.2128C85.2128 31.5371 85.2842 31.2436 85.4184 31.0015L85.0462 30.7951ZM85.7644 30.0786C85.4612 30.239 85.2219 30.4803 85.0465 30.7946L85.4182 31.002C85.5569 30.7535 85.7386 30.5738 85.9634 30.4549L85.7644 30.0786ZM86.7768 29.8413C86.4042 29.8413 86.0647 29.9186 85.7638 30.0789L85.9639 30.4546C86.1953 30.3313 86.4644 30.2669 86.7768 30.2669V29.8413ZM88.0603 30.2082C87.7264 29.956 87.2913 29.8413 86.7768 29.8413V30.2669C87.2309 30.2669 87.5659 30.3681 87.8036 30.5478L88.0603 30.2082ZM88.5767 31.3041C88.5767 30.8446 88.4079 30.469 88.0596 30.2078L87.8042 30.5483C88.0319 30.719 88.1511 30.9608 88.1511 31.3041H88.5767ZM88.5582 31.5289C88.5707 31.4557 88.5767 31.3807 88.5767 31.3041H88.1511C88.1511 31.3583 88.1468 31.4094 88.1386 31.4577L88.5582 31.5289ZM88.2288 31.3173C88.1346 31.3813 88.0489 31.4411 87.972 31.4966L88.221 31.8418C88.2941 31.7891 88.3764 31.7316 88.468 31.6693L88.2288 31.3173ZM87.9748 31.4946C87.8268 31.5977 87.6641 31.7097 87.4867 31.8305L87.7262 32.1823C87.9047 32.0608 88.0687 31.948 88.2182 31.8438L87.9748 31.4946ZM87.4885 31.8292C87.3094 31.9485 87.1698 32.0206 87.0665 32.0553L87.2021 32.4588C87.3562 32.407 87.5314 32.312 87.7244 32.1835L87.4885 31.8292ZM87.0665 32.0553C86.8717 32.1208 86.6775 32.1251 86.5244 32.0738C86.3778 32.0247 86.2623 31.9236 86.2044 31.7523L85.8011 31.8887C85.9045 32.1945 86.1251 32.3889 86.3892 32.4774C86.6467 32.5637 86.9376 32.5477 87.2021 32.4588L87.0665 32.0553ZM85.8104 31.7294C85.6455 32.0777 85.6709 32.3833 85.8068 32.6234C85.9357 32.8511 86.1495 32.995 86.3244 33.0691L86.4904 32.6771C86.3726 32.6272 86.2464 32.5359 86.1772 32.4137C86.1151 32.304 86.0845 32.1453 86.1951 31.9115L85.8104 31.7294ZM86.3241 33.0689C86.6714 33.2168 87.0242 33.1901 87.438 33.0511L87.3024 32.6476C86.9441 32.768 86.7071 32.7694 86.4908 32.6773L86.3241 33.0689ZM87.438 33.0511C87.5835 33.0022 87.7457 32.9262 87.9232 32.8266L87.715 32.4553C87.5514 32.5471 87.4144 32.61 87.3024 32.6476L87.438 33.0511ZM87.9318 32.8215C88.069 32.7359 88.208 32.6468 88.3488 32.5544L88.1153 32.1986C87.977 32.2893 87.8408 32.3766 87.7064 32.4604L87.9318 32.8215ZM88.4157 33.0275C88.3742 32.8041 88.3885 32.6065 88.4369 32.434L88.0271 32.319C87.9611 32.5542 87.9438 32.8179 87.9972 33.1053L88.4157 33.0275ZM88.5269 33.3922C88.4795 33.2852 88.4412 33.1643 88.4157 33.0275L87.9972 33.1053C88.0286 33.2737 88.0766 33.4265 88.1377 33.5646L88.5269 33.3922ZM88.4407 33.6618L88.4484 33.6567L88.2162 33.3L88.2085 33.305L88.4407 33.6618ZM87.7575 33.9303C88.0277 33.8721 88.2595 33.7843 88.4438 33.6597L88.2054 33.3071C88.0799 33.3919 87.9038 33.4634 87.6679 33.5142L87.7575 33.9303ZM86.9503 34.0169C87.2208 34.0169 87.49 33.988 87.7575 33.9303L87.6679 33.5142C87.4293 33.5656 87.1902 33.5913 86.9503 33.5913V34.0169Z" fill="#0E337D" mask="url(#path-10-outside-1_350_5098)"/>
<mask id="path-12-outside-2_350_5098" maskUnits="userSpaceOnUse" x="87.3196" y="29.0541" width="5" height="5" fill="black">
<rect fill="white" x="87.3196" y="29.0541" width="5" height="5"/>
<path fill-rule="evenodd" clip-rule="evenodd" d="M88.62 31.3125C88.7515 31.2264 88.8813 31.1433 89.0095 31.0633C89.1691 30.9637 89.3093 30.8936 89.4299 30.853C89.8321 30.7179 90.0997 30.7638 90.3627 30.858C90.6613 30.9953 91.2261 31.466 91.0261 31.9201C90.8529 31.7136 90.6154 31.5583 90.34 31.4796C90.3269 31.478 90.3145 31.4765 90.3026 31.475C90.1753 31.4592 90.1062 31.4507 89.8479 31.4691C89.6587 31.5006 89.4509 31.5738 89.2545 31.6795C89.2478 31.6842 89.241 31.689 89.2342 31.6939C89.1239 31.7658 89.0209 31.8341 88.9252 31.8986C88.6475 32.1257 88.4456 32.4234 88.4456 32.7537C88.4456 33.4539 88.823 33.8041 89.5778 33.8041C89.8178 33.8041 90.0436 33.7397 90.2552 33.611C90.469 33.4801 90.6271 33.3056 90.7296 33.0875C90.7558 33.0307 90.7875 33.0078 90.8245 33.0187C90.8616 33.0296 90.8769 33.0667 90.8704 33.13C90.866 33.1889 90.8485 33.3176 90.818 33.5161C90.8093 33.5728 90.8224 33.623 90.8573 33.6666C90.8922 33.7081 90.9391 33.7343 90.998 33.7452C91.0874 33.767 91.2238 33.7779 91.407 33.7779C91.5706 33.7779 91.6917 33.767 91.7702 33.7452C91.8946 33.7234 91.9567 33.6536 91.9567 33.5358C91.9175 32.6392 91.8793 31.9422 91.8422 31.4448C91.7986 30.967 91.6361 30.6158 91.3546 30.3911C91.0754 30.1664 90.6751 30.0541 90.1537 30.0541C89.7153 30.0541 89.0987 30.0541 88.4671 30.2537L88.4471 30.2612L88.4471 30.2612C88.4158 30.2729 88.3688 30.2904 88.3196 30.3123C88.495 30.5582 88.62 30.8826 88.62 31.2985C88.62 31.3031 88.62 31.3078 88.62 31.3125Z"/>
</mask>
<path fill-rule="evenodd" clip-rule="evenodd" d="M88.62 31.3125C88.7515 31.2264 88.8813 31.1433 89.0095 31.0633C89.1691 30.9637 89.3093 30.8936 89.4299 30.853C89.8321 30.7179 90.0997 30.7638 90.3627 30.858C90.6613 30.9953 91.2261 31.466 91.0261 31.9201C90.8529 31.7136 90.6154 31.5583 90.34 31.4796C90.3269 31.478 90.3145 31.4765 90.3026 31.475C90.1753 31.4592 90.1062 31.4507 89.8479 31.4691C89.6587 31.5006 89.4509 31.5738 89.2545 31.6795C89.2478 31.6842 89.241 31.689 89.2342 31.6939C89.1239 31.7658 89.0209 31.8341 88.9252 31.8986C88.6475 32.1257 88.4456 32.4234 88.4456 32.7537C88.4456 33.4539 88.823 33.8041 89.5778 33.8041C89.8178 33.8041 90.0436 33.7397 90.2552 33.611C90.469 33.4801 90.6271 33.3056 90.7296 33.0875C90.7558 33.0307 90.7875 33.0078 90.8245 33.0187C90.8616 33.0296 90.8769 33.0667 90.8704 33.13C90.866 33.1889 90.8485 33.3176 90.818 33.5161C90.8093 33.5728 90.8224 33.623 90.8573 33.6666C90.8922 33.7081 90.9391 33.7343 90.998 33.7452C91.0874 33.767 91.2238 33.7779 91.407 33.7779C91.5706 33.7779 91.6917 33.767 91.7702 33.7452C91.8946 33.7234 91.9567 33.6536 91.9567 33.5358C91.9175 32.6392 91.8793 31.9422 91.8422 31.4448C91.7986 30.967 91.6361 30.6158 91.3546 30.3911C91.0754 30.1664 90.6751 30.0541 90.1537 30.0541C89.7153 30.0541 89.0987 30.0541 88.4671 30.2537L88.4471 30.2612L88.4471 30.2612C88.4158 30.2729 88.3688 30.2904 88.3196 30.3123C88.495 30.5582 88.62 30.8826 88.62 31.2985C88.62 31.3031 88.62 31.3078 88.62 31.3125Z" fill="#FBC6DB"/>
<path d="M89.0095 31.0633L88.8968 30.8828L88.8968 30.8828L89.0095 31.0633ZM88.62 31.3125L88.4072 31.3108L88.404 31.7082L88.7365 31.4905L88.62 31.3125ZM89.4299 30.853L89.3621 30.6513L89.4299 30.853ZM90.3627 30.858L90.4517 30.6646L90.4432 30.6607L90.4344 30.6576L90.3627 30.858ZM91.0261 31.9201L90.863 32.0568L91.0829 32.319L91.2208 32.0059L91.0261 31.9201ZM90.34 31.4796L90.3984 31.275L90.3822 31.2704L90.3656 31.2684L90.34 31.4796ZM90.3026 31.475L90.3288 31.2638L90.3288 31.2638L90.3026 31.475ZM89.8479 31.4691L89.8327 31.2568L89.8228 31.2575L89.8129 31.2592L89.8479 31.4691ZM89.2545 31.6795L89.1537 31.4921L89.1424 31.4981L89.132 31.5055L89.2545 31.6795ZM89.2342 31.6939L89.3506 31.8723L89.3578 31.8672L89.2342 31.6939ZM88.9252 31.8986L88.8062 31.7222L88.7981 31.7276L88.7905 31.7338L88.9252 31.8986ZM90.2552 33.611L90.3658 33.7928L90.3663 33.7925L90.2552 33.611ZM90.7296 33.0875L90.9223 33.178L90.9229 33.1766L90.7296 33.0875ZM90.8245 33.0187L90.7645 33.2229L90.7645 33.2229L90.8245 33.0187ZM90.8704 33.13L90.6586 33.1081L90.6581 33.1143L90.8704 33.13ZM90.818 33.5161L90.6077 33.4838L90.6077 33.4838L90.818 33.5161ZM90.8573 33.6666L90.691 33.7996L90.6945 33.8037L90.8573 33.6666ZM90.998 33.7452L91.0485 33.5381L91.0367 33.5359L90.998 33.7452ZM91.7702 33.7452L91.7334 33.5356L91.7232 33.5373L91.7133 33.5401L91.7702 33.7452ZM91.9567 33.5358H92.1698L92.1694 33.5264L91.9567 33.5358ZM91.8422 31.4448L92.0545 31.429L92.0542 31.4254L91.8422 31.4448ZM91.3546 30.3911L91.2212 30.5569L91.2219 30.5574L91.3546 30.3911ZM88.4671 30.2537L88.4029 30.0505L88.3923 30.0545L88.4671 30.2537ZM88.4471 30.2612L88.5144 30.4633L88.5219 30.4604L88.4471 30.2612ZM88.4471 30.2612L88.3797 30.0592L88.3727 30.0618L88.4471 30.2612ZM88.3196 30.3123L88.2331 30.1178L87.9949 30.2237L88.1463 30.4359L88.3196 30.3123ZM88.8968 30.8828C88.7673 30.9637 88.6361 31.0475 88.5034 31.1344L88.7365 31.4905C88.8668 31.4053 88.9954 31.323 89.1222 31.2439L88.8968 30.8828ZM89.3621 30.6513C89.2202 30.699 89.0645 30.7781 88.8968 30.8828L89.1222 31.2439C89.2738 31.1492 89.3984 31.0882 89.4977 31.0548L89.3621 30.6513ZM90.4344 30.6576C90.136 30.5508 89.8185 30.4979 89.3621 30.6513L89.4977 31.0548C89.8457 30.9378 90.0633 30.9769 90.2911 31.0584L90.4344 30.6576ZM91.2208 32.0059C91.3685 31.6708 91.2205 31.3531 91.0475 31.1372C90.8718 30.9179 90.6288 30.7461 90.4517 30.6646L90.2738 31.0513C90.3952 31.1072 90.5839 31.2394 90.7153 31.4033C90.8493 31.5706 90.8837 31.7153 90.8313 31.8343L91.2208 32.0059ZM90.2816 31.6843C90.5168 31.7514 90.7176 31.8835 90.863 32.0568L91.1891 31.7833C90.9881 31.5436 90.714 31.3651 90.3984 31.275L90.2816 31.6843ZM90.3656 31.2684C90.3528 31.2668 90.3408 31.2653 90.3288 31.2638L90.2764 31.6862C90.2883 31.6877 90.301 31.6893 90.3144 31.6909L90.3656 31.2684ZM90.3288 31.2638C90.1882 31.2464 90.1052 31.2374 89.8327 31.2568L89.863 31.6814C90.1071 31.664 90.1623 31.6721 90.2764 31.6862L90.3288 31.2638ZM89.8129 31.2592C89.5978 31.295 89.3678 31.3768 89.1537 31.4921L89.3554 31.8669C89.534 31.7708 89.7197 31.7062 89.8829 31.679L89.8129 31.2592ZM89.3578 31.8672C89.3642 31.8625 89.3707 31.858 89.3771 31.8535L89.132 31.5055C89.1249 31.5104 89.1178 31.5155 89.1107 31.5206L89.3578 31.8672ZM89.0442 32.075C89.1389 32.0112 89.2409 31.9436 89.3505 31.8721L89.118 31.5156C89.0068 31.5881 88.9029 31.6569 88.8062 31.7222L89.0442 32.075ZM88.7905 31.7338C88.4876 31.9815 88.2328 32.3337 88.2328 32.7537H88.6584C88.6584 32.5131 88.8074 32.2699 89.0599 32.0634L88.7905 31.7338ZM88.2328 32.7537C88.2328 33.1409 88.3379 33.4692 88.5839 33.6975C88.827 33.923 89.1714 34.0169 89.5778 34.0169V33.5913C89.2294 33.5913 89.0078 33.5101 88.8734 33.3855C88.7421 33.2636 88.6584 33.0667 88.6584 32.7537H88.2328ZM89.5778 34.0169C89.8581 34.0169 90.122 33.9411 90.3658 33.7928L90.1446 33.4292C89.9652 33.5383 89.7775 33.5913 89.5778 33.5913V34.0169ZM90.3663 33.7925C90.6141 33.6408 90.8013 33.4353 90.9223 33.178L90.537 32.9969C90.4529 33.1759 90.3239 33.3194 90.144 33.4295L90.3663 33.7925ZM90.9229 33.1766C90.9289 33.1635 90.9242 33.181 90.8978 33.2001C90.8827 33.2111 90.8613 33.2218 90.8344 33.2265C90.8074 33.2313 90.7832 33.2284 90.7645 33.2229L90.8846 32.8146C90.8021 32.7903 90.7167 32.8057 90.6482 32.8554C90.5902 32.8974 90.5565 32.9547 90.5364 32.9983L90.9229 33.1766ZM90.7645 33.2229C90.7454 33.2173 90.7239 33.2066 90.7045 33.1887C90.6852 33.171 90.6735 33.1516 90.667 33.1358C90.6556 33.1081 90.6602 33.093 90.6587 33.1081L91.082 33.1519C91.087 33.1037 91.0873 33.0385 91.0606 32.9737C91.0295 32.8981 90.9677 32.839 90.8846 32.8146L90.7645 33.2229ZM90.6581 33.1143C90.6545 33.1632 90.6385 33.2831 90.6077 33.4838L91.0283 33.5485C91.0586 33.3521 91.0775 33.2146 91.0826 33.1457L90.6581 33.1143ZM90.6077 33.4838C90.5902 33.5975 90.6179 33.7081 90.6911 33.7996L91.0235 33.5337C91.0231 33.5333 91.0237 33.534 91.0246 33.5358C91.0256 33.5376 91.0265 33.5399 91.0272 33.5426C91.0287 33.5484 91.0279 33.5512 91.0283 33.5485L90.6077 33.4838ZM90.6945 33.8037C90.7645 33.8869 90.8573 33.9356 90.9592 33.9544L91.0367 33.5359C91.0275 33.5342 91.0234 33.5321 91.0223 33.5315C91.0216 33.5311 91.0211 33.5308 91.0201 33.5296L90.6945 33.8037ZM90.9475 33.9519C91.0627 33.98 91.22 33.9907 91.407 33.9907V33.5651C91.2275 33.5651 91.1121 33.554 91.0484 33.5384L90.9475 33.9519ZM91.407 33.9907C91.5746 33.9907 91.7196 33.9801 91.8272 33.9502L91.7133 33.5401C91.6638 33.5539 91.5666 33.5651 91.407 33.5651V33.9907ZM91.807 33.9548C91.8999 33.9385 91.9965 33.8995 92.069 33.818C92.1432 33.7348 92.1696 33.6328 92.1696 33.5358H91.7439C91.7439 33.5467 91.7425 33.55 91.7431 33.5482C91.7434 33.5472 91.7441 33.5452 91.7456 33.5426C91.7471 33.54 91.749 33.5374 91.7512 33.5349C91.7559 33.5296 91.7594 33.5281 91.758 33.5288C91.7561 33.5297 91.7488 33.5329 91.7334 33.5356L91.807 33.9548ZM92.1694 33.5264C92.1301 32.6291 92.0918 31.9296 92.0544 31.429L91.63 31.4606C91.6668 31.9548 91.7049 32.6492 91.7441 33.5451L92.1694 33.5264ZM92.0542 31.4254C92.0071 30.9099 91.8277 30.4965 91.4874 30.2248L91.2219 30.5574C91.4444 30.7351 91.5901 31.0242 91.6303 31.4641L92.0542 31.4254ZM91.4881 30.2253C91.1572 29.959 90.7022 29.8413 90.1537 29.8413V30.2669C90.648 30.2669 90.9937 30.3738 91.2212 30.5569L91.4881 30.2253ZM90.1537 29.8413C89.7167 29.8413 89.0696 29.8401 88.403 30.0508L88.5313 30.4566C89.1278 30.2681 89.7138 30.2669 90.1537 30.2669V29.8413ZM88.3923 30.0545L88.3722 30.062L88.5219 30.4604L88.542 30.4529L88.3923 30.0545ZM88.3798 30.0593L88.3798 30.0593L88.5144 30.4631L88.5144 30.4631L88.3798 30.0593ZM88.3727 30.0618C88.3416 30.0734 88.289 30.093 88.2331 30.1178L88.406 30.5068C88.4486 30.4878 88.49 30.4723 88.5215 30.4606L88.3727 30.0618ZM88.1463 30.4359C88.2967 30.6467 88.4072 30.9281 88.4072 31.2985H88.8328C88.8328 30.837 88.6933 30.4697 88.4928 30.1887L88.1463 30.4359ZM88.4072 31.2985C88.4072 31.3026 88.4072 31.3067 88.4072 31.3108L88.8328 31.3142C88.8328 31.3089 88.8328 31.3037 88.8328 31.2985H88.4072Z" fill="#0E337D" mask="url(#path-12-outside-2_350_5098)"/>
</svg>
