<svg width="44" height="44" viewBox="0 0 44 44" fill="none" xmlns="http://www.w3.org/2000/svg">
<rect width="44" height="44" rx="22" fill="#0E337D"/>
<mask id="path-2-outside-1_352_5338" maskUnits="userSpaceOnUse" x="7" y="14" width="16" height="17" fill="black">
<rect fill="white" x="7" y="14" width="16" height="17"/>
<path fill-rule="evenodd" clip-rule="evenodd" d="M15.801 30C13.4101 30 11.5122 29.3281 10.1073 27.9843C8.70244 26.6405 8 24.76 8 22.3429C8 20.8159 8.30977 19.4939 8.92932 18.377C9.55759 17.2513 10.3997 16.4092 11.4555 15.8508C12.5201 15.2836 13.7373 15 15.1073 15C17.0445 15 18.5846 15.4319 19.7277 16.2958C20.8796 17.1597 21.4555 18.3944 21.4555 20C21.4555 20.2618 21.4349 20.5141 21.3936 20.7569C21.022 21.0095 20.6861 21.244 20.386 21.4604C19.7911 21.875 19.1377 22.3246 18.4257 22.8093C17.6816 23.3047 17.0521 23.6389 16.5374 23.8119C14.6999 24.4294 12.6562 23.9741 12.011 22.0657C10.9091 24.3936 12.4587 25.7802 13.6297 26.2761C14.7571 26.7559 15.9367 26.7 17.4809 26.181C17.9957 26.008 18.5942 25.7302 19.2765 25.3476C19.8195 25.0086 20.3701 24.656 20.9281 24.2897C20.6992 25.105 20.6359 26.0277 20.8259 27.0492C20.9395 27.6596 21.1122 28.2071 21.3293 28.6972C21.3192 28.7041 21.3089 28.7108 21.2984 28.7173C20.6789 29.1361 19.863 29.4546 18.8508 29.6728C17.8386 29.8909 16.822 30 15.801 30Z"/>
</mask>
<path fill-rule="evenodd" clip-rule="evenodd" d="M15.801 30C13.4101 30 11.5122 29.3281 10.1073 27.9843C8.70244 26.6405 8 24.76 8 22.3429C8 20.8159 8.30977 19.4939 8.92932 18.377C9.55759 17.2513 10.3997 16.4092 11.4555 15.8508C12.5201 15.2836 13.7373 15 15.1073 15C17.0445 15 18.5846 15.4319 19.7277 16.2958C20.8796 17.1597 21.4555 18.3944 21.4555 20C21.4555 20.2618 21.4349 20.5141 21.3936 20.7569C21.022 21.0095 20.6861 21.244 20.386 21.4604C19.7911 21.875 19.1377 22.3246 18.4257 22.8093C17.6816 23.3047 17.0521 23.6389 16.5374 23.8119C14.6999 24.4294 12.6562 23.9741 12.011 22.0657C10.9091 24.3936 12.4587 25.7802 13.6297 26.2761C14.7571 26.7559 15.9367 26.7 17.4809 26.181C17.9957 26.008 18.5942 25.7302 19.2765 25.3476C19.8195 25.0086 20.3701 24.656 20.9281 24.2897C20.6992 25.105 20.6359 26.0277 20.8259 27.0492C20.9395 27.6596 21.1122 28.2071 21.3293 28.6972C21.3192 28.7041 21.3089 28.7108 21.2984 28.7173C20.6789 29.1361 19.863 29.4546 18.8508 29.6728C17.8386 29.8909 16.822 30 15.801 30Z" fill="#F7B9D2"/>
<path d="M10.1073 27.9843L9.5189 28.5995H9.5189L10.1073 27.9843ZM8.92932 18.377L8.18597 17.9621L8.18489 17.964L8.92932 18.377ZM11.4555 15.8508L11.8535 16.6033L11.8558 16.6021L11.4555 15.8508ZM19.7277 16.2958L19.2145 16.975L19.217 16.9768L19.7277 16.2958ZM21.3936 20.7569L21.8721 21.4609L22.1722 21.257L22.2329 20.8994L21.3936 20.7569ZM20.386 21.4604L20.8728 22.1589L20.884 22.1509L20.386 21.4604ZM18.4257 22.8093L18.8975 23.5179L18.9047 23.513L18.4257 22.8093ZM16.5374 23.8119L16.2662 23.005H16.2662L16.5374 23.8119ZM12.011 22.0657L12.8174 21.793L12.1427 19.7975L11.2415 21.7015L12.011 22.0657ZM13.6297 26.2761L13.9631 25.4928L13.9617 25.4922L13.6297 26.2761ZM17.4809 26.181L17.7521 26.988H17.7521L17.4809 26.181ZM19.2765 25.3476L19.6929 26.0901L19.7103 26.0803L19.7272 26.0697L19.2765 25.3476ZM20.9281 24.2897L21.7477 24.5198L22.3624 22.3302L20.461 23.578L20.9281 24.2897ZM20.8259 27.0492L21.6628 26.8935L20.8259 27.0492ZM21.3293 28.6972L21.8119 29.3984L22.3936 28.9981L22.1076 28.3525L21.3293 28.6972ZM21.2984 28.7173L20.8523 27.9923L20.8368 28.0018L20.8216 28.012L21.2984 28.7173ZM18.8508 29.6728L19.0301 30.505L18.8508 29.6728ZM9.5189 28.5995C11.1169 30.1279 13.244 30.8513 15.801 30.8513V29.1487C13.5762 29.1487 11.9076 28.5283 10.6958 27.3691L9.5189 28.5995ZM7.14871 22.3429C7.14871 24.9321 7.90706 27.0577 9.5189 28.5995L10.6958 27.3691C9.49782 26.2233 8.85129 24.5879 8.85129 22.3429H7.14871ZM8.18489 17.964C7.48274 19.2299 7.14871 20.6996 7.14871 22.3429H8.85129C8.85129 20.9321 9.13681 19.7579 9.67375 18.7899L8.18489 17.964ZM11.0575 15.0983C9.84477 15.7397 8.88772 16.7048 8.18598 17.9621L9.67266 18.7919C10.2275 17.7978 10.9545 17.0788 11.8535 16.6033L11.0575 15.0983ZM15.1073 14.1487C13.6169 14.1487 12.2589 14.4582 11.0552 15.0995L11.8558 16.6021C12.7813 16.109 13.8578 15.8513 15.1073 15.8513V14.1487ZM20.241 15.6167C18.9058 14.6076 17.1653 14.1487 15.1073 14.1487V15.8513C16.9237 15.8513 18.2635 16.2563 19.2145 16.975L20.241 15.6167ZM22.3068 20C22.3068 18.1619 21.6316 16.6596 20.2385 15.6148L19.217 16.9768C20.1276 17.6598 20.6042 18.6269 20.6042 20H22.3068ZM22.2329 20.8994C22.2826 20.6067 22.3068 20.3066 22.3068 20H20.6042C20.6042 20.217 20.5871 20.4215 20.5544 20.6143L22.2329 20.8994ZM20.9151 20.0528C20.5382 20.3089 20.1957 20.5481 19.888 20.77L20.884 22.1509C21.1764 21.9399 21.5057 21.71 21.8721 21.4609L20.9151 20.0528ZM19.8992 20.762C19.3074 21.1745 18.6566 21.6224 17.9467 22.1055L18.9047 23.513C19.6189 23.0269 20.2749 22.5755 20.8728 22.1588L19.8992 20.762ZM17.954 22.1007C17.2375 22.5777 16.6792 22.8662 16.2662 23.005L16.8085 24.6189C17.425 24.4117 18.1256 24.0318 18.8975 23.5179L17.954 22.1007ZM16.2662 23.005C15.4867 23.2669 14.7098 23.284 14.0976 23.0789C13.5112 22.8824 13.049 22.4781 12.8174 21.793L11.2045 22.3384C11.6182 23.5618 12.5005 24.3393 13.5566 24.6932C14.5869 25.0384 15.7506 24.9744 16.8085 24.6189L16.2662 23.005ZM11.2415 21.7015C10.5821 23.0946 10.6836 24.317 11.2272 25.2773C11.7427 26.1879 12.598 26.7637 13.2978 27.06L13.9617 25.4922C13.4904 25.2926 12.9854 24.9271 12.7088 24.4385C12.4603 23.9996 12.338 23.3647 12.7804 22.4299L11.2415 21.7015ZM13.2963 27.0593C14.6856 27.6507 16.097 27.5442 17.7521 26.988L17.2098 25.3741C15.7764 25.8558 14.8285 25.8611 13.9631 25.4928L13.2963 27.0593ZM17.7521 26.988C18.3338 26.7925 18.9826 26.4884 19.6929 26.0901L18.86 24.6051C18.2057 24.972 17.6576 25.2236 17.2097 25.3741L17.7521 26.988ZM19.7272 26.0697C20.276 25.7272 20.832 25.3711 21.3952 25.0014L20.461 23.578C19.9082 23.9409 19.3631 24.29 18.8257 24.6254L19.7272 26.0697ZM21.6628 26.8935C21.4967 26.0003 21.5541 25.2096 21.7477 24.5198L20.1085 24.0597C19.8444 25.0005 19.7751 26.0551 19.989 27.2049L21.6628 26.8935ZM22.1076 28.3525C21.9181 27.9246 21.7646 27.4408 21.6628 26.8935L19.989 27.2049C20.1143 27.8784 20.3062 28.4895 20.5509 29.042L22.1076 28.3525ZM21.7446 29.4423C21.7673 29.4283 21.7898 29.4137 21.8119 29.3984L20.8466 27.996C20.8487 27.9946 20.8506 27.9933 20.8523 27.9923L21.7446 29.4423ZM19.0301 30.505C20.1106 30.2721 21.0381 29.9209 21.7752 29.4225L20.8216 28.012C20.3197 28.3514 19.6154 28.6372 18.6714 28.8406L19.0301 30.505ZM15.801 30.8513C16.8831 30.8513 17.9598 30.7356 19.0301 30.505L18.6714 28.8406C17.7173 29.0462 16.7608 29.1487 15.801 29.1487V30.8513Z" fill="#0E337D" mask="url(#path-2-outside-1_352_5338)"/>
<mask id="path-4-outside-2_352_5338" maskUnits="userSpaceOnUse" x="19.2779" y="14" width="18" height="17" fill="black">
<rect fill="white" x="19.2779" y="14" width="18" height="17"/>
<path fill-rule="evenodd" clip-rule="evenodd" d="M22.4794 20.0339C23.0056 19.6895 23.5251 19.3572 24.038 19.037C24.6765 18.6384 25.2371 18.358 25.7197 18.1958C27.3283 17.6553 28.3987 17.8391 29.451 18.2156C30.6451 18.765 32.9045 20.6476 32.1044 22.464C31.4116 21.638 30.4618 21.0168 29.3603 20.7023C29.3076 20.6959 29.2578 20.6898 29.2101 20.6838C28.7006 20.6206 28.4242 20.5863 27.3911 20.6601C26.6351 20.7861 25.8046 21.0783 25.0197 21.5005C24.9923 21.5198 24.9647 21.5393 24.937 21.5591C24.4945 21.8476 24.0816 22.1212 23.6981 22.38C22.5884 23.288 21.782 24.478 21.782 25.7984C21.782 28.5995 23.2916 30 26.3108 30C27.2707 30 28.1738 29.7426 29.0202 29.2277C29.8754 28.7042 30.508 28.0061 30.9181 27.1335C31.0229 26.9066 31.1494 26.815 31.2977 26.8586C31.4461 26.9023 31.5072 27.0506 31.481 27.3037C31.4635 27.5393 31.3937 28.0541 31.2716 28.8482C31.2366 29.075 31.289 29.2757 31.4286 29.4503C31.5682 29.6161 31.7558 29.7208 31.9914 29.7644C32.3492 29.8517 32.8946 29.8953 33.6276 29.8953C34.282 29.8953 34.7663 29.8517 35.0805 29.7644C35.5778 29.6771 35.8265 29.3979 35.8265 28.9267C35.6695 25.3403 35.5168 22.5524 35.3684 20.5628C35.1939 18.6518 34.5438 17.2469 33.4181 16.3482C32.3012 15.4494 30.7 15 28.6145 15C26.8606 15 24.3942 15 21.868 15.7984C21.8456 15.807 21.8187 15.8171 21.7879 15.8285L21.7879 15.8285C21.6627 15.8752 21.4749 15.9453 21.2779 16.0328C21.9795 17.0164 22.4796 18.3139 22.4796 19.9776C22.4796 19.9964 22.4796 20.0151 22.4794 20.0339Z"/>
</mask>
<path fill-rule="evenodd" clip-rule="evenodd" d="M22.4794 20.0339C23.0056 19.6895 23.5251 19.3572 24.038 19.037C24.6765 18.6384 25.2371 18.358 25.7197 18.1958C27.3283 17.6553 28.3987 17.8391 29.451 18.2156C30.6451 18.765 32.9045 20.6476 32.1044 22.464C31.4116 21.638 30.4618 21.0168 29.3603 20.7023C29.3076 20.6959 29.2578 20.6898 29.2101 20.6838C28.7006 20.6206 28.4242 20.5863 27.3911 20.6601C26.6351 20.7861 25.8046 21.0783 25.0197 21.5005C24.9923 21.5198 24.9647 21.5393 24.937 21.5591C24.4945 21.8476 24.0816 22.1212 23.6981 22.38C22.5884 23.288 21.782 24.478 21.782 25.7984C21.782 28.5995 23.2916 30 26.3108 30C27.2707 30 28.1738 29.7426 29.0202 29.2277C29.8754 28.7042 30.508 28.0061 30.9181 27.1335C31.0229 26.9066 31.1494 26.815 31.2977 26.8586C31.4461 26.9023 31.5072 27.0506 31.481 27.3037C31.4635 27.5393 31.3937 28.0541 31.2716 28.8482C31.2366 29.075 31.289 29.2757 31.4286 29.4503C31.5682 29.6161 31.7558 29.7208 31.9914 29.7644C32.3492 29.8517 32.8946 29.8953 33.6276 29.8953C34.282 29.8953 34.7663 29.8517 35.0805 29.7644C35.5778 29.6771 35.8265 29.3979 35.8265 28.9267C35.6695 25.3403 35.5168 22.5524 35.3684 20.5628C35.1939 18.6518 34.5438 17.2469 33.4181 16.3482C32.3012 15.4494 30.7 15 28.6145 15C26.8606 15 24.3942 15 21.868 15.7984C21.8456 15.807 21.8187 15.8171 21.7879 15.8285L21.7879 15.8285C21.6627 15.8752 21.4749 15.9453 21.2779 16.0328C21.9795 17.0164 22.4796 18.3139 22.4796 19.9776C22.4796 19.9964 22.4796 20.0151 22.4794 20.0339Z" fill="#F7B9D2"/>
<path d="M24.038 19.037L23.5872 18.3149L23.5872 18.3149L24.038 19.037ZM22.4794 20.0339L21.6281 20.027L21.6153 21.6169L22.9456 20.7461L22.4794 20.0339ZM25.7197 18.1958L25.4485 17.3889L25.7197 18.1958ZM29.451 18.2156L29.8068 17.4422L29.7729 17.4266L29.7378 17.414L29.451 18.2156ZM32.1044 22.464L31.4521 23.0111L32.3317 24.0597L32.8834 22.8072L32.1044 22.464ZM29.3603 20.7023L29.594 19.8837L29.5293 19.8653L29.4625 19.8572L29.3603 20.7023ZM29.2101 20.6838L29.1052 21.5286L29.1052 21.5286L29.2101 20.6838ZM27.3911 20.6601L27.3304 19.811L27.2906 19.8138L27.2511 19.8204L27.3911 20.6601ZM25.0197 21.5005L24.6165 20.7508L24.5715 20.775L24.5297 20.8044L25.0197 21.5005ZM24.937 21.5591L25.4019 22.2722L25.4167 22.2626L25.4311 22.2523L24.937 21.5591ZM23.6981 22.38L23.222 21.6743L23.1894 21.6963L23.159 21.7211L23.6981 22.38ZM29.0202 29.2277L29.4626 29.9551L29.4647 29.9538L29.0202 29.2277ZM30.9181 27.1335L31.6886 27.4956L31.6911 27.4902L30.9181 27.1335ZM31.2977 26.8586L31.0575 27.6753L31.0575 27.6753L31.2977 26.8586ZM31.481 27.3037L30.6342 27.2161L30.6329 27.2284L30.632 27.2408L31.481 27.3037ZM31.2716 28.8482L30.4302 28.7187L30.4302 28.7187L31.2716 28.8482ZM31.4286 29.4503L30.7639 29.9821L30.7706 29.9904L30.7775 29.9986L31.4286 29.4503ZM31.9914 29.7644L32.1932 28.9374L32.17 28.9317L32.1465 28.9273L31.9914 29.7644ZM35.0805 29.7644L34.9334 28.9259L34.8925 28.9331L34.8526 28.9442L35.0805 29.7644ZM35.8265 28.9267H36.6778V28.9081L36.677 28.8895L35.8265 28.9267ZM35.3684 20.5628L36.2173 20.4995L36.2168 20.4925L36.2162 20.4854L35.3684 20.5628ZM33.4181 16.3482L32.8845 17.0114L32.887 17.0134L33.4181 16.3482ZM21.868 15.7984L21.6115 14.9867L21.5875 14.9943L21.564 15.0033L21.868 15.7984ZM21.7879 15.8285L22.083 16.627L22.0854 16.6261L21.7879 15.8285ZM21.7879 15.8285L21.4928 15.03L21.4904 15.0309L21.7879 15.8285ZM21.2779 16.0328L20.9321 15.2549L19.9793 15.6784L20.5848 16.5272L21.2779 16.0328ZM23.5872 18.3149C23.0689 18.6384 22.5443 18.974 22.0132 19.3216L22.9456 20.7461C23.4669 20.4049 23.9813 20.076 24.4888 19.7592L23.5872 18.3149ZM25.4485 17.3889C24.8807 17.5797 24.258 17.8962 23.5872 18.3149L24.4888 19.7592C25.0951 19.3807 25.5934 19.1363 25.9909 19.0028L25.4485 17.3889ZM29.7378 17.414C28.544 16.987 27.2738 16.7755 25.4485 17.3889L25.9909 19.0028C27.3827 18.535 28.2533 18.6912 29.1642 19.0171L29.7378 17.414ZM32.8834 22.8072C33.4739 21.4668 32.8819 20.196 32.1898 19.3324C31.4872 18.4555 30.5153 17.7682 29.8068 17.4422L29.0952 18.9889C29.5809 19.2124 30.3357 19.7411 30.8612 20.397C31.3974 21.0661 31.535 21.6449 31.3253 22.1209L32.8834 22.8072ZM29.1265 21.5209C30.0675 21.7896 30.8705 22.3177 31.4521 23.0111L32.7566 21.917C31.9526 20.9584 30.856 20.2441 29.594 19.8837L29.1265 21.5209ZM29.4625 19.8572C29.4113 19.851 29.3628 19.845 29.3149 19.839L29.1052 21.5286C29.1528 21.5346 29.2039 21.5409 29.258 21.5474L29.4625 19.8572ZM29.3149 19.839C28.7524 19.7692 28.4205 19.7331 27.3304 19.811L27.4517 21.5092C28.4279 21.4395 28.6488 21.472 29.1052 21.5286L29.3149 19.839ZM27.2511 19.8204C26.3913 19.9637 25.4724 20.2903 24.6165 20.7508L25.423 22.2502C26.1368 21.8662 26.8789 21.6085 27.531 21.4998L27.2511 19.8204ZM25.4311 22.2523C25.4575 22.2335 25.4837 22.2149 25.5097 22.1966L24.5297 20.8044C24.5009 20.8246 24.472 20.8452 24.4428 20.8659L25.4311 22.2523ZM24.1743 23.0856C24.5536 22.8297 24.9628 22.5586 25.4019 22.2722L24.472 20.8461C24.0263 21.1367 23.6096 21.4127 23.222 21.6743L24.1743 23.0856ZM23.159 21.7211C21.9486 22.7116 20.9307 24.1195 20.9307 25.7984H22.6333C22.6333 24.8366 23.2282 23.8645 24.2372 23.0388L23.159 21.7211ZM20.9307 25.7984C20.9307 27.3472 21.3511 28.6606 22.3352 29.5737C23.3074 30.4756 24.6852 30.8513 26.3108 30.8513V29.1487C24.9172 29.1487 24.0307 28.8242 23.4932 28.3255C22.9678 27.8381 22.6333 27.0507 22.6333 25.7984H20.9307ZM26.3108 30.8513C27.4319 30.8513 28.4874 30.5482 29.4626 29.9551L28.5779 28.5004C27.8603 28.9369 27.1095 29.1487 26.3108 29.1487V30.8513ZM29.4647 29.9538C30.4558 29.347 31.2048 28.525 31.6886 27.4956L30.1477 26.7714C29.8113 27.4872 29.295 28.0614 28.5757 28.5017L29.4647 29.9538ZM31.6911 27.4902C31.7153 27.4378 31.6965 27.5077 31.5909 27.5841C31.5304 27.6279 31.4446 27.6711 31.337 27.6899C31.2291 27.7087 31.1322 27.6973 31.0575 27.6753L31.5379 26.0419C31.2078 25.9448 30.8665 26.0066 30.5923 26.2051C30.3602 26.3732 30.2257 26.6023 30.1452 26.7768L31.6911 27.4902ZM31.0575 27.6753C30.9812 27.6529 30.8953 27.6099 30.8174 27.5385C30.7403 27.4678 30.6937 27.3901 30.6676 27.3267C30.622 27.216 30.6405 27.1557 30.6342 27.2161L32.3277 27.3913C32.3477 27.1985 32.3486 26.9376 32.242 26.6785C32.1174 26.3761 31.8702 26.1397 31.5379 26.0419L31.0575 27.6753ZM30.632 27.2408C30.6175 27.4364 30.5537 27.916 30.4302 28.7187L32.1129 28.9776C32.2338 28.1922 32.3095 27.6421 32.3299 27.3666L30.632 27.2408ZM30.4302 28.7187C30.3602 29.1738 30.471 29.6159 30.7639 29.9821L32.0934 28.9185C32.0921 28.9169 32.0945 28.9196 32.0981 28.9267C32.1018 28.934 32.1056 28.9433 32.1084 28.954C32.1111 28.9645 32.1121 28.9732 32.1123 28.9787C32.1125 28.984 32.112 28.9839 32.1129 28.9776L30.4302 28.7187ZM30.7775 29.9986C31.0576 30.3313 31.4288 30.526 31.8364 30.6015L32.1465 28.9273C32.1094 28.9205 32.093 28.9121 32.0889 28.9098C32.0858 28.9081 32.0839 28.9068 32.0798 28.9019L30.7775 29.9986ZM31.7897 30.5914C32.2504 30.7038 32.8796 30.7466 33.6276 30.7466V29.044C32.9096 29.044 32.448 28.9995 32.1932 28.9374L31.7897 30.5914ZM33.6276 30.7466C34.298 30.7466 34.8781 30.7041 35.3083 30.5846L34.8526 28.9442C34.6546 28.9992 34.266 29.044 33.6276 29.044V30.7466ZM35.2276 30.6029C35.5993 30.5377 35.9855 30.3816 36.2757 30.0557C36.5723 29.7228 36.6778 29.3148 36.6778 28.9267H34.9752C34.9752 28.9705 34.9694 28.9836 34.9718 28.9763C34.9731 28.9725 34.9762 28.9646 34.982 28.9543C34.988 28.9438 34.9955 28.9332 35.0043 28.9233C35.013 28.9135 35.0211 28.9066 35.027 28.9022C35.0327 28.8979 35.0349 28.8972 35.0315 28.8989C35.024 28.9026 34.9949 28.9151 34.9334 28.9259L35.2276 30.6029ZM36.677 28.8895C36.5198 25.3 36.3666 22.502 36.2173 20.4995L34.5195 20.6261C34.6669 22.6027 34.8191 25.3806 34.9761 28.9639L36.677 28.8895ZM36.2162 20.4854C36.0279 18.4233 35.3104 16.7697 33.9493 15.6829L32.887 17.0134C33.7772 17.7242 34.3599 18.8804 34.5207 20.6402L36.2162 20.4854ZM33.9518 15.6849C32.6282 14.6199 30.8085 14.1487 28.6145 14.1487V15.8513C30.5915 15.8513 31.9742 16.2789 32.8845 17.0114L33.9518 15.6849ZM28.6145 14.1487C26.8665 14.1487 24.2778 14.144 21.6115 14.9867L22.1246 16.6101C24.5106 15.856 26.8546 15.8513 28.6145 15.8513V14.1487ZM21.564 15.0033C21.5456 15.0103 21.5222 15.019 21.4904 15.0309L22.0854 16.6261C22.1151 16.6151 22.1457 16.6036 22.1721 16.5936L21.564 15.0033ZM21.4928 15.03L21.4928 15.03L22.083 16.627L22.083 16.627L21.4928 15.03ZM21.4904 15.0309C21.3658 15.0774 21.1556 15.1556 20.9321 15.2549L21.6236 16.8108C21.7941 16.735 21.9597 16.673 22.0854 16.6261L21.4904 15.0309ZM20.5848 16.5272C21.1864 17.3705 21.6283 18.496 21.6283 19.9776H23.3309C23.3309 18.1318 22.7726 16.6623 21.9709 15.5385L20.5848 16.5272ZM21.6283 19.9776C21.6283 19.9941 21.6283 20.0106 21.6281 20.027L23.3307 20.0407C23.3308 20.0197 23.3309 19.9987 23.3309 19.9776H21.6283Z" fill="#0E337D" mask="url(#path-4-outside-2_352_5338)"/>
</svg>
