<svg width="1440" height="733" viewBox="0 0 1440 733" fill="none" xmlns="http://www.w3.org/2000/svg">
<g clip-path="url(#clip0_48_54550)">
<rect width="1440" height="733" fill="#F7B9D2"/>
<g opacity="0.4">
<line x1="1440" y1="15.5001" x2="-2" y2="15.5001" stroke="#EADDCB"/>
<line x1="1440" y1="47.5001" x2="-2" y2="47.5001" stroke="#EADDCB"/>
<line x1="1440" y1="79.5002" x2="-2" y2="79.5002" stroke="#EADDCB"/>
<line x1="1440" y1="111.5" x2="-2" y2="111.5" stroke="#EADDCB"/>
<line x1="1440" y1="143.5" x2="-2" y2="143.5" stroke="#EADDCB"/>
<line x1="1440" y1="175.5" x2="-2" y2="175.5" stroke="#EADDCB"/>
<line x1="1440" y1="207.5" x2="-2" y2="207.5" stroke="#EADDCB"/>
<line x1="1440" y1="239.5" x2="-2" y2="239.5" stroke="#EADDCB"/>
<line x1="1440" y1="271.5" x2="-2" y2="271.5" stroke="#EADDCB"/>
<line x1="1440" y1="303.5" x2="-2" y2="303.5" stroke="#EADDCB"/>
<line x1="1440" y1="335.5" x2="-2" y2="335.5" stroke="#EADDCB"/>
<line x1="1440" y1="367.5" x2="-2" y2="367.5" stroke="#EADDCB"/>
<line x1="1440" y1="399.501" x2="-2" y2="399.501" stroke="#EADDCB"/>
<line x1="1440" y1="431.501" x2="-2" y2="431.501" stroke="#EADDCB"/>
<line x1="1440" y1="463.501" x2="-2" y2="463.501" stroke="#EADDCB"/>
<line x1="1440" y1="495.501" x2="-2" y2="495.501" stroke="#EADDCB"/>
<line x1="1440" y1="527.501" x2="-2" y2="527.501" stroke="#EADDCB"/>
<line x1="1440" y1="559.501" x2="-2" y2="559.501" stroke="#EADDCB"/>
<line x1="1440" y1="591.501" x2="-2" y2="591.501" stroke="#EADDCB"/>
<line x1="1440" y1="623.501" x2="-2" y2="623.501" stroke="#EADDCB"/>
<line x1="1440" y1="655.501" x2="-2" y2="655.501" stroke="#EADDCB"/>
<line x1="1440" y1="687.501" x2="-2" y2="687.501" stroke="#EADDCB"/>
<line x1="1440" y1="719.501" x2="-2" y2="719.501" stroke="#EADDCB"/>
<line x1="1423.5" y1="795" x2="1423.5" y2="0.000122006" stroke="#EADDCB"/>
<line x1="1391.5" y1="795" x2="1391.5" y2="0.000122027" stroke="#EADDCB"/>
<line x1="1359.5" y1="795" x2="1359.5" y2="0.000122027" stroke="#EADDCB"/>
<line x1="1327.5" y1="795" x2="1327.5" y2="0.000122027" stroke="#EADDCB"/>
<line x1="1295.5" y1="795" x2="1295.5" y2="0.000122027" stroke="#EADDCB"/>
<line x1="1263.5" y1="795" x2="1263.5" y2="0.000122027" stroke="#EADDCB"/>
<line x1="1231.5" y1="795" x2="1231.5" y2="0.000122027" stroke="#EADDCB"/>
<line x1="1199.5" y1="795" x2="1199.5" y2="0.000122027" stroke="#EADDCB"/>
<line x1="1167.5" y1="795" x2="1167.5" y2="0.000122027" stroke="#EADDCB"/>
<line x1="1135.5" y1="795" x2="1135.5" y2="0.000122027" stroke="#EADDCB"/>
<line x1="1103.5" y1="795" x2="1103.5" y2="0.000122027" stroke="#EADDCB"/>
<line x1="1071.5" y1="795" x2="1071.5" y2="6.09914e-05" stroke="#EADDCB"/>
<line x1="1039.5" y1="795" x2="1039.5" y2="6.09914e-05" stroke="#EADDCB"/>
<line x1="1007.5" y1="795" x2="1007.5" y2="6.09914e-05" stroke="#EADDCB"/>
<line x1="975.5" y1="795" x2="975.5" y2="6.09914e-05" stroke="#EADDCB"/>
<line x1="943.5" y1="795" x2="943.5" y2="6.09914e-05" stroke="#EADDCB"/>
<line x1="911.5" y1="795" x2="911.5" y2="6.09914e-05" stroke="#EADDCB"/>
<line x1="879.5" y1="795" x2="879.5" y2="6.09914e-05" stroke="#EADDCB"/>
<line x1="847.5" y1="795" x2="847.5" y2="6.09914e-05" stroke="#EADDCB"/>
<line x1="815.5" y1="795" x2="815.5" y2="6.09914e-05" stroke="#EADDCB"/>
<line x1="783.5" y1="795" x2="783.5" y2="6.09914e-05" stroke="#EADDCB"/>
<line x1="751.5" y1="795" x2="751.5" y2="6.09914e-05" stroke="#EADDCB"/>
<line x1="719.5" y1="795" x2="719.5" y2="6.09914e-05" stroke="#EADDCB"/>
<line x1="687.5" y1="795" x2="687.5" y2="6.09914e-05" stroke="#EADDCB"/>
<line x1="655.5" y1="795" x2="655.5" y2="6.09914e-05" stroke="#EADDCB"/>
<line x1="623.5" y1="795" x2="623.5" y2="6.09914e-05" stroke="#EADDCB"/>
<line x1="591.5" y1="795" x2="591.5" y2="6.09708e-05" stroke="#EADDCB"/>
<line x1="559.5" y1="795" x2="559.5" y2="6.09708e-05" stroke="#EADDCB"/>
<line x1="527.5" y1="795" x2="527.5" y2="6.09708e-05" stroke="#EADDCB"/>
<line x1="495.5" y1="795" x2="495.5" y2="6.09708e-05" stroke="#EADDCB"/>
<line x1="463.5" y1="795" x2="463.5" y2="6.09708e-05" stroke="#EADDCB"/>
<line x1="431.5" y1="795" x2="431.5" y2="6.09708e-05" stroke="#EADDCB"/>
<line x1="399.5" y1="795" x2="399.5" y2="6.09708e-05" stroke="#EADDCB"/>
<line x1="367.5" y1="795" x2="367.5" y2="-6.43124e-08" stroke="#EADDCB"/>
<line x1="335.5" y1="795" x2="335.5" y2="-6.43124e-08" stroke="#EADDCB"/>
<line x1="303.5" y1="795" x2="303.5" y2="-6.43124e-08" stroke="#EADDCB"/>
<line x1="271.5" y1="795" x2="271.5" y2="-6.43124e-08" stroke="#EADDCB"/>
<line x1="239.5" y1="795" x2="239.5" y2="-6.43124e-08" stroke="#EADDCB"/>
<line x1="207.5" y1="795" x2="207.5" y2="-6.43124e-08" stroke="#EADDCB"/>
<line x1="175.5" y1="795" x2="175.5" y2="-6.43124e-08" stroke="#EADDCB"/>
<line x1="143.5" y1="795" x2="143.5" y2="-6.43124e-08" stroke="#EADDCB"/>
<line x1="111.5" y1="795" x2="111.5" y2="-6.43124e-08" stroke="#EADDCB"/>
<line x1="79.4995" y1="795" x2="79.4996" y2="-6.43124e-08" stroke="#EADDCB"/>
<line x1="47.4995" y1="795" x2="47.4996" y2="-6.43124e-08" stroke="#EADDCB"/>
<line x1="15.4995" y1="795" x2="15.4996" y2="-6.43124e-08" stroke="#EADDCB"/>
</g>
</g>
<defs>
<clipPath id="clip0_48_54550">
<rect width="1440" height="733" fill="white"/>
</clipPath>
</defs>
</svg>
