<svg width="457" height="98" viewBox="0 0 457 98" fill="none" xmlns="http://www.w3.org/2000/svg">
<path fill-rule="evenodd" clip-rule="evenodd" d="M440.133 96.7477C441.362 96.8172 442.742 96.852 444.275 96.852C447.09 96.852 449.58 96.7221 451.745 96.4622C453.824 95.9859 454.798 94.7084 454.668 92.6297C453.759 79.7681 453.52 64.7412 453.954 47.5491C454.43 30.3136 455.383 15.9363 456.812 4.41713C456.942 3.42111 456.725 2.555 456.162 1.81882C455.599 1.08263 454.841 0.649577 453.889 0.519662C452.2 0.173221 449.45 0 445.639 0C442.781 0 440.507 0.173221 438.818 0.519662C436.87 0.822798 435.765 1.94873 435.506 3.89746C434.907 11.2417 434.434 20.6969 434.086 32.2631C437.147 37.0222 438.904 42.8873 439.52 49.6332L439.523 49.6683L439.526 49.7033C440.267 59.641 441.027 73.5272 441.807 91.3406L441.811 91.433V91.5254C441.811 93.3061 441.364 95.1707 440.133 96.7477Z" fill="#F7B9D2"/>
<path fill-rule="evenodd" clip-rule="evenodd" d="M308.449 84.3558C308.297 77.5206 307.985 68.1234 307.513 56.187L307.513 56.1807C307.264 50.1084 306.33 44.6001 304.637 39.733C304.737 39.544 304.839 39.3562 304.943 39.1695C308.061 33.5831 312.24 29.4042 317.479 26.6327C322.763 23.8178 328.804 22.4104 335.603 22.4104C345.216 22.4104 352.86 24.554 358.533 28.8412C364.249 33.1284 367.107 39.2561 367.107 47.2243C367.107 48.5234 367.005 49.7755 366.8 50.9803C364.956 52.234 363.289 53.3979 361.799 54.472C358.847 56.5295 355.605 58.7609 352.071 61.166C348.378 63.6247 345.254 65.2834 342.7 66.1419C333.581 69.2064 323.438 66.947 320.236 57.4758C314.768 69.0288 322.458 75.91 328.27 78.3709C333.864 80.7524 339.719 80.4747 347.382 77.8992C349.937 77.0407 352.907 75.662 356.293 73.7631C358.988 72.0806 361.721 70.3307 364.49 68.5132C363.354 72.5593 363.04 77.1384 363.983 82.2079C364.546 85.237 365.403 87.9541 366.481 90.3865C366.431 90.4208 366.38 90.454 366.328 90.4861C363.253 92.5648 359.204 94.1454 354.181 95.228C349.157 96.3106 344.112 96.852 339.045 96.852C327.18 96.852 317.761 93.5175 310.789 86.8485C309.96 86.0553 309.18 85.2244 308.449 84.3558Z" fill="#F7B9D2"/>
<path fill-rule="evenodd" clip-rule="evenodd" d="M372.072 47.3922C374.684 45.683 377.262 44.034 379.807 42.4452C382.976 40.467 385.758 39.0755 388.153 38.2706C396.136 35.5878 401.448 36.5001 406.671 38.3685C412.597 41.0953 423.81 50.4383 419.839 59.4526C416.401 55.3534 411.687 52.2706 406.221 50.7097C405.959 50.6781 405.712 50.6474 405.475 50.618C402.947 50.3042 401.575 50.134 396.448 50.5002C392.696 51.1255 388.574 52.5758 384.679 54.6712C384.543 54.7668 384.406 54.8636 384.269 54.9618C382.073 56.3933 380.024 57.7509 378.122 59.0347C372.614 63.5414 368.611 69.4474 368.611 76.0005C368.611 89.9015 376.103 96.852 391.087 96.852C395.85 96.852 400.333 95.5745 404.533 93.0195C408.777 90.4212 411.917 86.9567 413.952 82.6262C414.472 81.5003 415.1 81.0456 415.836 81.2621C416.572 81.4786 416.875 82.2148 416.745 83.4707C416.659 84.6399 416.312 87.1949 415.706 91.1357C415.533 92.2616 415.793 93.2576 416.485 94.1237C417.178 94.9465 418.109 95.4662 419.279 95.6827C421.054 96.1158 423.761 96.3323 427.398 96.3323C430.646 96.3323 433.05 96.1158 434.609 95.6827C437.077 95.2497 438.311 93.8639 438.311 91.5254C437.532 73.727 436.774 59.891 436.038 50.0174C435.172 40.5336 431.945 33.5615 426.359 29.101C420.816 24.6406 412.869 22.4104 402.519 22.4104C393.815 22.4104 381.575 22.4104 369.038 26.3728C368.927 26.4153 368.793 26.4652 368.641 26.5222L368.64 26.5222C368.019 26.7539 367.087 27.1017 366.109 27.5362C369.591 32.4175 372.073 38.8567 372.073 47.1129C372.073 47.2062 372.073 47.2993 372.072 47.3922Z" fill="#F7B9D2"/>
<path fill-rule="evenodd" clip-rule="evenodd" d="M199.458 96.7798C200.458 96.8279 201.587 96.852 202.845 96.852C205.617 96.852 207.955 96.6787 209.861 96.3323C210.77 96.1158 211.485 95.7044 212.004 95.0981C212.567 94.4485 212.827 93.6257 212.784 92.6297C212.264 81.6302 212.177 71.4751 212.524 62.1645C212.697 55.7121 213.975 50.602 216.356 46.8345C218.781 43.0236 221.813 41.1182 225.45 41.1182C229.391 41.1182 232.552 42.8937 234.934 46.4448C237.359 49.9525 238.594 54.7377 238.637 60.8004C238.767 69.8512 238.529 80.461 237.922 92.6297C237.879 93.6257 238.161 94.4485 238.767 95.0981C239.373 95.7044 240.131 96.1158 241.04 96.3323C242.816 96.6787 245.652 96.852 249.55 96.852C251.975 96.852 254.14 96.6787 256.046 96.3323C258.384 95.8559 259.445 94.5784 259.228 92.4998C258.622 83.2758 258.319 73.0774 258.319 61.9047C258.319 55.5821 259.532 50.5371 261.957 46.7695C264.425 43.002 267.456 41.1182 271.051 41.1182C274.992 41.1182 278.153 42.8937 280.535 46.4448C282.96 49.9525 284.194 54.7377 284.237 60.8004C284.41 71.237 284.151 81.8467 283.458 92.6297C283.328 94.5784 284.389 95.8126 286.641 96.3323C288.33 96.6787 291.123 96.852 295.02 96.852C297.229 96.852 299.351 96.6787 301.386 96.3323C303.421 95.8992 304.439 94.6217 304.439 92.4998C304.439 86.0906 304.093 74.1167 303.4 56.5782C302.967 46.0117 300.368 37.7621 295.605 31.8293C290.885 25.8965 285.06 22.9301 278.131 22.9301C273.671 22.9301 269.708 23.9044 266.244 25.8532C262.823 27.8019 260.138 30.4868 258.189 33.9079C256.327 37.7188 254.552 37.6755 252.863 33.778C251.044 30.1837 248.51 27.4771 245.263 25.6583C242.015 23.8395 238.334 22.9301 234.22 22.9301C230.452 22.9301 226.858 24.056 223.437 26.3079C220.016 28.5597 217.396 31.5911 215.577 35.4019C214.927 36.831 214.299 37.4589 213.693 37.2857C213.087 37.0692 212.784 36.1814 212.784 34.6224C212.784 34.0595 212.849 33.4316 212.979 32.7387C213.108 32.0025 213.282 31.0931 213.498 30.0104C213.715 28.8845 213.888 27.9751 214.018 27.2822C214.278 25.55 213.347 24.4457 211.225 23.9694C209.666 23.6229 207.306 23.4497 204.144 23.4497C201.329 23.4497 199.078 23.6229 197.389 23.9694C195.7 24.2292 194.725 25.3335 194.466 27.2822C194.313 29.2971 194.172 31.286 194.042 33.249C196.731 37.8237 198.296 43.3459 198.87 49.6332L198.873 49.6683L198.876 49.7033C199.617 59.641 200.377 73.5272 201.157 91.3406L201.161 91.433V91.5254C201.161 93.3182 200.707 95.1961 199.458 96.7798Z" fill="#F7B9D2"/>
<path fill-rule="evenodd" clip-rule="evenodd" d="M66.2452 83.2755C67.1826 84.4795 68.2093 85.6153 69.3254 86.6828C76.2975 93.3518 85.7164 96.6863 97.582 96.6863C102.649 96.6863 107.694 96.145 112.717 95.0624C117.741 93.9797 121.79 92.3991 124.864 90.3205C124.916 90.2883 124.967 90.2551 125.017 90.2208C123.94 87.7884 123.083 85.0713 122.519 82.0423C121.576 76.9727 121.89 72.3937 123.026 68.3476C120.257 70.165 117.525 71.915 114.83 73.5974C111.444 75.4963 108.473 76.875 105.919 77.7335C98.2551 80.3091 92.401 80.5868 86.8062 78.2052C80.9946 75.7444 73.3045 68.8631 78.7728 57.3101C81.9749 66.7813 92.1174 69.0407 101.236 65.9762C103.791 65.1177 106.915 63.4591 110.608 61.0003C114.141 58.5952 117.384 56.3639 120.336 54.3064C121.825 53.2322 123.492 52.0683 125.337 50.8147C125.541 49.6098 125.644 48.3578 125.644 47.0586C125.644 39.0905 122.786 32.9628 117.069 28.6756C111.396 24.3884 103.753 22.2448 94.1392 22.2448C87.3403 22.2448 81.2993 23.6522 76.016 26.467C70.7761 29.2385 66.5972 33.4175 63.4792 39.0038C60.4045 44.5469 58.8672 51.1076 58.8672 58.686C58.8672 63.1244 59.3444 67.1982 60.299 70.9074C60.9578 71.0418 61.5835 71.2726 62.1625 71.5741C63.5689 72.2731 64.7015 73.3742 65.4217 74.8145C66.1113 76.1937 66.3159 77.6648 66.2899 79.0226C66.2895 80.1193 66.2744 81.5391 66.2452 83.2755Z" fill="#F7B9D2"/>
<path fill-rule="evenodd" clip-rule="evenodd" d="M130.925 47.948C133.536 46.2388 136.114 44.5898 138.66 43.001C141.829 41.0228 144.611 39.6313 147.006 38.8264C154.989 36.1436 160.301 37.0559 165.523 38.9243C171.449 41.6511 182.662 50.9941 178.691 60.0084C175.253 55.9092 170.54 52.8264 165.073 51.2655C164.812 51.2339 164.565 51.2032 164.328 51.1738C161.799 50.86 160.428 50.6897 155.3 51.056C151.548 51.6813 147.427 53.1316 143.531 55.227C143.396 55.3226 143.259 55.4194 143.121 55.5176C140.926 56.9491 138.877 58.3067 136.974 59.5905C131.466 64.0972 127.464 70.0032 127.464 76.5563C127.464 90.4573 134.956 97.4077 149.939 97.4077C154.703 97.4077 159.185 96.1302 163.386 93.5752C167.63 90.9769 170.769 87.5125 172.805 83.182C173.324 82.0561 173.952 81.6014 174.688 81.8179C175.425 82.0344 175.728 82.7706 175.598 84.0265C175.511 85.1957 175.165 87.7507 174.558 91.6915C174.385 92.8174 174.645 93.8134 175.338 94.6795C176.031 95.5023 176.962 96.022 178.131 96.2385C179.907 96.6716 182.613 96.8881 186.251 96.8881C189.499 96.8881 191.902 96.6716 193.461 96.2385C195.93 95.8055 197.164 94.4197 197.164 92.0812C196.384 74.2828 195.626 60.4468 194.89 50.5732C194.024 41.0894 190.798 34.1173 185.212 29.6568C179.668 25.1964 171.722 22.9662 161.372 22.9662C152.668 22.9662 140.428 22.9662 127.891 26.9286C127.78 26.9711 127.646 27.021 127.493 27.078L127.493 27.078C126.872 27.3097 125.94 27.6574 124.962 28.0919C128.444 32.9733 130.926 39.4125 130.926 47.6687C130.926 47.762 130.926 47.8551 130.925 47.948Z" fill="#F7B9D2"/>
<path d="M38.9749 96.8519C31.8295 96.8519 25.9617 94.7949 21.3713 90.6809C16.8243 86.5236 14.5291 80.6558 14.4858 73.0774C14.4858 59.5662 14.9189 48.2635 15.785 39.1694C15.8283 38.5632 15.5901 38.0218 15.0704 37.5455C14.5508 37.0258 13.9878 36.766 13.3815 36.766C8.96441 36.766 5.69487 36.8093 3.57292 36.8959C2.5769 36.9392 1.73245 36.6144 1.03957 35.9215C0.346685 35.1854 0.000244141 34.2976 0.000244141 33.2583V27.0223C0.000244141 26.0263 0.346685 25.1819 1.03957 24.489C1.73245 23.7961 2.5769 23.4497 3.57292 23.4497H13.3815C14.1177 23.4497 14.7023 23.2115 15.1354 22.7351C15.5684 22.2588 15.785 21.6525 15.785 20.9163C15.785 16.9755 15.9582 13.4678 16.3046 10.3932C16.5645 8.18459 17.6904 6.95039 19.6824 6.69056C21.7178 6.34412 23.9263 6.1709 26.3081 6.1709C28.6899 6.1709 30.8985 6.34412 32.9338 6.69056C33.8865 6.82048 34.6877 7.23188 35.3372 7.92476C36.0301 8.57433 36.3116 9.39713 36.1817 10.3932C36.1384 10.9128 35.9868 12.4285 35.727 14.9402C35.4672 17.4086 35.3372 19.3573 35.3372 20.7864C35.3372 21.5659 35.5754 22.2155 36.0518 22.7351C36.5281 23.2115 37.0911 23.4497 37.7407 23.4497C43.2404 23.4497 49.7146 23.363 57.163 23.1898C58.1591 23.1898 59.0035 23.5363 59.6964 24.2292C60.4326 24.922 60.8007 25.7665 60.8007 26.7625V33.9728C60.8007 35.0121 60.4326 35.8999 59.6964 36.6361C59.0035 37.3723 58.1591 37.6754 57.163 37.5455C55.3442 37.329 52.4428 37.1557 48.4587 37.0258C44.4746 36.8959 41.5732 36.8526 39.7544 36.8959C36.5065 36.8959 34.6877 38.5415 34.2979 41.8327C33.6483 49.4544 33.5184 58.9382 33.9082 70.2842C34.0814 73.5754 34.9908 76.0005 36.6364 77.5595C38.3253 79.0751 40.5555 79.833 43.327 79.833C44.9726 79.833 47.3977 79.4216 50.6023 78.5988C53.8502 77.776 56.0371 76.9532 57.163 76.1304C58.289 74.9178 59.4582 74.6364 60.6708 75.2859C61.9266 75.8922 62.5329 77.1047 62.4896 78.9236C62.4896 80.2227 62.4679 82.0199 62.4246 84.3151C62.3813 86.5669 62.3597 88.2775 62.3597 89.4467C62.2297 91.4388 61.4286 92.8029 59.9562 93.539C57.7044 94.5784 54.4565 95.3795 50.2126 95.9425C45.9687 96.5488 42.2228 96.8519 38.9749 96.8519Z" fill="#F7B9D2"/>
</svg>
