<svg width="151" height="33" viewBox="0 0 151 33" fill="none" xmlns="http://www.w3.org/2000/svg">
<path fill-rule="evenodd" clip-rule="evenodd" d="M145.42 31.9656C145.826 31.9885 146.282 32 146.789 32C147.719 32 148.542 31.9571 149.257 31.8712C149.944 31.7138 150.266 31.2918 150.223 30.605C149.922 26.3555 149.844 21.3906 149.987 15.7103C150.144 10.0157 150.459 5.26537 150.931 1.45942C150.974 1.13034 150.902 0.844176 150.716 0.600939C150.53 0.357702 150.28 0.214621 149.965 0.171697C149.407 0.0572323 148.499 0 147.239 0C146.295 0 145.544 0.0572323 144.986 0.171697C144.342 0.271853 143.977 0.643863 143.891 1.28773C143.694 3.71427 143.537 6.83828 143.422 10.6598C144.434 12.2322 145.014 14.17 145.218 16.3989L145.219 16.4104L145.22 16.422C145.465 19.7055 145.716 24.2935 145.974 30.179L145.975 30.2096V30.2401C145.975 30.8285 145.827 31.4445 145.42 31.9656Z" fill="#0E337D"/>
<path fill-rule="evenodd" clip-rule="evenodd" d="M101.912 27.8713C101.862 25.6129 101.758 22.5081 101.603 18.5642L101.602 18.5622C101.52 16.5559 101.212 14.7359 100.652 13.1278C100.685 13.0653 100.719 13.0033 100.753 12.9416C101.783 11.0959 103.164 9.71518 104.895 8.79946C106.641 7.86943 108.637 7.40442 110.883 7.40442C114.06 7.40442 116.585 8.11267 118.459 9.52917C120.348 10.9457 121.292 12.9703 121.292 15.6029C121.292 16.0322 121.259 16.4459 121.191 16.844C120.582 17.2582 120.031 17.6427 119.539 17.9976C118.563 18.6774 117.492 19.4147 116.325 20.2093C115.104 21.0217 114.072 21.5697 113.228 21.8534C110.215 22.8659 106.864 22.1194 105.806 18.9901C103.999 22.8072 106.54 25.0808 108.461 25.8938C110.309 26.6807 112.243 26.5889 114.775 25.738C115.619 25.4543 116.601 24.9988 117.719 24.3714C118.61 23.8155 119.513 23.2373 120.428 22.6368C120.052 23.9737 119.948 25.4866 120.26 27.1616C120.446 28.1624 120.729 29.0601 121.085 29.8638C121.069 29.8751 121.052 29.8861 121.035 29.8967C120.019 30.5835 118.681 31.1057 117.021 31.4634C115.362 31.8211 113.695 32 112.021 32C108.1 32 104.988 30.8983 102.685 28.6948C102.411 28.4328 102.153 28.1583 101.912 27.8713Z" fill="#0E337D"/>
<path fill-rule="evenodd" clip-rule="evenodd" d="M122.933 15.6584C123.796 15.0937 124.647 14.5489 125.488 14.0239C126.535 13.3703 127.455 12.9106 128.246 12.6447C130.884 11.7582 132.639 12.0597 134.364 12.677C136.322 13.5779 140.027 16.6649 138.715 19.6432C137.579 18.2888 136.022 17.2703 134.215 16.7545C134.129 16.7441 134.047 16.734 133.969 16.7242C133.134 16.6206 132.681 16.5643 130.987 16.6853C129.747 16.8919 128.385 17.3711 127.098 18.0634C127.053 18.095 127.008 18.127 126.962 18.1594C126.237 18.6324 125.56 19.081 124.931 19.5051C123.112 20.9942 121.789 22.9455 121.789 25.1107C121.789 29.7036 124.265 32 129.215 32C130.789 32 132.27 31.5779 133.658 30.7337C135.06 29.8752 136.097 28.7306 136.77 27.2998C136.942 26.9278 137.149 26.7775 137.392 26.8491C137.636 26.9206 137.736 27.1639 137.693 27.5788C137.664 27.9651 137.55 28.8093 137.349 30.1113C137.292 30.4833 137.378 30.8124 137.607 31.0986C137.836 31.3704 138.143 31.5421 138.53 31.6137C139.116 31.7568 140.011 31.8283 141.213 31.8283C142.286 31.8283 143.08 31.7568 143.595 31.6137C144.41 31.4706 144.818 31.0127 144.818 30.2401C144.561 24.3595 144.31 19.7881 144.067 16.5258C143.781 13.3923 142.715 11.0887 140.869 9.61502C139.038 8.14128 136.412 7.40442 132.993 7.40442C130.117 7.40442 126.073 7.40442 121.93 8.71361C121.894 8.72764 121.849 8.74414 121.799 8.76296L121.799 8.76297C121.594 8.8395 121.286 8.95442 120.963 9.09797C122.113 10.7108 122.933 12.8383 122.933 15.5661C122.933 15.597 122.933 15.6278 122.933 15.6584Z" fill="#0E337D"/>
<path fill-rule="evenodd" clip-rule="evenodd" d="M65.901 31.9762C66.2314 31.9921 66.6044 32 67.0202 32C67.9359 32 68.7085 31.9428 69.3381 31.8283C69.6385 31.7568 69.8746 31.6208 70.0463 31.4205C70.2323 31.2059 70.3182 30.934 70.3039 30.605C70.1322 26.9707 70.1036 23.6155 70.218 20.5392C70.2753 18.4073 70.6973 16.719 71.4843 15.4742C72.2855 14.2151 73.2871 13.5855 74.489 13.5855C75.791 13.5855 76.8355 14.1721 77.6225 15.3454C78.4237 16.5044 78.8315 18.0854 78.8458 20.0885C78.8887 23.0789 78.81 26.5844 78.6097 30.605C78.5954 30.934 78.6884 31.2059 78.8887 31.4205C79.089 31.6208 79.3394 31.7568 79.6399 31.8283C80.2265 31.9428 81.1637 32 82.4514 32C83.2527 32 83.9681 31.9428 84.5976 31.8283C85.3703 31.6709 85.7208 31.2488 85.6493 30.562C85.449 27.5144 85.3488 24.1449 85.3488 20.4534C85.3488 18.3644 85.7494 16.6975 86.5507 15.4527C87.3662 14.2079 88.3678 13.5855 89.5554 13.5855C90.8574 13.5855 91.9019 14.1721 92.6889 15.3454C93.4901 16.5044 93.8979 18.0854 93.9122 20.0885C93.9694 23.5368 93.8836 27.0422 93.6547 30.605C93.6117 31.2488 93.9623 31.6566 94.7063 31.8283C95.2643 31.9428 96.1872 32 97.4749 32C98.2046 32 98.9057 31.9428 99.5782 31.8283C100.251 31.6852 100.587 31.2631 100.587 30.562C100.587 28.4444 100.472 24.4883 100.244 18.6935C100.1 15.2023 99.2419 12.4766 97.6681 10.5164C96.1085 8.55622 94.184 7.57612 91.8948 7.57612C90.421 7.57612 89.1118 7.89805 87.9672 8.54191C86.8368 9.18577 85.9498 10.0729 85.3059 11.2032C84.6906 12.4623 84.104 12.448 83.546 11.1603C82.9451 9.97272 82.108 9.07846 81.0349 8.47752C79.9618 7.87659 78.7456 7.57612 77.3864 7.57612C76.1416 7.57612 74.954 7.94813 73.8237 8.69215C72.6933 9.43617 71.8277 10.4377 71.2267 11.6968C71.0121 12.169 70.8047 12.3765 70.6043 12.3192C70.404 12.2477 70.3039 11.9544 70.3039 11.4393C70.3039 11.2533 70.3253 11.0458 70.3683 10.8169C70.4112 10.5737 70.4684 10.2732 70.54 9.91549C70.6115 9.54348 70.6687 9.24301 70.7116 9.01408C70.7975 8.44175 70.4899 8.0769 69.7888 7.91951C69.2737 7.80504 68.4939 7.74781 67.4494 7.74781C66.5194 7.74781 65.7754 7.80504 65.2174 7.91951C64.6593 8.00536 64.3374 8.37021 64.2516 9.01408C64.2013 9.67979 64.1546 10.3369 64.1117 10.9855C64.9999 12.497 65.5171 14.3215 65.7068 16.3989L65.7079 16.4104L65.7087 16.422C65.9535 19.7055 66.2047 24.2935 66.4624 30.179L66.4638 30.2096V30.2401C66.4638 30.8325 66.3138 31.4529 65.901 31.9762Z" fill="#0E337D"/>
<path fill-rule="evenodd" clip-rule="evenodd" d="M21.8874 27.5144C22.1971 27.9122 22.5364 28.2874 22.9051 28.6401C25.2087 30.8436 28.3207 31.9453 32.2411 31.9453C33.9152 31.9453 35.5821 31.7665 37.2418 31.4088C38.9015 31.0511 40.2393 30.5288 41.2552 29.842C41.2725 29.8314 41.2893 29.8204 41.3058 29.8091C40.9498 29.0054 40.6666 28.1077 40.4804 27.1069C40.1688 25.4319 40.2727 23.919 40.648 22.5822C39.733 23.1826 38.8303 23.7608 37.9398 24.3167C36.8211 24.9441 35.8397 25.3996 34.9956 25.6833C32.4635 26.5342 30.5293 26.626 28.6808 25.8391C26.7606 25.0261 24.2198 22.7525 26.0265 18.9354C27.0845 22.0647 30.4356 22.8112 33.4484 21.7987C34.2925 21.515 35.3246 20.967 36.5448 20.1546C37.7123 19.36 38.7837 18.6227 39.7591 17.9429C40.2511 17.588 40.8019 17.2035 41.4113 16.7893C41.4789 16.3912 41.5128 15.9775 41.5128 15.5483C41.5128 12.9156 40.5684 10.891 38.6798 9.47448C36.8054 8.05798 34.28 7.34973 31.1036 7.34973C28.8573 7.34973 26.8613 7.81474 25.1157 8.74477C23.3844 9.66049 22.0037 11.0412 20.9735 12.887C19.9576 14.7184 19.4497 16.8861 19.4497 19.39C19.4497 20.8564 19.6074 22.2024 19.9228 23.4279C20.1404 23.4723 20.3472 23.5486 20.5385 23.6482C21.0031 23.8791 21.3774 24.2429 21.6153 24.7188C21.8432 25.1745 21.9108 25.6605 21.9022 26.1092C21.902 26.4715 21.8971 26.9406 21.8874 27.5144Z" fill="#0E337D"/>
<path fill-rule="evenodd" clip-rule="evenodd" d="M43.2578 15.842C44.1205 15.2773 44.9724 14.7325 45.8133 14.2075C46.8604 13.5539 47.7795 13.0942 48.5708 12.8282C51.2085 11.9418 52.9636 12.2433 54.6891 12.8606C56.6471 13.7615 60.3519 16.8485 59.0399 19.8268C57.9039 18.4724 56.3466 17.4538 54.5404 16.9381C54.4541 16.9277 54.3724 16.9176 54.2941 16.9078C53.4588 16.8042 53.0055 16.7479 51.3115 16.8689C50.0718 17.0755 48.7099 17.5547 47.4229 18.247C47.3781 18.2786 47.3329 18.3106 47.2874 18.343C46.5621 18.816 45.8851 19.2646 45.2564 19.6887C43.4366 21.1778 42.1143 23.1291 42.1143 25.2943C42.1143 29.8871 44.5896 32.1836 49.5402 32.1836C51.1141 32.1836 52.595 31.7615 53.9829 30.9173C55.3851 30.0588 56.4224 28.9142 57.0949 27.4834C57.2666 27.1114 57.474 26.9611 57.7173 27.0327C57.9605 27.1042 58.0607 27.3475 58.0177 27.7624C57.9891 28.1487 57.8747 28.9929 57.6744 30.2949C57.6171 30.6669 57.703 30.996 57.9319 31.2822C58.1608 31.554 58.4685 31.7257 58.8548 31.7973C59.4414 31.9404 60.3357 32.0119 61.5375 32.0119C62.6106 32.0119 63.4048 31.9404 63.9198 31.7973C64.7354 31.6542 65.1432 31.1963 65.1432 30.4237C64.8856 24.5431 64.6352 19.9716 64.392 16.7094C64.1058 13.5759 63.0399 11.2723 61.1941 9.79861C59.3627 8.32488 56.7372 7.58801 53.3175 7.58801C50.4416 7.58801 46.3975 7.58801 42.2553 8.8972C42.2186 8.91124 42.1744 8.92774 42.1239 8.94656L42.1239 8.94657C41.9187 9.0231 41.6106 9.13801 41.2876 9.28157C42.4381 10.8944 43.2581 13.0219 43.2581 15.7497C43.2581 15.7806 43.258 15.8113 43.2578 15.842Z" fill="#0E337D"/>
<path d="M12.8773 31.9999C10.5164 31.9999 8.57769 31.3203 7.06103 29.961C5.55869 28.5875 4.80036 26.6487 4.78605 24.1448C4.78605 19.6807 4.92913 15.9463 5.21529 12.9416C5.2296 12.7413 5.15091 12.5624 4.97921 12.405C4.80751 12.2333 4.62151 12.1475 4.42119 12.1475C2.96177 12.1475 1.88151 12.1618 1.18042 12.1904C0.85133 12.2047 0.572323 12.0974 0.343394 11.8685C0.114465 11.6252 0 11.3319 0 10.9885V8.92816C0 8.59907 0.114465 8.32006 0.343394 8.09113C0.572323 7.8622 0.85133 7.74774 1.18042 7.74774H4.42119C4.66443 7.74774 4.85759 7.66905 5.00067 7.51166C5.14375 7.35427 5.21529 7.15395 5.21529 6.91072C5.21529 5.60868 5.27252 4.44973 5.38699 3.43386C5.47284 2.70414 5.84485 2.29636 6.50302 2.21052C7.1755 2.09605 7.90521 2.03882 8.69215 2.03882C9.4791 2.03882 10.2088 2.09605 10.8813 2.21052C11.1961 2.25344 11.4608 2.38937 11.6754 2.6183C11.9043 2.83292 11.9973 3.10477 11.9544 3.43386C11.9401 3.60555 11.89 4.10634 11.8042 4.9362C11.7183 5.75176 11.6754 6.39563 11.6754 6.86779C11.6754 7.12534 11.7541 7.33996 11.9115 7.51166C12.0689 7.66905 12.2549 7.74774 12.4695 7.74774C14.2866 7.74774 16.4257 7.71912 18.8867 7.66189C19.2157 7.66189 19.4947 7.77636 19.7237 8.00529C19.9669 8.23421 20.0885 8.51322 20.0885 8.84231V11.2246C20.0885 11.568 19.9669 11.8613 19.7237 12.1045C19.4947 12.3478 19.2157 12.4479 18.8867 12.405C18.2857 12.3335 17.3271 12.2762 16.0107 12.2333C14.6944 12.1904 13.7357 12.1761 13.1348 12.1904C12.0617 12.1904 11.4608 12.7341 11.332 13.8215C11.1174 16.3397 11.0744 19.4732 11.2032 23.2219C11.2605 24.3093 11.5609 25.1106 12.1046 25.6257C12.6626 26.1265 13.3995 26.3769 14.3152 26.3769C14.8589 26.3769 15.6602 26.2409 16.719 25.9691C17.7921 25.6972 18.5146 25.4254 18.8867 25.1535C19.2587 24.7529 19.645 24.6599 20.0456 24.8745C20.4605 25.0748 20.6609 25.4754 20.6465 26.0764C20.6465 26.5056 20.6394 27.0994 20.6251 27.8577C20.6108 28.6018 20.6036 29.1669 20.6036 29.5532C20.5607 30.2114 20.296 30.6621 19.8095 30.9054C19.0655 31.2487 17.9924 31.5135 16.5902 31.6995C15.188 31.8998 13.9504 31.9999 12.8773 31.9999Z" fill="#0E337D"/>
</svg>
